<?xml version="1.0" encoding="UTF-8" standalone="no"?>
<svg
   xmlns:dc="http://purl.org/dc/elements/1.1/"
   xmlns:cc="http://creativecommons.org/ns#"
   xmlns:rdf="http://www.w3.org/1999/02/22-rdf-syntax-ns#"
   xmlns:svg="http://www.w3.org/2000/svg"
   xmlns="http://www.w3.org/2000/svg"
   viewBox="0 0 373.33334 109.33333"
   height="109.33333"
   width="373.33334"
   xml:space="preserve"
   id="svg29"
   version="1.1"><metadata
     id="metadata35"><rdf:RDF><cc:Work
         rdf:about=""><dc:format>image/svg+xml</dc:format><dc:type
           rdf:resource="http://purl.org/dc/dcmitype/StillImage" /><dc:title></dc:title></cc:Work></rdf:RDF></metadata><defs
     id="defs33"><clipPath
       id="clipPath45"
       clipPathUnits="userSpaceOnUse"><path
         id="path43"
         d="M 0,82 H 280 V 0 H 0 Z" /></clipPath></defs><g
     transform="matrix(1.3333333,0,0,-1.3333333,0,109.33333)"
     id="g37"><g
       id="g39"><g
         clip-path="url(#clipPath45)"
         id="g41"><g
           transform="translate(27.959,33.6152)"
           id="g47"><path
             id="path49"
             style="fill:#de2225;fill-opacity:1;fill-rule:nonzero;stroke:none"
             d="m 0,0 5.977,-0.777 c -0.654,-4.119 -2.326,-7.344 -5.015,-9.674 -2.691,-2.33 -5.993,-3.494 -9.91,-3.494 -4.908,0 -8.853,1.603 -11.835,4.811 -2.984,3.208 -4.475,7.806 -4.475,13.794 0,3.871 0.642,7.259 1.925,10.163 1.283,2.904 3.236,5.082 5.858,6.534 2.622,1.452 5.476,2.178 8.561,2.178 3.893,0 7.079,-0.985 9.556,-2.954 2.475,-1.971 4.062,-4.768 4.76,-8.392 l -5.909,-0.911 c -0.562,2.409 -1.558,4.221 -2.988,5.436 -1.43,1.216 -3.157,1.824 -5.183,1.824 -3.062,0 -5.55,-1.098 -7.463,-3.292 -1.913,-2.195 -2.87,-5.668 -2.87,-10.418 0,-4.817 0.923,-8.318 2.769,-10.501 1.846,-2.183 4.255,-3.275 7.226,-3.275 2.386,0 4.378,0.731 5.977,2.194 C -1.441,-5.291 -0.428,-3.039 0,0" /></g><g
           transform="translate(39.1357,20.4805)"
           id="g51"><path
             id="path53"
             style="fill:#de2225;fill-opacity:1;fill-rule:nonzero;stroke:none"
             d="m 0,0 v 35.859 h 5.47 v -5.098 c 2.634,3.939 6.437,5.909 11.413,5.909 2.161,0 4.147,-0.389 5.96,-1.165 1.811,-0.777 3.168,-1.796 4.068,-3.056 0.901,-1.261 1.531,-2.758 1.892,-4.491 0.224,-1.126 0.337,-3.095 0.337,-5.909 V 0 h -6.078 v 21.812 c 0,2.477 -0.237,4.328 -0.709,5.555 -0.473,1.227 -1.312,2.206 -2.516,2.938 -1.204,0.731 -2.616,1.097 -4.237,1.097 -2.589,0 -4.824,-0.822 -6.703,-2.465 -1.879,-1.643 -2.82,-4.761 -2.82,-9.353 L 6.077,0 Z" /></g><path
           id="path55"
           style="fill:#de2225;fill-opacity:1;fill-rule:nonzero;stroke:none"
           d="m 77.629,56.34 h 6.078 V 20.481 h -6.078 z m 0,13.641 h 6.078 v -6.99 h -6.078 z" /><g
           transform="translate(97.0107,38.376)"
           id="g57"><path
             id="path59"
             style="fill:#de2225;fill-opacity:1;fill-rule:nonzero;stroke:none"
             d="m 0,0 c 0,-4.593 0.968,-8.024 2.904,-10.298 1.936,-2.275 4.221,-3.411 6.855,-3.411 2.656,0 4.913,1.086 6.77,3.259 1.857,2.172 2.785,5.486 2.785,9.943 0,4.908 -0.945,8.51 -2.835,10.806 -1.892,2.296 -4.221,3.444 -6.991,3.444 C 6.787,13.743 4.53,12.64 2.719,10.434 0.906,8.228 0,4.75 0,0 m 19.213,-17.896 v 4.525 c -2.274,-3.558 -5.616,-5.335 -10.028,-5.335 -2.859,0 -5.488,0.788 -7.884,2.363 -2.398,1.576 -4.255,3.776 -5.572,6.602 -1.317,2.824 -1.975,6.072 -1.975,9.741 0,3.58 0.596,6.826 1.789,9.742 1.193,2.915 2.982,5.149 5.369,6.702 2.386,1.554 5.054,2.33 8.003,2.33 2.16,0 4.085,-0.456 5.773,-1.367 1.689,-0.912 3.062,-2.099 4.121,-3.563 v 17.761 h 6.044 v -49.501 z" /></g><g
           transform="translate(142.9219,63.8428)"
           id="g61"><path
             id="path63"
             style="fill:#231f20;fill-opacity:1;fill-rule:nonzero;stroke:none"
             d="M 0,0 C 0,0.659 0.116,1.316 0.348,1.971 0.58,2.625 0.92,3.212 1.367,3.732 1.816,4.253 2.364,4.673 3.014,4.992 3.662,5.312 4.398,5.471 5.223,5.471 6.202,5.471 7.041,5.249 7.742,4.807 8.443,4.363 8.963,3.786 9.303,3.075 L 8.206,2.365 C 8.041,2.715 7.843,3.009 7.611,3.246 7.379,3.482 7.127,3.673 6.854,3.817 6.58,3.962 6.3,4.064 6.012,4.127 5.723,4.188 5.439,4.219 5.162,4.219 4.554,4.219 4.016,4.093 3.547,3.841 3.078,3.588 2.684,3.259 2.364,2.852 2.045,2.444 1.806,1.986 1.646,1.477 1.486,0.966 1.406,0.454 1.406,-0.062 c 0,-0.577 0.096,-1.125 0.286,-1.645 0.191,-0.521 0.456,-0.981 0.796,-1.383 0.34,-0.402 0.742,-0.722 1.205,-0.958 0.464,-0.237 0.969,-0.355 1.515,-0.355 0.288,0 0.585,0.035 0.889,0.107 0.303,0.072 0.594,0.189 0.873,0.348 0.278,0.16 0.538,0.361 0.78,0.603 0.242,0.241 0.44,0.532 0.595,0.873 L 9.504,-3.105 C 9.328,-3.518 9.084,-3.881 8.77,-4.195 8.455,-4.51 8.1,-4.774 7.703,-4.991 7.307,-5.207 6.887,-5.372 6.444,-5.485 6.001,-5.599 5.568,-5.655 5.146,-5.655 c -0.751,0 -1.443,0.164 -2.071,0.494 -0.628,0.33 -1.172,0.76 -1.63,1.29 C 0.986,-3.34 0.631,-2.737 0.379,-2.063 0.126,-1.388 0,-0.7 0,0" /></g><g
           transform="translate(155.3467,62.2822)"
           id="g65"><path
             id="path67"
             style="fill:#231f20;fill-opacity:1;fill-rule:nonzero;stroke:none"
             d="m 0,0 c 0,-0.422 0.069,-0.813 0.208,-1.174 0.14,-0.361 0.33,-0.675 0.572,-0.943 0.242,-0.268 0.526,-0.479 0.85,-0.633 0.324,-0.155 0.672,-0.232 1.043,-0.232 0.371,0 0.719,0.077 1.043,0.232 0.325,0.154 0.611,0.368 0.858,0.641 0.247,0.273 0.441,0.592 0.579,0.958 0.139,0.366 0.209,0.759 0.209,1.182 0,0.412 -0.07,0.801 -0.209,1.167 C 5.015,1.563 4.821,1.883 4.574,2.156 4.327,2.429 4.041,2.643 3.716,2.797 3.392,2.952 3.044,3.029 2.673,3.029 2.302,3.029 1.954,2.949 1.63,2.789 1.306,2.63 1.022,2.413 0.78,2.141 0.538,1.867 0.348,1.548 0.208,1.183 0.069,0.816 0,0.423 0,0 m 2.673,-4.156 c -0.608,0 -1.161,0.113 -1.66,0.34 -0.5,0.226 -0.928,0.53 -1.284,0.911 -0.355,0.381 -0.63,0.824 -0.826,1.329 -0.196,0.505 -0.295,1.035 -0.295,1.592 0,0.566 0.102,1.102 0.302,1.607 0.201,0.505 0.48,0.947 0.835,1.329 0.356,0.381 0.783,0.685 1.282,0.911 0.499,0.227 1.048,0.34 1.646,0.34 0.598,0 1.148,-0.113 1.654,-0.34 C 4.831,3.637 5.262,3.333 5.617,2.952 5.973,2.57 6.251,2.128 6.452,1.623 6.652,1.118 6.753,0.582 6.753,0.016 6.753,-0.541 6.655,-1.071 6.46,-1.576 6.264,-2.081 5.985,-2.524 5.625,-2.905 5.265,-3.286 4.834,-3.59 4.335,-3.816 3.835,-4.043 3.281,-4.156 2.673,-4.156" /></g><g
           transform="translate(171.2939,58.2803)"
           id="g69"><path
             id="path71"
             style="fill:#231f20;fill-opacity:1;fill-rule:nonzero;stroke:none"
             d="m 0,0 h -1.36 v 4.512 c 0,0.866 -0.131,1.494 -0.394,1.885 -0.263,0.392 -0.662,0.587 -1.198,0.587 -0.277,0 -0.556,-0.053 -0.834,-0.162 C -4.064,6.714 -4.327,6.567 -4.574,6.382 -4.821,6.196 -5.038,5.975 -5.224,5.718 -5.409,5.46 -5.548,5.177 -5.641,4.867 V 0 h -1.36 v 8.066 h 1.236 v -1.73 c 0.321,0.566 0.782,1.019 1.383,1.359 0.604,0.34 1.26,0.51 1.971,0.51 0.464,0 0.849,-0.085 1.159,-0.255 0.31,-0.17 0.557,-0.407 0.741,-0.711 C -0.325,6.936 -0.193,6.577 -0.116,6.166 -0.038,5.754 0,5.306 0,4.821 Z" /></g><g
           transform="translate(176.7793,58.126)"
           id="g73"><path
             id="path75"
             style="fill:#231f20;fill-opacity:1;fill-rule:nonzero;stroke:none"
             d="m 0,0 c -0.648,0 -1.287,0.1 -1.916,0.301 -0.629,0.201 -1.17,0.492 -1.623,0.873 l 0.588,0.912 c 0.473,-0.361 0.947,-0.632 1.422,-0.812 0.473,-0.18 0.972,-0.27 1.498,-0.27 0.588,0 1.053,0.116 1.399,0.348 0.345,0.231 0.518,0.558 0.518,0.981 0,0.195 -0.046,0.363 -0.14,0.502 C 1.654,2.975 1.515,3.096 1.329,3.198 1.145,3.301 0.906,3.394 0.619,3.477 0.33,3.559 -0.005,3.646 -0.387,3.739 c -0.484,0.124 -0.9,0.242 -1.251,0.356 -0.35,0.113 -0.639,0.247 -0.865,0.401 -0.227,0.155 -0.392,0.34 -0.495,0.557 -0.103,0.217 -0.154,0.484 -0.154,0.803 0,0.402 0.08,0.76 0.24,1.075 0.159,0.313 0.378,0.576 0.656,0.788 0.278,0.211 0.606,0.37 0.982,0.478 0.376,0.109 0.78,0.162 1.212,0.162 0.609,0 1.175,-0.097 1.701,-0.293 C 2.164,7.87 2.606,7.612 2.967,7.294 L 2.35,6.475 C 2.01,6.773 1.628,6.997 1.205,7.146 0.783,7.296 0.351,7.371 -0.092,7.371 -0.587,7.371 -1.007,7.265 -1.352,7.054 -1.697,6.843 -1.869,6.505 -1.869,6.042 -1.869,5.856 -1.836,5.702 -1.77,5.578 -1.702,5.454 -1.592,5.347 -1.437,5.254 -1.282,5.161 -1.084,5.078 -0.842,5.007 -0.6,4.935 -0.309,4.856 0.031,4.774 0.566,4.651 1.033,4.524 1.43,4.396 1.826,4.267 2.156,4.115 2.419,3.94 2.682,3.765 2.877,3.559 3.006,3.322 3.135,3.085 3.199,2.797 3.199,2.457 3.199,1.704 2.91,1.106 2.334,0.664 1.757,0.221 0.979,0 0,0" /></g><g
           transform="translate(188.4629,62.8545)"
           id="g77"><path
             id="path79"
             style="fill:#231f20;fill-opacity:1;fill-rule:nonzero;stroke:none"
             d="m 0,0 c -0.031,0.381 -0.127,0.733 -0.287,1.059 -0.159,0.324 -0.359,0.599 -0.602,0.826 -0.242,0.226 -0.523,0.404 -0.842,0.533 -0.32,0.129 -0.66,0.193 -1.021,0.193 -0.359,0 -0.7,-0.064 -1.019,-0.193 C -4.091,2.289 -4.371,2.109 -4.613,1.877 -4.855,1.646 -5.051,1.37 -5.201,1.051 -5.35,0.731 -5.439,0.381 -5.471,0 Z m -2.767,-4.729 c -0.608,0 -1.165,0.111 -1.669,0.333 -0.504,0.22 -0.937,0.522 -1.298,0.903 -0.36,0.382 -0.641,0.827 -0.842,1.337 -0.201,0.51 -0.301,1.049 -0.301,1.615 0,0.566 0.1,1.103 0.301,1.607 0.201,0.504 0.484,0.948 0.849,1.329 0.367,0.381 0.801,0.682 1.307,0.904 0.504,0.222 1.061,0.332 1.668,0.332 0.608,0 1.162,-0.113 1.662,-0.34 C -0.59,3.064 -0.166,2.764 0.186,2.388 0.535,2.011 0.806,1.573 0.996,1.073 1.187,0.574 1.282,0.057 1.282,-0.479 1.282,-0.593 1.279,-0.695 1.274,-0.788 1.27,-0.881 1.262,-0.953 1.251,-1.005 h -6.69 c 0.03,-0.401 0.123,-0.767 0.277,-1.097 0.154,-0.33 0.355,-0.613 0.603,-0.85 0.247,-0.237 0.528,-0.422 0.842,-0.556 0.315,-0.135 0.647,-0.201 0.996,-0.201 0.248,0 0.491,0.033 0.727,0.101 0.236,0.066 0.459,0.156 0.664,0.27 0.207,0.113 0.389,0.252 0.549,0.417 0.16,0.165 0.281,0.35 0.363,0.557 L 0.757,-2.689 C 0.623,-2.988 0.439,-3.261 0.208,-3.508 c -0.231,-0.248 -0.5,-0.462 -0.804,-0.641 -0.303,-0.181 -0.64,-0.323 -1.011,-0.425 -0.372,-0.104 -0.758,-0.155 -1.16,-0.155" /></g><path
           id="path81"
           style="fill:#231f20;fill-opacity:1;fill-rule:nonzero;stroke:none"
           d="m 191.908,69.561 h 1.36 v -1.699 h -1.36 z m -1.142,-14.156 c -0.362,0 -0.7,0.052 -1.013,0.156 -0.315,0.102 -0.595,0.267 -0.843,0.494 l 0.634,0.912 c 0.144,-0.134 0.311,-0.227 0.503,-0.279 0.19,-0.051 0.378,-0.077 0.563,-0.077 0.165,0 0.326,0.034 0.48,0.101 0.154,0.066 0.293,0.157 0.417,0.27 0.124,0.114 0.222,0.252 0.294,0.417 0.071,0.165 0.107,0.34 0.107,0.526 v 8.422 h 1.361 v -8.329 c 0,-0.381 -0.07,-0.732 -0.209,-1.051 -0.139,-0.32 -0.325,-0.596 -0.556,-0.827 -0.233,-0.232 -0.498,-0.412 -0.797,-0.541 -0.299,-0.129 -0.612,-0.194 -0.941,-0.194" /><g
           transform="translate(196.8535,62.2822)"
           id="g83"><path
             id="path85"
             style="fill:#231f20;fill-opacity:1;fill-rule:nonzero;stroke:none"
             d="m 0,0 c 0,-0.422 0.069,-0.813 0.209,-1.174 0.139,-0.361 0.329,-0.675 0.571,-0.943 0.241,-0.268 0.526,-0.479 0.851,-0.633 0.324,-0.155 0.672,-0.232 1.043,-0.232 0.37,0 0.719,0.077 1.043,0.232 0.324,0.154 0.609,0.368 0.857,0.641 0.247,0.273 0.441,0.592 0.579,0.958 0.14,0.366 0.209,0.759 0.209,1.182 0,0.412 -0.069,0.801 -0.209,1.167 C 5.015,1.563 4.821,1.883 4.574,2.156 4.326,2.429 4.041,2.643 3.717,2.797 3.393,2.952 3.044,3.029 2.674,3.029 2.303,3.029 1.955,2.949 1.631,2.789 1.306,2.63 1.021,2.413 0.78,2.141 0.538,1.867 0.348,1.548 0.209,1.183 0.069,0.816 0,0.423 0,0 m 2.674,-4.156 c -0.609,0 -1.162,0.113 -1.662,0.34 -0.5,0.226 -0.927,0.53 -1.283,0.911 -0.355,0.381 -0.631,0.824 -0.827,1.329 -0.195,0.505 -0.293,1.035 -0.293,1.592 0,0.566 0.1,1.102 0.301,1.607 0.201,0.505 0.48,0.947 0.834,1.329 0.356,0.381 0.783,0.685 1.283,0.911 0.5,0.227 1.049,0.34 1.647,0.34 0.597,0 1.148,-0.113 1.652,-0.34 C 4.832,3.637 5.262,3.333 5.617,2.952 5.973,2.57 6.25,2.128 6.451,1.623 6.652,1.118 6.753,0.582 6.753,0.016 6.753,-0.541 6.654,-1.071 6.459,-1.576 6.264,-2.081 5.985,-2.524 5.625,-2.905 5.264,-3.286 4.834,-3.59 4.334,-3.816 c -0.5,-0.227 -1.053,-0.34 -1.66,-0.34" /></g><g
           transform="translate(211.8584,66.6553)"
           id="g87"><path
             id="path89"
             style="fill:#231f20;fill-opacity:1;fill-rule:nonzero;stroke:none"
             d="M 0,0 V -8.375 H -1.391 V 2.597 h 1.081 l 6.801,-8.546 v 8.53 H 7.882 V -8.375 H 6.707 Z" /></g><g
           transform="translate(225.04,59.1455)"
           id="g91"><path
             id="path93"
             style="fill:#231f20;fill-opacity:1;fill-rule:nonzero;stroke:none"
             d="M 0,0 C 0.483,0 0.935,0.09 1.353,0.271 1.77,0.45 2.086,0.69 2.302,0.989 2.498,1.185 2.597,1.386 2.597,1.592 V 2.781 C 1.937,3.039 1.251,3.168 0.541,3.168 -0.14,3.168 -0.692,3.023 -1.12,2.735 -1.548,2.446 -1.762,2.07 -1.762,1.607 -1.762,1.38 -1.718,1.169 -1.63,0.974 -1.543,0.777 -1.419,0.607 -1.26,0.464 -1.101,0.319 -0.911,0.206 -0.695,0.123 -0.479,0.041 -0.247,0 0,0 m -0.355,-1.02 c -0.382,0 -0.738,0.065 -1.067,0.193 -0.329,0.129 -0.616,0.306 -0.857,0.533 -0.242,0.227 -0.433,0.492 -0.572,0.796 -0.139,0.304 -0.209,0.636 -0.209,0.997 0,0.371 0.082,0.708 0.247,1.012 0.166,0.303 0.4,0.564 0.704,0.78 0.303,0.217 0.665,0.387 1.081,0.511 0.418,0.123 0.873,0.185 1.368,0.185 0.391,0 0.788,-0.037 1.19,-0.108 0.402,-0.072 0.757,-0.17 1.067,-0.294 v 0.649 c 0,0.66 -0.186,1.177 -0.557,1.553 -0.371,0.376 -0.896,0.565 -1.576,0.565 -0.815,0 -1.67,-0.315 -2.566,-0.944 L -2.55,6.289 C -1.509,6.99 -0.464,7.34 0.587,7.34 1.647,7.34 2.475,7.057 3.067,6.49 3.659,5.924 3.956,5.125 3.956,4.095 V 0.804 c 0,-0.32 0.145,-0.485 0.433,-0.495 V -0.865 C 4.244,-0.886 4.126,-0.901 4.033,-0.912 3.94,-0.922 3.843,-0.928 3.739,-0.928 c -0.267,0 -0.481,0.08 -0.64,0.241 -0.161,0.159 -0.256,0.352 -0.286,0.579 L 2.782,0.464 C 2.421,-0.021 1.965,-0.389 1.414,-0.642 0.862,-0.894 0.272,-1.02 -0.355,-1.02" /></g><g
           transform="translate(231.1748,62.3291)"
           id="g95"><path
             id="path97"
             style="fill:#231f20;fill-opacity:1;fill-rule:nonzero;stroke:none"
             d="M 0,0 C 0,0.566 0.099,1.102 0.294,1.606 0.489,2.111 0.768,2.552 1.128,2.928 1.489,3.304 1.919,3.603 2.419,3.824 2.918,4.046 3.478,4.156 4.095,4.156 4.899,4.156 5.592,3.979 6.174,3.623 6.756,3.268 7.196,2.791 7.495,2.194 L 6.166,1.776 C 5.96,2.158 5.671,2.454 5.301,2.665 4.93,2.876 4.518,2.982 4.064,2.982 3.693,2.982 3.343,2.907 3.014,2.758 2.684,2.608 2.4,2.4 2.163,2.132 1.927,1.864 1.739,1.55 1.6,1.189 1.46,0.829 1.392,0.433 1.392,0 c 0,-0.423 0.071,-0.819 0.215,-1.19 0.144,-0.372 0.337,-0.693 0.58,-0.966 0.242,-0.273 0.525,-0.487 0.849,-0.641 0.325,-0.155 0.673,-0.232 1.044,-0.232 0.237,0 0.472,0.033 0.703,0.1 0.232,0.067 0.443,0.158 0.634,0.271 0.189,0.113 0.357,0.244 0.502,0.393 0.144,0.15 0.247,0.312 0.309,0.488 L 7.557,-2.18 C 7.433,-2.479 7.261,-2.751 7.039,-2.998 6.817,-3.245 6.558,-3.457 6.259,-3.632 5.96,-3.808 5.628,-3.946 5.263,-4.049 4.896,-4.152 4.513,-4.203 4.11,-4.203 c -0.607,0 -1.164,0.113 -1.668,0.34 -0.505,0.226 -0.937,0.53 -1.298,0.911 C 0.783,-2.571 0.503,-2.125 0.302,-1.615 0.101,-1.105 0,-0.567 0,0" /></g><path
           id="path99"
           style="fill:#231f20;fill-opacity:1;fill-rule:nonzero;stroke:none"
           d="m 240.818,66.347 h 1.359 v -8.066 h -1.359 z m 0,3.214 h 1.359 v -1.699 h -1.359 z" /><g
           transform="translate(245.7627,62.2822)"
           id="g101"><path
             id="path103"
             style="fill:#231f20;fill-opacity:1;fill-rule:nonzero;stroke:none"
             d="m 0,0 c 0,-0.422 0.069,-0.813 0.208,-1.174 0.14,-0.361 0.33,-0.675 0.572,-0.943 0.242,-0.268 0.526,-0.479 0.85,-0.633 0.324,-0.155 0.672,-0.232 1.043,-0.232 0.371,0 0.719,0.077 1.043,0.232 0.325,0.154 0.611,0.368 0.858,0.641 0.247,0.273 0.441,0.592 0.579,0.958 0.139,0.366 0.209,0.759 0.209,1.182 0,0.412 -0.07,0.801 -0.209,1.167 C 5.015,1.563 4.821,1.883 4.574,2.156 4.327,2.429 4.041,2.643 3.716,2.797 3.392,2.952 3.044,3.029 2.673,3.029 2.302,3.029 1.954,2.949 1.63,2.789 1.306,2.63 1.022,2.413 0.78,2.141 0.538,1.867 0.348,1.548 0.208,1.183 0.069,0.816 0,0.423 0,0 m 2.673,-4.156 c -0.608,0 -1.161,0.113 -1.66,0.34 -0.5,0.226 -0.928,0.53 -1.284,0.911 -0.355,0.381 -0.63,0.824 -0.826,1.329 -0.196,0.505 -0.295,1.035 -0.295,1.592 0,0.566 0.102,1.102 0.302,1.607 0.201,0.505 0.48,0.947 0.835,1.329 0.356,0.381 0.783,0.685 1.282,0.911 0.499,0.227 1.048,0.34 1.646,0.34 0.598,0 1.148,-0.113 1.654,-0.34 C 4.831,3.637 5.262,3.333 5.617,2.952 5.973,2.57 6.251,2.128 6.452,1.623 6.652,1.118 6.753,0.582 6.753,0.016 6.753,-0.541 6.655,-1.071 6.46,-1.576 6.264,-2.081 5.985,-2.524 5.625,-2.905 5.265,-3.286 4.834,-3.59 4.335,-3.816 3.835,-4.043 3.281,-4.156 2.673,-4.156" /></g><g
           transform="translate(261.7109,58.2803)"
           id="g105"><path
             id="path107"
             style="fill:#231f20;fill-opacity:1;fill-rule:nonzero;stroke:none"
             d="m 0,0 h -1.36 v 4.512 c 0,0.866 -0.132,1.494 -0.394,1.885 -0.264,0.392 -0.662,0.587 -1.198,0.587 -0.278,0 -0.556,-0.053 -0.835,-0.162 C -4.064,6.714 -4.328,6.567 -4.574,6.382 -4.822,6.196 -5.039,5.975 -5.224,5.718 -5.409,5.46 -5.549,5.177 -5.641,4.867 V 0 h -1.36 v 8.066 h 1.236 v -1.73 c 0.32,0.566 0.781,1.019 1.383,1.359 0.603,0.34 1.26,0.51 1.971,0.51 0.464,0 0.849,-0.085 1.159,-0.255 C -0.943,7.78 -0.695,7.543 -0.511,7.239 -0.325,6.936 -0.193,6.577 -0.117,6.166 -0.039,5.754 0,5.306 0,4.821 Z" /></g><g
           transform="translate(266.7949,59.1455)"
           id="g109"><path
             id="path111"
             style="fill:#231f20;fill-opacity:1;fill-rule:nonzero;stroke:none"
             d="M 0,0 C 0.483,0 0.935,0.09 1.352,0.271 1.77,0.45 2.086,0.69 2.302,0.989 2.498,1.185 2.596,1.386 2.596,1.592 V 2.781 C 1.936,3.039 1.251,3.168 0.541,3.168 -0.14,3.168 -0.693,3.023 -1.121,2.735 -1.549,2.446 -1.762,2.07 -1.762,1.607 -1.762,1.38 -1.719,1.169 -1.631,0.974 -1.543,0.777 -1.42,0.607 -1.26,0.464 -1.101,0.319 -0.912,0.206 -0.695,0.123 -0.479,0.041 -0.248,0 0,0 m -0.355,-1.02 c -0.382,0 -0.738,0.065 -1.067,0.193 -0.33,0.129 -0.616,0.306 -0.857,0.533 -0.242,0.227 -0.434,0.492 -0.573,0.796 -0.138,0.304 -0.209,0.636 -0.209,0.997 0,0.371 0.082,0.708 0.248,1.012 0.165,0.303 0.399,0.564 0.704,0.78 0.302,0.217 0.664,0.387 1.081,0.511 0.417,0.123 0.873,0.185 1.368,0.185 0.39,0 0.787,-0.037 1.189,-0.108 0.403,-0.072 0.758,-0.17 1.067,-0.294 v 0.649 c 0,0.66 -0.186,1.177 -0.557,1.553 -0.371,0.376 -0.896,0.565 -1.576,0.565 -0.815,0 -1.669,-0.315 -2.565,-0.944 L -2.551,6.289 C -1.51,6.99 -0.465,7.34 0.586,7.34 1.647,7.34 2.475,7.057 3.066,6.49 3.659,5.924 3.955,5.125 3.955,4.095 V 0.804 C 3.955,0.484 4.1,0.319 4.389,0.309 V -0.865 C 4.244,-0.886 4.125,-0.901 4.033,-0.912 3.939,-0.922 3.842,-0.928 3.739,-0.928 c -0.268,0 -0.481,0.08 -0.641,0.241 -0.16,0.159 -0.255,0.352 -0.285,0.579 L 2.781,0.464 C 2.42,-0.021 1.965,-0.389 1.414,-0.642 0.862,-0.894 0.272,-1.02 -0.355,-1.02" /></g><g
           transform="translate(273.501,69.5605)"
           id="g113"><path
             id="path115"
             style="fill:#231f20;fill-opacity:1;fill-rule:nonzero;stroke:none"
             d="m 0,0 h 1.36 v -9.194 c 0,-0.299 0.08,-0.534 0.24,-0.703 0.159,-0.17 0.383,-0.255 0.672,-0.255 0.114,0 0.247,0.017 0.401,0.053 0.155,0.036 0.299,0.08 0.433,0.132 l 0.217,-1.097 c -0.227,-0.093 -0.495,-0.17 -0.804,-0.232 -0.309,-0.061 -0.582,-0.093 -0.819,-0.093 -0.525,0 -0.94,0.15 -1.244,0.449 C 0.151,-10.642 0,-10.225 0,-9.688 Z" /></g><g
           transform="translate(147.0635,41.2715)"
           id="g117"><path
             id="path119"
             style="fill:#231f20;fill-opacity:1;fill-rule:nonzero;stroke:none"
             d="M 0,0 C 0.247,0 0.503,0.046 0.765,0.139 1.028,0.231 1.274,0.36 1.507,0.525 1.738,0.689 1.939,0.883 2.109,1.104 2.279,1.326 2.39,1.561 2.441,1.808 V 4.126 C 2.349,4.383 2.21,4.628 2.024,4.859 1.839,5.092 1.63,5.292 1.398,5.462 1.167,5.633 0.919,5.767 0.657,5.864 0.394,5.962 0.134,6.011 -0.124,6.011 -0.525,6.011 -0.889,5.926 -1.213,5.756 -1.538,5.586 -1.815,5.359 -2.048,5.076 -2.279,4.793 -2.457,4.468 -2.581,4.103 -2.704,3.736 -2.767,3.363 -2.767,2.982 -2.767,2.58 -2.694,2.196 -2.55,1.831 -2.405,1.465 -2.21,1.148 -1.962,0.881 -1.716,0.612 -1.425,0.398 -1.089,0.239 -0.755,0.079 -0.392,0 0,0 m -0.325,-1.175 c -0.556,0 -1.071,0.113 -1.545,0.34 -0.474,0.227 -0.881,0.53 -1.221,0.912 -0.34,0.381 -0.605,0.824 -0.796,1.329 -0.19,0.504 -0.286,1.035 -0.286,1.592 0,0.566 0.09,1.105 0.272,1.614 0.179,0.51 0.431,0.956 0.756,1.337 0.325,0.381 0.71,0.683 1.16,0.905 0.447,0.22 0.939,0.332 1.475,0.332 0.65,0 1.229,-0.17 1.739,-0.51 0.509,-0.34 0.914,-0.753 1.212,-1.237 v 4.822 H 3.802 V 0.648 c 0,-0.319 0.144,-0.484 0.432,-0.494 V -1.021 C 4.09,-1.041 3.974,-1.057 3.887,-1.066 3.799,-1.077 3.714,-1.082 3.632,-1.082 c -0.269,0 -0.502,0.09 -0.703,0.27 -0.201,0.18 -0.302,0.389 -0.302,0.626 v 0.68 C 2.308,-0.031 1.883,-0.44 1.353,-0.734 0.821,-1.028 0.263,-1.175 -0.325,-1.175" /></g><g
           transform="translate(160.0137,44.8252)"
           id="g121"><path
             id="path123"
             style="fill:#231f20;fill-opacity:1;fill-rule:nonzero;stroke:none"
             d="m 0,0 c -0.031,0.381 -0.127,0.734 -0.286,1.059 -0.159,0.324 -0.36,0.6 -0.603,0.827 -0.242,0.226 -0.523,0.404 -0.841,0.533 -0.321,0.128 -0.661,0.192 -1.021,0.192 -0.36,0 -0.7,-0.064 -1.02,-0.192 C -4.09,2.29 -4.371,2.109 -4.613,1.878 -4.855,1.646 -5.051,1.37 -5.2,1.051 -5.35,0.731 -5.439,0.381 -5.471,0 Z m -2.766,-4.729 c -0.608,0 -1.165,0.111 -1.67,0.333 -0.503,0.221 -0.937,0.523 -1.297,0.904 -0.361,0.381 -0.642,0.827 -0.843,1.337 -0.2,0.509 -0.301,1.048 -0.301,1.614 0,0.566 0.101,1.103 0.301,1.607 0.201,0.505 0.484,0.949 0.85,1.33 0.367,0.38 0.801,0.682 1.306,0.904 0.505,0.221 1.061,0.332 1.669,0.332 0.608,0 1.161,-0.113 1.661,-0.34 C -0.59,3.065 -0.165,2.764 0.186,2.388 0.535,2.012 0.807,1.574 0.996,1.074 1.187,0.574 1.283,0.057 1.283,-0.479 1.283,-0.593 1.279,-0.695 1.275,-0.788 1.27,-0.881 1.262,-0.953 1.252,-1.004 h -6.691 c 0.031,-0.402 0.123,-0.767 0.277,-1.098 0.155,-0.33 0.355,-0.613 0.603,-0.849 0.247,-0.237 0.528,-0.423 0.842,-0.557 0.315,-0.134 0.647,-0.201 0.997,-0.201 0.247,0 0.49,0.034 0.726,0.101 0.237,0.067 0.459,0.157 0.665,0.27 0.206,0.113 0.389,0.253 0.549,0.417 0.159,0.165 0.28,0.351 0.362,0.557 L 0.758,-2.688 C 0.623,-2.987 0.44,-3.261 0.209,-3.508 c -0.232,-0.247 -0.5,-0.461 -0.805,-0.641 -0.302,-0.18 -0.64,-0.322 -1.011,-0.425 -0.372,-0.103 -0.757,-0.155 -1.159,-0.155" /></g><path
           id="path125"
           style="fill:#231f20;fill-opacity:1;fill-rule:nonzero;stroke:none"
           d="m 168.018,51.223 h 1.391 V 40.251 h -1.391 z" /><g
           transform="translate(179.3613,40.251)"
           id="g127"><path
             id="path129"
             style="fill:#231f20;fill-opacity:1;fill-rule:nonzero;stroke:none"
             d="m 0,0 h -1.36 v 4.513 c 0,0.865 -0.132,1.493 -0.394,1.884 -0.264,0.392 -0.662,0.588 -1.198,0.588 -0.278,0 -0.556,-0.054 -0.835,-0.162 C -4.064,6.715 -4.328,6.568 -4.574,6.383 -4.822,6.197 -5.039,5.976 -5.224,5.718 -5.409,5.46 -5.549,5.177 -5.641,4.868 V 0 h -1.36 v 8.066 h 1.236 v -1.73 c 0.32,0.566 0.781,1.02 1.383,1.36 0.603,0.34 1.26,0.51 1.971,0.51 0.464,0 0.849,-0.085 1.159,-0.255 C -0.943,7.781 -0.695,7.544 -0.511,7.24 -0.325,6.937 -0.193,6.578 -0.117,6.166 -0.039,5.754 0,5.306 0,4.821 Z" /></g><g
           transform="translate(189.0195,40.251)"
           id="g131"><path
             id="path133"
             style="fill:#231f20;fill-opacity:1;fill-rule:nonzero;stroke:none"
             d="m 0,0 h -1.36 v 4.513 c 0,0.865 -0.132,1.493 -0.394,1.884 -0.264,0.392 -0.662,0.588 -1.198,0.588 -0.278,0 -0.556,-0.054 -0.835,-0.162 C -4.064,6.715 -4.328,6.568 -4.574,6.383 -4.822,6.197 -5.039,5.976 -5.224,5.718 -5.409,5.46 -5.549,5.177 -5.641,4.868 V 0 h -1.36 v 8.066 h 1.236 v -1.73 c 0.32,0.566 0.781,1.02 1.383,1.36 0.603,0.34 1.26,0.51 1.971,0.51 0.464,0 0.849,-0.085 1.159,-0.255 C -0.943,7.781 -0.695,7.544 -0.511,7.24 -0.325,6.937 -0.193,6.578 -0.117,6.166 -0.039,5.754 0,5.306 0,4.821 Z" /></g><g
           transform="translate(192.5264,44.2539)"
           id="g135"><path
             id="path137"
             style="fill:#231f20;fill-opacity:1;fill-rule:nonzero;stroke:none"
             d="m 0,0 c 0,-0.423 0.069,-0.814 0.208,-1.175 0.14,-0.36 0.33,-0.675 0.572,-0.942 0.242,-0.269 0.526,-0.48 0.85,-0.634 0.324,-0.154 0.672,-0.231 1.043,-0.231 0.371,0 0.719,0.077 1.043,0.231 0.325,0.154 0.611,0.368 0.858,0.642 0.247,0.272 0.441,0.591 0.579,0.958 0.139,0.365 0.209,0.759 0.209,1.181 0,0.412 -0.07,0.801 -0.209,1.167 C 5.015,1.562 4.821,1.883 4.574,2.155 4.327,2.429 4.041,2.643 3.716,2.797 3.392,2.951 3.044,3.028 2.673,3.028 2.302,3.028 1.954,2.948 1.63,2.789 1.306,2.629 1.022,2.413 0.78,2.14 0.538,1.867 0.348,1.548 0.208,1.182 0.069,0.816 0,0.422 0,0 m 2.673,-4.157 c -0.608,0 -1.161,0.113 -1.66,0.34 -0.5,0.226 -0.928,0.53 -1.284,0.912 -0.355,0.381 -0.63,0.824 -0.826,1.329 -0.196,0.504 -0.295,1.035 -0.295,1.592 0,0.566 0.102,1.101 0.302,1.606 0.201,0.505 0.48,0.948 0.835,1.329 0.356,0.381 0.783,0.686 1.282,0.912 0.499,0.227 1.048,0.34 1.646,0.34 0.598,0 1.148,-0.113 1.654,-0.34 C 4.831,3.637 5.262,3.332 5.617,2.951 5.973,2.57 6.251,2.127 6.452,1.622 6.652,1.117 6.753,0.582 6.753,0.016 6.753,-0.541 6.655,-1.072 6.46,-1.576 6.264,-2.081 5.985,-2.524 5.625,-2.905 5.265,-3.287 4.834,-3.591 4.335,-3.817 3.835,-4.044 3.281,-4.157 2.673,-4.157" /></g><g
           transform="translate(203.5293,40.251)"
           id="g139"><path
             id="path141"
             style="fill:#231f20;fill-opacity:1;fill-rule:nonzero;stroke:none"
             d="m 0,0 -3.184,8.066 h 1.407 L 0.772,1.19 3.338,8.066 H 4.636 L 1.453,0 Z" /></g><g
           transform="translate(212.2764,41.1162)"
           id="g143"><path
             id="path145"
             style="fill:#231f20;fill-opacity:1;fill-rule:nonzero;stroke:none"
             d="M 0,0 C 0.483,0 0.935,0.091 1.353,0.271 1.77,0.451 2.086,0.69 2.302,0.989 2.498,1.185 2.597,1.386 2.597,1.592 v 1.19 C 1.937,3.039 1.251,3.168 0.541,3.168 -0.14,3.168 -0.692,3.024 -1.12,2.735 -1.548,2.447 -1.762,2.071 -1.762,1.607 -1.762,1.381 -1.718,1.17 -1.63,0.974 -1.543,0.778 -1.419,0.608 -1.26,0.464 -1.101,0.319 -0.911,0.206 -0.695,0.124 -0.479,0.041 -0.247,0 0,0 m -0.355,-1.02 c -0.382,0 -0.738,0.065 -1.067,0.194 -0.329,0.129 -0.616,0.306 -0.857,0.533 -0.242,0.227 -0.433,0.491 -0.572,0.796 -0.139,0.304 -0.209,0.636 -0.209,0.996 0,0.371 0.082,0.709 0.247,1.013 0.166,0.303 0.4,0.563 0.704,0.78 0.303,0.216 0.665,0.387 1.081,0.51 0.418,0.124 0.873,0.185 1.368,0.185 0.391,0 0.788,-0.036 1.19,-0.108 0.402,-0.072 0.757,-0.17 1.067,-0.293 v 0.648 c 0,0.66 -0.186,1.177 -0.557,1.554 -0.371,0.376 -0.896,0.564 -1.576,0.564 -0.815,0 -1.67,-0.315 -2.566,-0.943 L -2.55,6.29 c 1.041,0.7 2.086,1.051 3.137,1.051 1.06,0 1.888,-0.283 2.48,-0.85 C 3.659,5.924 3.956,5.126 3.956,4.096 V 0.804 c 0,-0.32 0.145,-0.485 0.433,-0.494 V -0.865 C 4.244,-0.886 4.126,-0.901 4.033,-0.911 3.94,-0.922 3.843,-0.927 3.739,-0.927 c -0.267,0 -0.481,0.08 -0.64,0.24 -0.161,0.16 -0.256,0.352 -0.286,0.58 L 2.782,0.464 C 2.421,-0.021 1.965,-0.389 1.414,-0.641 0.862,-0.894 0.272,-1.02 -0.355,-1.02" /></g><g
           transform="translate(218.4102,44.2998)"
           id="g147"><path
             id="path149"
             style="fill:#231f20;fill-opacity:1;fill-rule:nonzero;stroke:none"
             d="M 0,0 C 0,0.566 0.099,1.103 0.295,1.607 0.49,2.112 0.768,2.553 1.129,2.929 1.489,3.305 1.92,3.604 2.419,3.825 2.918,4.046 3.478,4.157 4.096,4.157 4.899,4.157 5.592,3.979 6.174,3.624 6.756,3.269 7.197,2.792 7.496,2.194 L 6.166,1.777 C 5.961,2.158 5.672,2.455 5.301,2.666 4.93,2.877 4.518,2.982 4.064,2.982 3.693,2.982 3.344,2.908 3.014,2.759 2.684,2.609 2.4,2.4 2.164,2.133 1.928,1.864 1.739,1.551 1.6,1.19 1.461,0.829 1.392,0.433 1.392,0 c 0,-0.423 0.071,-0.818 0.215,-1.189 0.145,-0.372 0.338,-0.694 0.581,-0.966 0.242,-0.274 0.525,-0.488 0.849,-0.642 0.324,-0.154 0.672,-0.231 1.043,-0.231 0.237,0 0.472,0.033 0.703,0.1 0.233,0.067 0.444,0.157 0.634,0.27 0.19,0.113 0.358,0.245 0.503,0.394 0.143,0.15 0.246,0.312 0.309,0.487 L 7.557,-2.179 C 7.434,-2.478 7.262,-2.751 7.039,-2.998 6.818,-3.245 6.559,-3.456 6.26,-3.631 5.961,-3.807 5.628,-3.945 5.263,-4.049 4.896,-4.151 4.514,-4.203 4.111,-4.203 c -0.607,0 -1.164,0.113 -1.669,0.34 -0.505,0.226 -0.937,0.53 -1.297,0.912 C 0.783,-2.57 0.503,-2.125 0.302,-1.614 0.102,-1.104 0,-0.566 0,0" /></g><path
           id="path151"
           style="fill:#231f20;fill-opacity:1;fill-rule:nonzero;stroke:none"
           d="m 228.054,48.317 h 1.36 v -8.066 h -1.36 z m 0,3.215 h 1.36 v -1.7 h -1.36 z" /><g
           transform="translate(235.9043,49.6621)"
           id="g153"><path
             id="path155"
             style="fill:#231f20;fill-opacity:1;fill-rule:nonzero;stroke:none"
             d="M 0,0 -0.896,0.31 0,1.87 h 1.359 z m -2.905,-5.408 c 0,-0.423 0.069,-0.815 0.208,-1.175 0.139,-0.36 0.33,-0.675 0.572,-0.942 0.242,-0.269 0.525,-0.48 0.85,-0.634 0.324,-0.154 0.671,-0.232 1.043,-0.232 0.371,0 0.718,0.078 1.043,0.232 0.325,0.154 0.611,0.368 0.858,0.641 0.247,0.273 0.44,0.592 0.579,0.958 0.139,0.366 0.209,0.76 0.209,1.182 0,0.412 -0.07,0.801 -0.209,1.167 -0.139,0.365 -0.332,0.686 -0.579,0.958 -0.247,0.274 -0.533,0.487 -0.858,0.642 -0.325,0.154 -0.672,0.231 -1.043,0.231 -0.372,0 -0.719,-0.08 -1.043,-0.239 -0.325,-0.16 -0.608,-0.376 -0.85,-0.65 -0.242,-0.272 -0.433,-0.591 -0.572,-0.958 -0.139,-0.365 -0.208,-0.759 -0.208,-1.181 m 2.673,-4.157 c -0.608,0 -1.162,0.113 -1.661,0.339 -0.5,0.227 -0.927,0.531 -1.283,0.913 -0.355,0.38 -0.631,0.824 -0.826,1.329 -0.196,0.504 -0.295,1.035 -0.295,1.591 0,0.567 0.102,1.102 0.302,1.607 0.201,0.505 0.479,0.948 0.835,1.329 0.355,0.381 0.783,0.686 1.282,0.912 0.499,0.227 1.048,0.34 1.646,0.34 0.597,0 1.148,-0.113 1.654,-0.34 0.504,-0.226 0.934,-0.531 1.29,-0.912 0.355,-0.381 0.634,-0.824 0.835,-1.329 0.2,-0.505 0.301,-1.04 0.301,-1.607 C 3.848,-5.949 3.75,-6.48 3.555,-6.984 3.358,-7.489 3.08,-7.933 2.72,-8.313 2.359,-8.695 1.929,-8.999 1.43,-9.226 0.93,-9.452 0.376,-9.565 -0.232,-9.565" /></g><g
           transform="translate(248.9463,40.251)"
           id="g157"><path
             id="path159"
             style="fill:#231f20;fill-opacity:1;fill-rule:nonzero;stroke:none"
             d="m 0,0 h -1.36 v 4.513 c 0,0.865 -0.131,1.493 -0.394,1.884 -0.263,0.392 -0.662,0.588 -1.198,0.588 -0.277,0 -0.556,-0.054 -0.834,-0.162 C -4.064,6.715 -4.327,6.568 -4.574,6.383 -4.821,6.197 -5.038,5.976 -5.224,5.718 -5.409,5.46 -5.548,5.177 -5.641,4.868 V 0 h -1.36 v 8.066 h 1.236 v -1.73 c 0.321,0.566 0.782,1.02 1.383,1.36 0.604,0.34 1.26,0.51 1.971,0.51 0.464,0 0.849,-0.085 1.159,-0.255 0.31,-0.17 0.557,-0.407 0.741,-0.711 C -0.325,6.937 -0.193,6.578 -0.116,6.166 -0.038,5.754 0,5.306 0,4.821 Z" /></g><g
           transform="translate(147.3418,23.2422)"
           id="g161"><path
             id="path163"
             style="fill:#231f20;fill-opacity:1;fill-rule:nonzero;stroke:none"
             d="M 0,0 C 0.402,0 0.765,0.085 1.09,0.255 1.414,0.425 1.691,0.651 1.924,0.936 2.156,1.219 2.334,1.54 2.457,1.901 2.58,2.262 2.643,2.632 2.643,3.014 2.643,3.415 2.57,3.799 2.426,4.165 2.281,4.53 2.086,4.85 1.839,5.123 1.592,5.396 1.301,5.612 0.966,5.771 0.631,5.932 0.268,6.012 -0.123,6.012 -0.371,6.012 -0.626,5.963 -0.889,5.864 -1.151,5.767 -1.398,5.638 -1.631,5.479 -1.862,5.318 -2.063,5.128 -2.232,4.906 -2.403,4.685 -2.514,4.451 -2.565,4.203 V 1.901 C -2.452,1.633 -2.309,1.383 -2.133,1.151 -1.957,0.92 -1.757,0.719 -1.529,0.549 -1.304,0.379 -1.062,0.245 -0.804,0.146 -0.547,0.049 -0.278,0 0,0 m 0.417,-1.174 c -0.67,0 -1.259,0.164 -1.77,0.494 -0.509,0.329 -0.914,0.747 -1.212,1.252 V -4.312 H -3.926 V 7.047 H -2.72 V 5.532 c 0.32,0.495 0.734,0.894 1.243,1.198 0.511,0.304 1.075,0.456 1.694,0.456 0.555,0 1.066,-0.114 1.529,-0.34 C 2.209,6.619 2.611,6.312 2.951,5.927 3.291,5.54 3.557,5.095 3.747,4.59 3.938,4.085 4.033,3.56 4.033,3.014 4.033,2.437 3.945,1.894 3.771,1.383 3.596,0.873 3.348,0.431 3.029,0.055 2.709,-0.322 2.328,-0.621 1.885,-0.842 1.441,-1.063 0.953,-1.174 0.417,-1.174" /></g><g
           transform="translate(156.0107,23.0879)"
           id="g165"><path
             id="path167"
             style="fill:#231f20;fill-opacity:1;fill-rule:nonzero;stroke:none"
             d="M 0,0 C 0.483,0 0.935,0.09 1.353,0.271 1.77,0.45 2.086,0.69 2.302,0.989 2.498,1.185 2.597,1.386 2.597,1.592 V 2.781 C 1.937,3.039 1.251,3.168 0.541,3.168 -0.14,3.168 -0.692,3.023 -1.12,2.735 -1.548,2.446 -1.762,2.07 -1.762,1.607 -1.762,1.38 -1.718,1.169 -1.63,0.974 -1.543,0.777 -1.419,0.607 -1.26,0.464 -1.101,0.319 -0.911,0.206 -0.695,0.123 -0.479,0.041 -0.247,0 0,0 m -0.355,-1.02 c -0.382,0 -0.738,0.065 -1.067,0.193 -0.329,0.129 -0.616,0.306 -0.857,0.533 -0.242,0.227 -0.433,0.492 -0.572,0.796 -0.139,0.304 -0.209,0.636 -0.209,0.997 0,0.371 0.082,0.708 0.247,1.012 0.166,0.303 0.4,0.564 0.704,0.78 0.303,0.217 0.665,0.387 1.081,0.511 0.418,0.123 0.873,0.185 1.368,0.185 0.391,0 0.788,-0.037 1.19,-0.108 0.402,-0.072 0.757,-0.17 1.067,-0.294 v 0.649 c 0,0.66 -0.186,1.177 -0.557,1.553 -0.371,0.376 -0.896,0.565 -1.576,0.565 -0.815,0 -1.67,-0.315 -2.566,-0.944 L -2.55,6.289 C -1.509,6.99 -0.464,7.34 0.587,7.34 1.647,7.34 2.475,7.057 3.067,6.49 3.659,5.924 3.956,5.125 3.956,4.095 V 0.804 c 0,-0.32 0.145,-0.485 0.433,-0.495 V -0.865 C 4.244,-0.886 4.126,-0.901 4.033,-0.912 3.94,-0.922 3.843,-0.928 3.739,-0.928 c -0.267,0 -0.481,0.08 -0.64,0.241 -0.161,0.159 -0.256,0.352 -0.286,0.579 L 2.782,0.464 C 2.421,-0.021 1.965,-0.389 1.414,-0.642 0.862,-0.894 0.272,-1.02 -0.355,-1.02" /></g><g
           transform="translate(166.9512,29.0996)"
           id="g169"><path
             id="path171"
             style="fill:#231f20;fill-opacity:1;fill-rule:nonzero;stroke:none"
             d="M 0,0 C -0.68,-0.021 -1.28,-0.196 -1.801,-0.526 -2.32,-0.855 -2.689,-1.314 -2.905,-1.901 v -4.976 h -1.361 v 8.066 h 1.268 v -1.87 c 0.278,0.557 0.644,1.007 1.098,1.353 0.453,0.345 0.937,0.538 1.452,0.579 h 0.262 c 0.073,0 0.134,-0.005 0.186,-0.016 z" /></g><g
           transform="translate(171.2627,23.0879)"
           id="g173"><path
             id="path175"
             style="fill:#231f20;fill-opacity:1;fill-rule:nonzero;stroke:none"
             d="M 0,0 C 0.483,0 0.935,0.09 1.353,0.271 1.77,0.45 2.086,0.69 2.302,0.989 2.498,1.185 2.597,1.386 2.597,1.592 V 2.781 C 1.937,3.039 1.251,3.168 0.541,3.168 -0.14,3.168 -0.692,3.023 -1.12,2.735 -1.548,2.446 -1.762,2.07 -1.762,1.607 -1.762,1.38 -1.718,1.169 -1.63,0.974 -1.543,0.777 -1.419,0.607 -1.26,0.464 -1.101,0.319 -0.911,0.206 -0.695,0.123 -0.479,0.041 -0.247,0 0,0 m -0.355,-1.02 c -0.382,0 -0.738,0.065 -1.067,0.193 -0.329,0.129 -0.616,0.306 -0.857,0.533 -0.242,0.227 -0.433,0.492 -0.572,0.796 -0.139,0.304 -0.209,0.636 -0.209,0.997 0,0.371 0.082,0.708 0.247,1.012 0.166,0.303 0.4,0.564 0.704,0.78 0.303,0.217 0.665,0.387 1.081,0.511 0.418,0.123 0.873,0.185 1.368,0.185 0.391,0 0.788,-0.037 1.19,-0.108 0.402,-0.072 0.757,-0.17 1.067,-0.294 v 0.649 c 0,0.66 -0.186,1.177 -0.557,1.553 -0.371,0.376 -0.896,0.565 -1.576,0.565 -0.815,0 -1.67,-0.315 -2.566,-0.944 L -2.55,6.289 C -1.509,6.99 -0.464,7.34 0.587,7.34 1.647,7.34 2.475,7.057 3.067,6.49 3.659,5.924 3.956,5.125 3.956,4.095 V 0.804 c 0,-0.32 0.145,-0.485 0.433,-0.495 V -0.865 C 4.244,-0.886 4.126,-0.901 4.033,-0.912 3.94,-0.922 3.843,-0.928 3.739,-0.928 c -0.267,0 -0.481,0.08 -0.64,0.241 -0.161,0.159 -0.256,0.352 -0.286,0.579 L 2.782,0.464 C 2.421,-0.021 1.965,-0.389 1.414,-0.642 0.862,-0.894 0.272,-1.02 -0.355,-1.02" /></g><g
           transform="translate(188.7246,26.7969)"
           id="g177"><path
             id="path179"
             style="fill:#231f20;fill-opacity:1;fill-rule:nonzero;stroke:none"
             d="M 0,0 C -0.03,0.381 -0.126,0.733 -0.285,1.059 -0.445,1.383 -0.646,1.658 -0.889,1.885 -1.131,2.111 -1.411,2.289 -1.73,2.418 -2.05,2.547 -2.39,2.611 -2.75,2.611 -3.111,2.611 -3.451,2.547 -3.77,2.418 -4.09,2.289 -4.371,2.109 -4.612,1.877 -4.854,1.646 -5.051,1.37 -5.199,1.051 -5.35,0.731 -5.439,0.381 -5.471,0 Z m -2.766,-4.729 c -0.607,0 -1.164,0.111 -1.669,0.333 -0.504,0.22 -0.937,0.522 -1.297,0.903 -0.362,0.382 -0.642,0.827 -0.843,1.337 -0.2,0.51 -0.302,1.049 -0.302,1.615 0,0.566 0.102,1.103 0.302,1.607 0.201,0.504 0.484,0.948 0.85,1.329 0.366,0.381 0.801,0.682 1.305,0.904 0.506,0.222 1.062,0.332 1.67,0.332 0.607,0 1.161,-0.113 1.661,-0.34 C -0.59,3.064 -0.164,2.764 0.186,2.388 0.536,2.011 0.807,1.573 0.997,1.073 1.187,0.574 1.283,0.057 1.283,-0.479 1.283,-0.593 1.28,-0.695 1.275,-0.788 1.27,-0.881 1.262,-0.953 1.252,-1.005 h -6.691 c 0.031,-0.401 0.124,-0.767 0.278,-1.097 0.155,-0.33 0.355,-0.613 0.602,-0.85 0.248,-0.237 0.529,-0.422 0.842,-0.556 0.315,-0.135 0.647,-0.201 0.998,-0.201 0.246,0 0.489,0.033 0.726,0.101 0.237,0.066 0.458,0.156 0.665,0.27 0.205,0.113 0.389,0.252 0.549,0.417 0.158,0.165 0.279,0.35 0.362,0.557 L 0.758,-2.689 C 0.623,-2.988 0.441,-3.261 0.209,-3.508 -0.023,-3.756 -0.291,-3.97 -0.595,-4.149 -0.898,-4.33 -1.236,-4.472 -1.607,-4.574 -1.978,-4.678 -2.363,-4.729 -2.766,-4.729" /></g><g
           transform="translate(192.0937,33.5029)"
           id="g181"><path
             id="path183"
             style="fill:#231f20;fill-opacity:1;fill-rule:nonzero;stroke:none"
             d="m 0,0 h 1.359 v -9.194 c 0,-0.299 0.08,-0.534 0.241,-0.703 0.159,-0.17 0.382,-0.255 0.671,-0.255 0.114,0 0.248,0.017 0.402,0.053 0.155,0.036 0.299,0.08 0.432,0.132 l 0.217,-1.097 c -0.226,-0.093 -0.494,-0.17 -0.803,-0.232 -0.31,-0.061 -0.582,-0.093 -0.82,-0.093 -0.525,0 -0.939,0.15 -1.244,0.449 C 0.151,-10.642 0,-10.225 0,-9.688 Z" /></g><g
           transform="translate(208.9219,27.7236)"
           id="g185"><path
             id="path187"
             style="fill:#231f20;fill-opacity:1;fill-rule:nonzero;stroke:none"
             d="m 0,0 c 0,0.618 -0.084,1.187 -0.254,1.708 -0.17,0.52 -0.424,0.966 -0.758,1.337 -0.335,0.37 -0.744,0.661 -1.228,0.873 -0.485,0.211 -1.035,0.316 -1.654,0.316 h -2.411 v -8.499 h 2.411 c 0.628,0 1.187,0.108 1.677,0.325 0.488,0.216 0.897,0.514 1.221,0.896 0.324,0.381 0.572,0.832 0.742,1.352 C -0.084,-1.172 0,-0.607 0,0 M -7.695,-5.501 V 5.471 h 3.801 c 0.876,0 1.646,-0.145 2.31,-0.433 C -0.919,4.749 -0.365,4.358 0.078,3.863 0.521,3.369 0.854,2.789 1.074,2.125 1.296,1.461 1.406,0.752 1.406,0 1.406,-0.834 1.283,-1.589 1.035,-2.264 0.789,-2.938 0.434,-3.516 -0.03,-3.994 -0.494,-4.474 -1.053,-4.845 -1.707,-5.107 -2.361,-5.37 -3.09,-5.501 -3.894,-5.501 Z" /></g><g
           transform="translate(218.9512,26.7969)"
           id="g189"><path
             id="path191"
             style="fill:#231f20;fill-opacity:1;fill-rule:nonzero;stroke:none"
             d="m 0,0 c -0.031,0.381 -0.127,0.733 -0.286,1.059 -0.159,0.324 -0.36,0.599 -0.603,0.826 -0.242,0.226 -0.523,0.404 -0.841,0.533 -0.321,0.129 -0.661,0.193 -1.021,0.193 -0.36,0 -0.7,-0.064 -1.02,-0.193 C -4.09,2.289 -4.371,2.109 -4.613,1.877 -4.855,1.646 -5.051,1.37 -5.2,1.051 -5.35,0.731 -5.439,0.381 -5.471,0 Z m -2.766,-4.729 c -0.608,0 -1.165,0.111 -1.67,0.333 -0.503,0.22 -0.937,0.522 -1.297,0.903 -0.361,0.382 -0.642,0.827 -0.843,1.337 -0.2,0.51 -0.301,1.049 -0.301,1.615 0,0.566 0.101,1.103 0.301,1.607 0.201,0.504 0.484,0.948 0.85,1.329 0.367,0.381 0.801,0.682 1.306,0.904 0.505,0.222 1.061,0.332 1.669,0.332 0.608,0 1.161,-0.113 1.661,-0.34 C -0.59,3.064 -0.165,2.764 0.186,2.388 0.535,2.011 0.807,1.573 0.996,1.073 1.187,0.574 1.283,0.057 1.283,-0.479 1.283,-0.593 1.279,-0.695 1.275,-0.788 1.27,-0.881 1.262,-0.953 1.252,-1.005 h -6.691 c 0.031,-0.401 0.123,-0.767 0.277,-1.097 0.155,-0.33 0.355,-0.613 0.603,-0.85 0.247,-0.237 0.528,-0.422 0.842,-0.556 0.315,-0.135 0.647,-0.201 0.997,-0.201 0.247,0 0.49,0.033 0.726,0.101 0.237,0.066 0.459,0.156 0.665,0.27 0.206,0.113 0.389,0.252 0.549,0.417 0.159,0.165 0.28,0.35 0.362,0.557 L 0.758,-2.689 C 0.623,-2.988 0.44,-3.261 0.209,-3.508 -0.023,-3.756 -0.291,-3.97 -0.596,-4.149 -0.898,-4.33 -1.236,-4.472 -1.607,-4.574 -1.979,-4.678 -2.364,-4.729 -2.766,-4.729" /></g><g
           transform="translate(225.1172,22.0684)"
           id="g193"><path
             id="path195"
             style="fill:#231f20;fill-opacity:1;fill-rule:nonzero;stroke:none"
             d="m 0,0 c -0.649,0 -1.288,0.1 -1.916,0.301 -0.629,0.201 -1.17,0.492 -1.623,0.873 l 0.588,0.912 c 0.472,-0.361 0.947,-0.632 1.421,-0.812 0.473,-0.18 0.973,-0.27 1.499,-0.27 0.588,0 1.052,0.116 1.398,0.348 0.346,0.231 0.518,0.558 0.518,0.981 0,0.195 -0.046,0.363 -0.139,0.502 C 1.653,2.975 1.514,3.096 1.328,3.198 1.144,3.301 0.906,3.394 0.618,3.477 0.33,3.559 -0.006,3.646 -0.387,3.739 -0.871,3.863 -1.288,3.981 -1.639,4.095 -1.988,4.208 -2.277,4.342 -2.504,4.496 -2.73,4.651 -2.895,4.836 -2.998,5.053 -3.102,5.27 -3.152,5.537 -3.152,5.856 c 0,0.402 0.08,0.76 0.239,1.075 0.159,0.313 0.378,0.576 0.657,0.788 0.277,0.211 0.605,0.37 0.981,0.478 0.377,0.109 0.781,0.162 1.213,0.162 0.608,0 1.174,-0.097 1.7,-0.293 C 2.163,7.87 2.605,7.612 2.967,7.294 L 2.349,6.475 C 2.009,6.773 1.627,6.997 1.205,7.146 0.783,7.296 0.35,7.371 -0.093,7.371 -0.588,7.371 -1.008,7.265 -1.353,7.054 -1.697,6.843 -1.87,6.505 -1.87,6.042 c 0,-0.186 0.033,-0.34 0.1,-0.464 C -1.703,5.454 -1.592,5.347 -1.437,5.254 -1.283,5.161 -1.084,5.078 -0.842,5.007 -0.601,4.935 -0.309,4.856 0.031,4.774 0.566,4.651 1.033,4.524 1.43,4.396 1.826,4.267 2.156,4.115 2.418,3.94 2.682,3.765 2.877,3.559 3.006,3.322 3.135,3.085 3.199,2.797 3.199,2.457 3.199,1.704 2.91,1.106 2.334,0.664 1.756,0.221 0.979,0 0,0" /></g><g
           transform="translate(232.8906,23.0879)"
           id="g197"><path
             id="path199"
             style="fill:#231f20;fill-opacity:1;fill-rule:nonzero;stroke:none"
             d="M 0,0 C 0.483,0 0.935,0.09 1.352,0.271 1.77,0.45 2.086,0.69 2.302,0.989 2.498,1.185 2.596,1.386 2.596,1.592 V 2.781 C 1.936,3.039 1.251,3.168 0.541,3.168 -0.14,3.168 -0.693,3.023 -1.121,2.735 -1.549,2.446 -1.762,2.07 -1.762,1.607 -1.762,1.38 -1.719,1.169 -1.631,0.974 -1.543,0.777 -1.42,0.607 -1.26,0.464 -1.101,0.319 -0.912,0.206 -0.695,0.123 -0.479,0.041 -0.248,0 0,0 m -0.355,-1.02 c -0.382,0 -0.738,0.065 -1.067,0.193 -0.33,0.129 -0.616,0.306 -0.857,0.533 -0.242,0.227 -0.434,0.492 -0.573,0.796 -0.138,0.304 -0.209,0.636 -0.209,0.997 0,0.371 0.082,0.708 0.248,1.012 0.165,0.303 0.399,0.564 0.704,0.78 0.302,0.217 0.664,0.387 1.081,0.511 0.417,0.123 0.873,0.185 1.368,0.185 0.39,0 0.787,-0.037 1.189,-0.108 0.403,-0.072 0.758,-0.17 1.067,-0.294 v 0.649 c 0,0.66 -0.186,1.177 -0.557,1.553 -0.371,0.376 -0.896,0.565 -1.576,0.565 -0.815,0 -1.669,-0.315 -2.565,-0.944 L -2.551,6.289 C -1.51,6.99 -0.465,7.34 0.586,7.34 1.647,7.34 2.475,7.057 3.066,6.49 3.659,5.924 3.955,5.125 3.955,4.095 V 0.804 C 3.955,0.484 4.1,0.319 4.389,0.309 V -0.865 C 4.244,-0.886 4.125,-0.901 4.033,-0.912 3.939,-0.922 3.842,-0.928 3.739,-0.928 c -0.268,0 -0.481,0.08 -0.641,0.241 -0.16,0.159 -0.255,0.352 -0.285,0.579 L 2.781,0.464 C 2.42,-0.021 1.965,-0.389 1.414,-0.642 0.862,-0.894 0.272,-1.02 -0.355,-1.02" /></g><g
           transform="translate(243.8301,29.0996)"
           id="g201"><path
             id="path203"
             style="fill:#231f20;fill-opacity:1;fill-rule:nonzero;stroke:none"
             d="m 0,0 c -0.68,-0.021 -1.279,-0.196 -1.8,-0.526 -0.52,-0.329 -0.888,-0.788 -1.104,-1.375 v -4.976 h -1.361 v 8.066 h 1.267 v -1.87 c 0.279,0.557 0.644,1.007 1.098,1.353 0.453,0.345 0.937,0.538 1.453,0.579 h 0.261 c 0.073,0 0.135,-0.005 0.186,-0.016 z" /></g><g
           transform="translate(249.9805,29.0996)"
           id="g205"><path
             id="path207"
             style="fill:#231f20;fill-opacity:1;fill-rule:nonzero;stroke:none"
             d="m 0,0 c -0.68,-0.021 -1.279,-0.196 -1.8,-0.526 -0.52,-0.329 -0.888,-0.788 -1.104,-1.375 v -4.976 h -1.361 v 8.066 h 1.267 v -1.87 c 0.279,0.557 0.644,1.007 1.098,1.353 0.453,0.345 0.937,0.538 1.453,0.579 h 0.261 c 0.073,0 0.135,-0.005 0.186,-0.016 z" /></g><g
           transform="translate(252.5312,26.2246)"
           id="g209"><path
             id="path211"
             style="fill:#231f20;fill-opacity:1;fill-rule:nonzero;stroke:none"
             d="m 0,0 c 0,-0.422 0.068,-0.813 0.208,-1.174 0.14,-0.361 0.329,-0.675 0.571,-0.943 0.242,-0.268 0.526,-0.479 0.851,-0.633 0.324,-0.155 0.672,-0.232 1.043,-0.232 0.37,0 0.719,0.077 1.043,0.232 0.325,0.154 0.61,0.368 0.858,0.641 0.246,0.273 0.44,0.592 0.578,0.958 0.14,0.366 0.209,0.759 0.209,1.182 0,0.412 -0.069,0.801 -0.209,1.167 C 5.014,1.563 4.82,1.883 4.574,2.156 4.326,2.429 4.041,2.643 3.716,2.797 3.392,2.952 3.043,3.029 2.673,3.029 2.302,3.029 1.954,2.949 1.63,2.789 1.305,2.63 1.021,2.413 0.779,2.141 0.537,1.867 0.348,1.548 0.208,1.183 0.068,0.816 0,0.423 0,0 m 2.673,-4.156 c -0.609,0 -1.161,0.113 -1.661,0.34 -0.5,0.226 -0.928,0.53 -1.283,0.911 -0.356,0.381 -0.631,0.824 -0.827,1.329 -0.195,0.505 -0.294,1.035 -0.294,1.592 0,0.566 0.101,1.102 0.302,1.607 0.201,0.505 0.479,0.947 0.834,1.329 C 0.1,3.333 0.527,3.637 1.027,3.863 1.526,4.09 2.075,4.203 2.673,4.203 3.27,4.203 3.821,4.09 4.326,3.863 4.831,3.637 5.262,3.333 5.617,2.952 5.973,2.57 6.25,2.128 6.451,1.623 6.652,1.118 6.752,0.582 6.752,0.016 6.752,-0.541 6.654,-1.071 6.459,-1.576 6.264,-2.081 5.984,-2.524 5.625,-2.905 5.264,-3.286 4.834,-3.59 4.334,-3.816 3.834,-4.043 3.281,-4.156 2.673,-4.156" /></g><g
           transform="translate(261.5088,33.5029)"
           id="g213"><path
             id="path215"
             style="fill:#231f20;fill-opacity:1;fill-rule:nonzero;stroke:none"
             d="m 0,0 h 1.36 v -9.194 c 0,-0.299 0.08,-0.534 0.24,-0.703 0.159,-0.17 0.383,-0.255 0.672,-0.255 0.114,0 0.247,0.017 0.401,0.053 0.155,0.036 0.299,0.08 0.433,0.132 l 0.217,-1.097 c -0.227,-0.093 -0.495,-0.17 -0.804,-0.232 -0.309,-0.061 -0.582,-0.093 -0.819,-0.093 -0.525,0 -0.94,0.15 -1.244,0.449 C 0.151,-10.642 0,-10.225 0,-9.688 Z" /></g><g
           transform="translate(266.4687,33.5029)"
           id="g217"><path
             id="path219"
             style="fill:#231f20;fill-opacity:1;fill-rule:nonzero;stroke:none"
             d="m 0,0 h 1.359 v -9.194 c 0,-0.299 0.08,-0.534 0.241,-0.703 0.16,-0.17 0.383,-0.255 0.671,-0.255 0.114,0 0.249,0.017 0.403,0.053 0.154,0.036 0.299,0.08 0.432,0.132 l 0.216,-1.097 c -0.226,-0.093 -0.494,-0.17 -0.802,-0.232 -0.31,-0.061 -0.583,-0.093 -0.82,-0.093 -0.525,0 -0.94,0.15 -1.244,0.449 C 0.152,-10.642 0,-10.225 0,-9.688 Z" /></g><g
           transform="translate(272.248,26.2246)"
           id="g221"><path
             id="path223"
             style="fill:#231f20;fill-opacity:1;fill-rule:nonzero;stroke:none"
             d="m 0,0 c 0,-0.422 0.07,-0.813 0.209,-1.174 0.139,-0.361 0.33,-0.675 0.572,-0.943 0.241,-0.268 0.526,-0.479 0.85,-0.633 0.324,-0.155 0.672,-0.232 1.043,-0.232 0.371,0 0.719,0.077 1.043,0.232 0.324,0.154 0.61,0.368 0.857,0.641 0.248,0.273 0.442,0.592 0.579,0.958 0.141,0.366 0.209,0.759 0.209,1.182 0,0.412 -0.068,0.801 -0.209,1.167 C 5.016,1.563 4.822,1.883 4.574,2.156 4.327,2.429 4.041,2.643 3.717,2.797 3.393,2.952 3.045,3.029 2.674,3.029 2.303,3.029 1.955,2.949 1.631,2.789 1.307,2.63 1.022,2.413 0.781,2.141 0.539,1.867 0.348,1.548 0.209,1.183 0.07,0.816 0,0.423 0,0 m 2.674,-4.156 c -0.608,0 -1.162,0.113 -1.661,0.34 -0.5,0.226 -0.927,0.53 -1.283,0.911 -0.355,0.381 -0.631,0.824 -0.827,1.329 -0.196,0.505 -0.294,1.035 -0.294,1.592 0,0.566 0.101,1.102 0.301,1.607 0.201,0.505 0.481,0.947 0.835,1.329 0.356,0.381 0.783,0.685 1.282,0.911 0.5,0.227 1.049,0.34 1.647,0.34 0.597,0 1.148,-0.113 1.653,-0.34 C 4.832,3.637 5.263,3.333 5.618,2.952 5.974,2.57 6.251,2.128 6.452,1.623 6.653,1.118 6.753,0.582 6.753,0.016 6.753,-0.541 6.655,-1.071 6.46,-1.576 6.265,-2.081 5.985,-2.524 5.626,-2.905 5.265,-3.286 4.834,-3.59 4.335,-3.816 3.835,-4.043 3.281,-4.156 2.674,-4.156" /></g><path
           id="path225"
           style="fill:#231f20;fill-opacity:1;fill-rule:nonzero;stroke:none"
           d="m 133.917,19.475 h -2.083 V 70.3 h 2.083 z" /></g></g></g></svg>