<?xml version="1.0" encoding="UTF-8" standalone="no"?>
<svg
   xmlns:dc="http://purl.org/dc/elements/1.1/"
   xmlns:cc="http://creativecommons.org/ns#"
   xmlns:rdf="http://www.w3.org/1999/02/22-rdf-syntax-ns#"
   xmlns:svg="http://www.w3.org/2000/svg"
   xmlns="http://www.w3.org/2000/svg"
   version="1.1"
   id="svg29"
   xml:space="preserve"
   width="373.33334"
   height="109.33333"
   viewBox="0 0 373.33334 109.33333"><metadata
     id="metadata35"><rdf:RDF><cc:Work
         rdf:about=""><dc:format>image/svg+xml</dc:format><dc:type
           rdf:resource="http://purl.org/dc/dcmitype/StillImage" /><dc:title></dc:title></cc:Work></rdf:RDF></metadata><defs
     id="defs33"><clipPath
       clipPathUnits="userSpaceOnUse"
       id="clipPath45"><path
         d="M 0,82 H 280 V 0 H 0 Z"
         id="path43" /></clipPath></defs><path
     d="m 37.278666,64.513064 7.969333,1.036 c -0.872,5.492 -3.101333,9.792 -6.686666,12.898666 -3.588,3.106667 -7.990667,4.658667 -13.213333,4.658667 -6.544,0 -11.804,-2.137333 -15.78,-6.414667 C 5.5893335,72.414397 3.6013335,66.283731 3.6013335,58.299731 c 0,-5.161333 0.856,-9.678667 2.5666666,-13.550667 1.7106666,-3.871999 4.3146669,-6.775999 7.8106669,-8.711999 3.495999,-1.936 7.301333,-2.904 11.414666,-2.904 5.190667,0 9.438666,1.313333 12.741333,3.938666 3.3,2.628 5.416,6.357334 6.346666,11.189333 l -7.878666,1.214667 c -0.749333,-3.212 -2.077333,-5.628 -3.984,-7.248 -1.906667,-1.621333 -4.209333,-2.432 -6.910666,-2.432 -4.082667,0 -7.4,1.464 -9.950667,4.389334 -2.550666,2.926666 -3.826666,7.557333 -3.826666,13.890666 0,6.422666 1.230666,11.090666 3.692,14.001333 2.461333,2.910666 5.673333,4.366666 9.634666,4.366666 3.181333,0 5.837333,-0.974666 7.969333,-2.925333 2.130667,-1.950667 3.481333,-4.953333 4.052,-9.005333"
     style="fill:#ffffff;fill-opacity:1;fill-rule:nonzero;stroke:none;stroke-width:1.33333325"
     id="path49" /><path
     d="M 52.180932,82.025997 V 34.213998 h 7.293333 v 6.797333 c 3.512,-5.252 8.582667,-7.878666 15.217333,-7.878666 2.881333,0 5.529333,0.518667 7.946667,1.553333 2.414666,1.036 4.223999,2.394667 5.423999,4.074667 1.201334,1.681333 2.041334,3.677333 2.522667,5.988 0.298667,1.501333 0.449333,4.126666 0.449333,7.878666 V 82.025997 H 82.930265 V 52.943331 c 0,-3.302667 -0.316,-5.770666 -0.945334,-7.406666 -0.630666,-1.636 -1.749333,-2.941334 -3.354666,-3.917334 -1.605334,-0.974666 -3.488,-1.462666 -5.649334,-1.462666 -3.451999,0 -6.431999,1.096 -8.937333,3.286666 -2.505333,2.190667 -3.76,6.348 -3.76,12.470667 v 26.111999 z"
     style="fill:#ffffff;fill-opacity:1;fill-rule:nonzero;stroke:none;stroke-width:1.33333325"
     id="path53" /><path
     id="path55"
     style="fill:#ffffff;fill-opacity:1;fill-rule:nonzero;stroke:none;stroke-width:1.33333325"
     d="m 103.50533,34.213332 h 8.104 v 47.811999 h -8.104 z m 0,-18.188 h 8.104 v 9.32 h -8.104 z" /><path
     d="m 129.3476,58.165331 c 0,6.124 1.29067,10.698666 3.872,13.730666 2.58133,3.033334 5.628,4.548 9.14,4.548 3.54133,0 6.55067,-1.448 9.02667,-4.345333 2.476,-2.896 3.71333,-7.314666 3.71333,-13.257333 0,-6.544 -1.26,-11.346666 -3.78,-14.408 -2.52267,-3.061333 -5.628,-4.592 -9.32133,-4.592 -3.60134,0 -6.61067,1.470667 -9.02534,4.412 -2.41733,2.941334 -3.62533,7.578667 -3.62533,13.912 m 25.61733,23.861333 v -6.033333 c -3.032,4.743999 -7.488,7.113333 -13.37066,7.113333 -3.812,0 -7.31734,-1.050667 -10.512,-3.150667 -3.19734,-2.101333 -5.67334,-5.034666 -7.42934,-8.802666 -1.756,-3.765334 -2.63333,-8.096 -2.63333,-12.988 0,-4.773333 0.79467,-9.101333 2.38533,-12.989333 1.59067,-3.886667 3.976,-6.865333 7.15867,-8.936 3.18133,-2.072 6.73867,-3.106666 10.67067,-3.106666 2.88,0 5.44666,0.608 7.69733,1.822666 2.252,1.216 4.08267,2.798667 5.49467,4.750667 V 16.025332 h 8.05866 v 66.001332 z"
     style="fill:#ffffff;fill-opacity:1;fill-rule:nonzero;stroke:none;stroke-width:1.33333325"
     id="path59" /><path
     d="m 190.56253,24.209599 c 0,-0.878667 0.15467,-1.754667 0.464,-2.628 0.30933,-0.872 0.76267,-1.654667 1.35867,-2.348 0.59866,-0.694667 1.32933,-1.254667 2.196,-1.68 0.864,-0.426666 1.84533,-0.638666 2.94533,-0.638666 1.30533,0 2.424,0.296 3.35867,0.885333 0.93466,0.592 1.628,1.361333 2.08133,2.309333 l -1.46267,0.946667 c -0.22,-0.466667 -0.484,-0.858667 -0.79333,-1.174667 -0.30933,-0.314667 -0.64533,-0.569333 -1.00933,-0.761333 -0.36534,-0.193334 -0.73867,-0.329334 -1.12267,-0.413334 -0.38533,-0.08133 -0.764,-0.122666 -1.13333,-0.122666 -0.81067,0 -1.528,0.168 -2.15334,0.504 -0.62533,0.337333 -1.15066,0.776 -1.57733,1.318666 -0.42533,0.544 -0.744,1.154667 -0.95733,1.833334 -0.21334,0.681333 -0.32,1.364 -0.32,2.052 0,0.769333 0.128,1.5 0.38133,2.193333 0.25467,0.694667 0.608,1.308 1.06133,1.844 0.45334,0.536 0.98934,0.962667 1.60667,1.277333 0.61867,0.316 1.292,0.473334 2.02,0.473334 0.384,0 0.78,-0.04667 1.18533,-0.142667 0.404,-0.096 0.792,-0.252 1.164,-0.464 0.37067,-0.213333 0.71734,-0.481333 1.04,-0.804 0.32267,-0.321333 0.58667,-0.709333 0.79334,-1.164 l 1.54533,0.844 c -0.23467,0.550667 -0.56,1.034667 -0.97867,1.453333 -0.42,0.42 -0.89333,0.772 -1.42266,1.061334 -0.528,0.287999 -1.088,0.507999 -1.67867,0.658666 -0.59067,0.152 -1.168,0.226667 -1.73067,0.226667 -1.00133,0 -1.924,-0.218667 -2.76133,-0.658667 -0.83733,-0.44 -1.56267,-1.013333 -2.17333,-1.72 -0.612,-0.708 -1.08534,-1.512 -1.42134,-2.410666 -0.33733,-0.9 -0.50533,-1.817334 -0.50533,-2.750667"
     style="fill:#ffffff;fill-opacity:1;fill-rule:nonzero;stroke:none;stroke-width:1.33333325"
     id="path63" /><path
     d="m 207.12893,26.290399 c 0,0.562667 0.092,1.084 0.27733,1.565333 0.18667,0.481334 0.44,0.9 0.76267,1.257334 0.32267,0.357333 0.70133,0.638666 1.13333,0.844 0.432,0.206666 0.896,0.309333 1.39067,0.309333 0.49467,0 0.95867,-0.102667 1.39067,-0.309333 0.43333,-0.205334 0.81466,-0.490667 1.144,-0.854667 0.32933,-0.364 0.588,-0.789333 0.772,-1.277333 0.18533,-0.488 0.27866,-1.012 0.27866,-1.576 0,-0.549334 -0.0933,-1.068 -0.27866,-1.556 -0.184,-0.486667 -0.44267,-0.913334 -0.772,-1.277334 -0.32934,-0.364 -0.71067,-0.649333 -1.144,-0.854666 -0.432,-0.206667 -0.896,-0.309334 -1.39067,-0.309334 -0.49467,0 -0.95867,0.106667 -1.39067,0.32 -0.432,0.212 -0.81066,0.501334 -1.13333,0.864 -0.32267,0.365334 -0.576,0.790667 -0.76267,1.277334 -0.18533,0.489333 -0.27733,1.013333 -0.27733,1.577333 m 3.564,5.541333 c -0.81067,0 -1.548,-0.150666 -2.21333,-0.453333 -0.66667,-0.301333 -1.23734,-0.706667 -1.712,-1.214667 -0.47334,-0.508 -0.84,-1.098666 -1.10134,-1.772 -0.26133,-0.673333 -0.39333,-1.38 -0.39333,-2.122666 0,-0.754667 0.136,-1.469334 0.40267,-2.142667 0.268,-0.673333 0.64,-1.262667 1.11333,-1.772 0.47467,-0.508 1.044,-0.913333 1.70933,-1.214667 0.66534,-0.302666 1.39734,-0.453333 2.19467,-0.453333 0.79733,0 1.53067,0.150667 2.20533,0.453333 0.672,0.301334 1.24667,0.706667 1.72,1.214667 0.47467,0.509333 0.84534,1.098667 1.11334,1.772 0.26666,0.673333 0.40133,1.388 0.40133,2.142667 0,0.742666 -0.13067,1.449333 -0.39067,2.122666 -0.26133,0.673334 -0.63333,1.264 -1.11333,1.772 -0.48,0.508 -1.05467,0.913334 -1.72,1.214667 -0.66667,0.302667 -1.40533,0.453333 -2.216,0.453333"
     style="fill:#ffffff;fill-opacity:1;fill-rule:nonzero;stroke:none;stroke-width:1.33333325"
     id="path67" /><path
     d="m 228.39186,31.626265 h -1.81333 v -6.016 c 0,-1.154666 -0.17467,-1.992 -0.52534,-2.513333 -0.35066,-0.522667 -0.88266,-0.782667 -1.59733,-0.782667 -0.36933,0 -0.74133,0.07067 -1.112,0.216 -0.37067,0.144 -0.72133,0.34 -1.05067,0.586667 -0.32933,0.248 -0.61866,0.542667 -0.86666,0.885333 -0.24667,0.344 -0.432,0.721334 -0.556,1.134667 v 6.489333 h -1.81334 V 20.871599 h 1.648 v 2.306666 c 0.428,-0.754666 1.04267,-1.358666 1.844,-1.812 0.80534,-0.453333 1.68,-0.68 2.628,-0.68 0.61867,0 1.132,0.113334 1.54534,0.34 0.41333,0.226667 0.74266,0.542667 0.988,0.948 0.248,0.404 0.424,0.882667 0.52666,1.430667 0.104,0.549333 0.15467,1.146667 0.15467,1.793333 z"
     style="fill:#ffffff;fill-opacity:1;fill-rule:nonzero;stroke:none;stroke-width:1.33333325"
     id="path71" /><path
     d="m 235.70573,31.831999 c -0.864,0 -1.716,-0.133333 -2.55467,-0.401333 -0.83866,-0.268 -1.56,-0.656 -2.164,-1.164 l 0.784,-1.216 c 0.63067,0.481333 1.26267,0.842666 1.896,1.082666 0.63067,0.24 1.296,0.36 1.99734,0.36 0.784,0 1.404,-0.154666 1.86533,-0.464 0.46,-0.308 0.69067,-0.744 0.69067,-1.308 0,-0.26 -0.0613,-0.484 -0.18667,-0.669333 -0.12267,-0.186667 -0.308,-0.348 -0.556,-0.484 -0.24533,-0.137333 -0.564,-0.261333 -0.94667,-0.372 -0.38533,-0.109333 -0.832,-0.225333 -1.34133,-0.349333 -0.64533,-0.165334 -1.2,-0.322667 -1.668,-0.474667 -0.46667,-0.150667 -0.852,-0.329333 -1.15333,-0.534667 -0.30267,-0.206666 -0.52267,-0.453333 -0.66,-0.742666 -0.13734,-0.289333 -0.20534,-0.645333 -0.20534,-1.070667 0,-0.536 0.10667,-1.013333 0.32,-1.433333 0.212,-0.417333 0.504,-0.768 0.87467,-1.050667 0.37067,-0.281333 0.808,-0.493333 1.30933,-0.637333 0.50134,-0.145333 1.04,-0.216 1.616,-0.216 0.812,0 1.56667,0.129333 2.268,0.390667 0.7,0.261333 1.28934,0.605333 1.77067,1.029333 l -0.82267,1.092 c -0.45333,-0.397333 -0.96266,-0.696 -1.52666,-0.894667 -0.56267,-0.2 -1.13867,-0.3 -1.72934,-0.3 -0.66,0 -1.22,0.141334 -1.68,0.422667 -0.46,0.281333 -0.68933,0.732 -0.68933,1.349333 0,0.248 0.044,0.453334 0.132,0.618667 0.0907,0.165333 0.23733,0.308 0.444,0.432 0.20667,0.124 0.47067,0.234667 0.79333,0.329333 0.32267,0.096 0.71067,0.201333 1.164,0.310667 0.71334,0.164 1.336,0.333333 1.86534,0.504 0.528,0.172 0.968,0.374666 1.31866,0.608 0.35067,0.233333 0.61067,0.508 0.78267,0.824 0.172,0.316 0.25733,0.7 0.25733,1.153333 0,1.004 -0.38533,1.801333 -1.15333,2.390667 -0.76933,0.590666 -1.80667,0.885333 -3.112,0.885333"
     style="fill:#ffffff;fill-opacity:1;fill-rule:nonzero;stroke:none;stroke-width:1.33333325"
     id="path75" /><path
     d="m 251.28386,25.527332 c -0.0413,-0.508 -0.16933,-0.977333 -0.38267,-1.412 -0.212,-0.432 -0.47866,-0.798667 -0.80266,-1.101333 -0.32267,-0.301334 -0.69734,-0.538667 -1.12267,-0.710667 -0.42667,-0.172 -0.88,-0.257333 -1.36133,-0.257333 -0.47867,0 -0.93334,0.08533 -1.35867,0.257333 -0.42667,0.172 -0.8,0.412 -1.12267,0.721333 -0.32266,0.308 -0.584,0.676 -0.784,1.101334 -0.19866,0.426666 -0.31733,0.893333 -0.36,1.401333 z m -3.68933,6.305333 c -0.81067,0 -1.55334,-0.148 -2.22534,-0.444 -0.672,-0.293333 -1.24933,-0.696 -1.73066,-1.204 -0.48,-0.509333 -0.85467,-1.102666 -1.12267,-1.782666 -0.268,-0.68 -0.40133,-1.398667 -0.40133,-2.153334 0,-0.754666 0.13333,-1.470666 0.40133,-2.142666 0.268,-0.672 0.64533,-1.264 1.132,-1.772 0.48933,-0.508 1.068,-0.909334 1.74267,-1.205334 0.672,-0.296 1.41466,-0.442666 2.224,-0.442666 0.81066,0 1.54933,0.150666 2.216,0.453333 0.66666,0.302667 1.232,0.702667 1.70133,1.204 0.46533,0.502667 0.82667,1.086667 1.08,1.753333 0.25467,0.665334 0.38133,1.354667 0.38133,2.069334 0,0.152 -0.004,0.288 -0.0107,0.412 -0.005,0.124 -0.016,0.22 -0.0307,0.289333 h -8.92 c 0.04,0.534667 0.164,1.022667 0.36933,1.462667 0.20534,0.44 0.47334,0.817333 0.804,1.133333 0.32934,0.316 0.704,0.562667 1.12267,0.741333 0.42,0.18 0.86267,0.268 1.328,0.268 0.33067,0 0.65467,-0.044 0.96933,-0.134666 0.31467,-0.088 0.612,-0.208 0.88534,-0.36 0.276,-0.150667 0.51866,-0.336 0.732,-0.556 0.21333,-0.22 0.37466,-0.466667 0.484,-0.742667 l 1.56666,0.433333 c -0.17866,0.398667 -0.424,0.762667 -0.732,1.092 -0.308,0.330667 -0.66666,0.616 -1.072,0.854667 -0.404,0.241333 -0.85333,0.430667 -1.348,0.566667 -0.496,0.138666 -1.01066,0.206666 -1.54666,0.206666"
     style="fill:#ffffff;fill-opacity:1;fill-rule:nonzero;stroke:none;stroke-width:1.33333325"
     id="path79" /><path
     id="path81"
     style="fill:#ffffff;fill-opacity:1;fill-rule:nonzero;stroke:none;stroke-width:1.33333325"
     d="m 255.87733,16.585332 h 1.81333 v 2.265334 h -1.81333 z m -1.52267,18.874667 c -0.48267,0 -0.93333,-0.06933 -1.35067,-0.208 -0.42,-0.136 -0.79333,-0.356 -1.124,-0.658667 l 0.84534,-1.216 c 0.192,0.178667 0.41466,0.302667 0.67066,0.372 0.25334,0.068 0.504,0.102667 0.75067,0.102667 0.22,0 0.43467,-0.04533 0.64,-0.134667 0.20533,-0.088 0.39067,-0.209333 0.556,-0.36 0.16533,-0.152 0.296,-0.336 0.392,-0.556 0.0947,-0.22 0.14267,-0.453333 0.14267,-0.701333 V 20.870666 h 1.81466 v 11.105333 c 0,0.508 -0.0933,0.976 -0.27866,1.401333 -0.18534,0.426667 -0.43334,0.794667 -0.74134,1.102667 -0.31066,0.309333 -0.664,0.549333 -1.06266,0.721333 -0.39867,0.172 -0.816,0.258667 -1.25467,0.258667" /><path
     d="m 262.47133,26.290399 c 0,0.562667 0.092,1.084 0.27867,1.565333 0.18533,0.481334 0.43866,0.9 0.76133,1.257334 0.32133,0.357333 0.70133,0.638666 1.13467,0.844 0.432,0.206666 0.896,0.309333 1.39066,0.309333 0.49334,0 0.95867,-0.102667 1.39067,-0.309333 0.432,-0.205334 0.812,-0.490667 1.14267,-0.854667 0.32933,-0.364 0.588,-0.789333 0.772,-1.277333 0.18666,-0.488 0.27866,-1.012 0.27866,-1.576 0,-0.549334 -0.092,-1.068 -0.27866,-1.556 -0.184,-0.486667 -0.44267,-0.913334 -0.772,-1.277334 -0.33067,-0.364 -0.71067,-0.649333 -1.14267,-0.854666 -0.432,-0.206667 -0.89733,-0.309334 -1.39067,-0.309334 -0.49466,0 -0.95866,0.106667 -1.39066,0.32 -0.43334,0.212 -0.81334,0.501334 -1.13467,0.864 -0.32267,0.365334 -0.576,0.790667 -0.76133,1.277334 -0.18667,0.489333 -0.27867,1.013333 -0.27867,1.577333 m 3.56533,5.541333 c -0.812,0 -1.54933,-0.150666 -2.216,-0.453333 -0.66666,-0.301333 -1.236,-0.706667 -1.71066,-1.214667 -0.47334,-0.508 -0.84134,-1.098666 -1.10267,-1.772 -0.26,-0.673333 -0.39067,-1.38 -0.39067,-2.122666 0,-0.754667 0.13334,-1.469334 0.40134,-2.142667 0.268,-0.673333 0.64,-1.262667 1.112,-1.772 0.47466,-0.508 1.044,-0.913333 1.71066,-1.214667 0.66667,-0.302666 1.39867,-0.453333 2.196,-0.453333 0.796,0 1.53067,0.150667 2.20267,0.453333 0.67467,0.301334 1.248,0.706667 1.72133,1.214667 0.47467,0.509333 0.844,1.098667 1.112,1.772 0.268,0.673333 0.40267,1.388 0.40267,2.142667 0,0.742666 -0.132,1.449333 -0.392,2.122666 -0.26,0.673334 -0.632,1.264 -1.112,1.772 -0.48133,0.508 -1.05467,0.913334 -1.72133,1.214667 -0.66667,0.302667 -1.404,0.453333 -2.21334,0.453333"
     style="fill:#ffffff;fill-opacity:1;fill-rule:nonzero;stroke:none;stroke-width:1.33333325"
     id="path85" /><path
     d="m 282.47786,20.459599 v 11.166666 h -1.85467 V 16.996932 h 1.44134 l 9.068,11.394667 V 17.018266 h 1.85466 v 14.607999 h -1.56666 z"
     style="fill:#ffffff;fill-opacity:1;fill-rule:nonzero;stroke:none;stroke-width:1.33333325"
     id="path89" /><path
     d="m 300.05333,30.472665 c 0.644,0 1.24667,-0.12 1.804,-0.361333 0.556,-0.238667 0.97733,-0.558667 1.26533,-0.957334 0.26134,-0.261333 0.39334,-0.529333 0.39334,-0.804 v -1.585333 c -0.88,-0.344 -1.79467,-0.516 -2.74134,-0.516 -0.908,0 -1.644,0.193333 -2.21466,0.577333 -0.57067,0.385334 -0.856,0.886667 -0.856,1.504 0,0.302667 0.0587,0.584 0.176,0.844 0.116,0.262667 0.28133,0.489334 0.49333,0.68 0.212,0.193334 0.46533,0.344 0.75333,0.454667 0.288,0.109333 0.59734,0.164 0.92667,0.164 m -0.47333,1.36 c -0.50934,0 -0.984,-0.08667 -1.42267,-0.257333 -0.43867,-0.172 -0.82133,-0.408 -1.14267,-0.710667 -0.32266,-0.302667 -0.57733,-0.656 -0.76266,-1.061333 -0.18534,-0.405334 -0.27867,-0.848 -0.27867,-1.329334 0,-0.494666 0.10933,-0.944 0.32933,-1.349333 0.22134,-0.404 0.53334,-0.752 0.93867,-1.04 0.404,-0.289333 0.88667,-0.516 1.44133,-0.681333 0.55734,-0.164 1.164,-0.246667 1.824,-0.246667 0.52134,0 1.05067,0.04933 1.58667,0.144 0.536,0.096 1.00933,0.226667 1.42267,0.392 v -0.865333 c 0,-0.88 -0.248,-1.569333 -0.74267,-2.070667 -0.49467,-0.501333 -1.19467,-0.753333 -2.10133,-0.753333 -1.08667,0 -2.22667,0.42 -3.42134,1.258667 l -0.59733,-1.174667 c 1.388,-0.934667 2.78133,-1.401333 4.18267,-1.401333 1.41333,0 2.51733,0.377333 3.30666,1.133333 0.78934,0.754667 1.18534,1.82 1.18534,3.193333 v 4.388 c 0,0.426667 0.19333,0.646667 0.57733,0.66 v 1.565333 c -0.19333,0.028 -0.35067,0.048 -0.47467,0.06267 -0.124,0.01333 -0.25333,0.02133 -0.392,0.02133 -0.356,0 -0.64133,-0.106666 -0.85333,-0.321333 -0.21467,-0.212 -0.34133,-0.469333 -0.38133,-0.772 l -0.0413,-0.762667 c -0.48133,0.646667 -1.08933,1.137334 -1.824,1.474667 -0.736,0.336 -1.52266,0.504 -2.35866,0.504"
     style="fill:#ffffff;fill-opacity:1;fill-rule:nonzero;stroke:none;stroke-width:1.33333325"
     id="path93" /><path
     d="m 308.23306,26.227865 c 0,-0.754667 0.132,-1.469333 0.392,-2.141333 0.26,-0.673334 0.632,-1.261334 1.112,-1.762667 0.48133,-0.501333 1.05467,-0.9 1.72133,-1.194667 0.66534,-0.296 1.412,-0.442666 2.23467,-0.442666 1.072,0 1.996,0.236 2.772,0.710666 0.776,0.473334 1.36267,1.109334 1.76133,1.905334 l -1.772,0.557333 c -0.27466,-0.509333 -0.66,-0.904 -1.15333,-1.185333 -0.49467,-0.281334 -1.044,-0.422667 -1.64933,-0.422667 -0.49467,0 -0.96134,0.1 -1.4,0.298667 -0.44,0.2 -0.81867,0.477333 -1.13467,0.834666 -0.31467,0.357334 -0.56533,0.776 -0.75067,1.257334 -0.18666,0.48 -0.27733,1.008 -0.27733,1.585333 0,0.564 0.0947,1.092 0.28667,1.586667 0.192,0.496 0.44933,0.924 0.77333,1.288 0.32267,0.364 0.7,0.649333 1.132,0.854666 0.43333,0.206667 0.89733,0.309334 1.392,0.309334 0.316,0 0.62933,-0.044 0.93733,-0.133334 0.30934,-0.08933 0.59067,-0.210666 0.84534,-0.361333 0.252,-0.150667 0.476,-0.325333 0.66933,-0.524 0.192,-0.2 0.32933,-0.416 0.412,-0.650667 l 1.772,0.537334 c -0.16533,0.398666 -0.39467,0.761333 -0.69067,1.090666 -0.296,0.329334 -0.64133,0.612 -1.04,0.845334 -0.39866,0.234666 -0.84133,0.418666 -1.328,0.556 -0.48933,0.137333 -1,0.205333 -1.53733,0.205333 -0.80933,0 -1.552,-0.150667 -2.224,-0.453333 -0.67333,-0.301334 -1.24933,-0.706667 -1.73067,-1.214667 -0.48133,-0.508 -0.85466,-1.102667 -1.12266,-1.782667 -0.268,-0.68 -0.40267,-1.397333 -0.40267,-2.153333"
     style="fill:#ffffff;fill-opacity:1;fill-rule:nonzero;stroke:none;stroke-width:1.33333325"
     id="path97" /><path
     id="path99"
     style="fill:#ffffff;fill-opacity:1;fill-rule:nonzero;stroke:none;stroke-width:1.33333325"
     d="m 321.09066,20.870666 h 1.812 v 10.754666 h -1.812 z m 0,-4.285334 h 1.812 v 2.265334 h -1.812 z" /><path
     d="m 327.68359,26.290399 c 0,0.562667 0.092,1.084 0.27733,1.565333 0.18667,0.481334 0.44,0.9 0.76267,1.257334 0.32267,0.357333 0.70133,0.638666 1.13333,0.844 0.432,0.206666 0.896,0.309333 1.39067,0.309333 0.49467,0 0.95867,-0.102667 1.39067,-0.309333 0.43333,-0.205334 0.81466,-0.490667 1.144,-0.854667 0.32933,-0.364 0.588,-0.789333 0.772,-1.277333 0.18533,-0.488 0.27866,-1.012 0.27866,-1.576 0,-0.549334 -0.0933,-1.068 -0.27866,-1.556 -0.184,-0.486667 -0.44267,-0.913334 -0.772,-1.277334 -0.32934,-0.364 -0.71067,-0.649333 -1.144,-0.854666 -0.432,-0.206667 -0.896,-0.309334 -1.39067,-0.309334 -0.49467,0 -0.95867,0.106667 -1.39067,0.32 -0.432,0.212 -0.81066,0.501334 -1.13333,0.864 -0.32267,0.365334 -0.576,0.790667 -0.76267,1.277334 -0.18533,0.489333 -0.27733,1.013333 -0.27733,1.577333 m 3.564,5.541333 c -0.81067,0 -1.548,-0.150666 -2.21333,-0.453333 -0.66667,-0.301333 -1.23734,-0.706667 -1.712,-1.214667 -0.47334,-0.508 -0.84,-1.098666 -1.10134,-1.772 -0.26133,-0.673333 -0.39333,-1.38 -0.39333,-2.122666 0,-0.754667 0.136,-1.469334 0.40267,-2.142667 0.268,-0.673333 0.64,-1.262667 1.11333,-1.772 0.47467,-0.508 1.044,-0.913333 1.70933,-1.214667 0.66534,-0.302666 1.39734,-0.453333 2.19467,-0.453333 0.79733,0 1.53067,0.150667 2.20533,0.453333 0.672,0.301334 1.24667,0.706667 1.72,1.214667 0.47467,0.509333 0.84534,1.098667 1.11334,1.772 0.26666,0.673333 0.40133,1.388 0.40133,2.142667 0,0.742666 -0.13067,1.449333 -0.39067,2.122666 -0.26133,0.673334 -0.63333,1.264 -1.11333,1.772 -0.48,0.508 -1.05467,0.913334 -1.72,1.214667 -0.66667,0.302667 -1.40533,0.453333 -2.216,0.453333"
     style="fill:#ffffff;fill-opacity:1;fill-rule:nonzero;stroke:none;stroke-width:1.33333325"
     id="path103" /><path
     d="m 348.94786,31.626265 h -1.81333 v -6.016 c 0,-1.154666 -0.176,-1.992 -0.52534,-2.513333 -0.352,-0.522667 -0.88266,-0.782667 -1.59733,-0.782667 -0.37067,0 -0.74133,0.07067 -1.11333,0.216 -0.36934,0.144 -0.72134,0.34 -1.04934,0.586667 -0.33066,0.248 -0.62,0.542667 -0.86666,0.885333 -0.24667,0.344 -0.43334,0.721334 -0.556,1.134667 v 6.489333 h -1.81334 V 20.871599 h 1.648 v 2.306666 c 0.42667,-0.754666 1.04134,-1.358666 1.844,-1.812 0.804,-0.453333 1.68,-0.68 2.628,-0.68 0.61867,0 1.132,0.113334 1.54534,0.34 0.412,0.226667 0.74266,0.542667 0.988,0.948 0.248,0.404 0.424,0.882667 0.52533,1.430667 0.104,0.549333 0.156,1.146667 0.156,1.793333 z"
     style="fill:#ffffff;fill-opacity:1;fill-rule:nonzero;stroke:none;stroke-width:1.33333325"
     id="path107" /><path
     d="m 355.72652,30.472665 c 0.644,0 1.24667,-0.12 1.80267,-0.361333 0.55733,-0.238667 0.97866,-0.558667 1.26666,-0.957334 0.26134,-0.261333 0.392,-0.529333 0.392,-0.804 v -1.585333 c -0.88,-0.344 -1.79333,-0.516 -2.74,-0.516 -0.908,0 -1.64533,0.193333 -2.216,0.577333 -0.57066,0.385334 -0.85466,0.886667 -0.85466,1.504 0,0.302667 0.0573,0.584 0.17466,0.844 0.11734,0.262667 0.28134,0.489334 0.49467,0.68 0.212,0.193334 0.464,0.344 0.75333,0.454667 0.288,0.109333 0.596,0.164 0.92667,0.164 m -0.47333,1.36 c -0.50934,0 -0.984,-0.08667 -1.42267,-0.257333 -0.44,-0.172 -0.82133,-0.408 -1.14267,-0.710667 -0.32266,-0.302667 -0.57866,-0.656 -0.764,-1.061333 -0.184,-0.405334 -0.27866,-0.848 -0.27866,-1.329334 0,-0.494666 0.10933,-0.944 0.33066,-1.349333 0.22,-0.404 0.532,-0.752 0.93867,-1.04 0.40267,-0.289333 0.88533,-0.516 1.44133,-0.681333 0.556,-0.164 1.164,-0.246667 1.824,-0.246667 0.52,0 1.04934,0.04933 1.58534,0.144 0.53733,0.096 1.01066,0.226667 1.42266,0.392 v -0.865333 c 0,-0.88 -0.248,-1.569333 -0.74266,-2.070667 -0.49467,-0.501333 -1.19467,-0.753333 -2.10134,-0.753333 -1.08666,0 -2.22533,0.42 -3.42,1.258667 l -0.59866,-1.174667 c 1.388,-0.934667 2.78133,-1.401333 4.18266,-1.401333 1.41467,0 2.51867,0.377333 3.30667,1.133333 0.79067,0.754667 1.18533,1.82 1.18533,3.193333 v 4.388 c 0,0.426667 0.19334,0.646667 0.57867,0.66 v 1.565333 c -0.19333,0.028 -0.352,0.048 -0.47467,0.06267 -0.12533,0.01333 -0.25466,0.02133 -0.392,0.02133 -0.35733,0 -0.64133,-0.106666 -0.85466,-0.321333 -0.21334,-0.212 -0.34,-0.469333 -0.38,-0.772 l -0.0427,-0.762667 c -0.48133,0.646667 -1.088,1.137334 -1.82267,1.474667 -0.736,0.336 -1.52266,0.504 -2.35866,0.504"
     style="fill:#ffffff;fill-opacity:1;fill-rule:nonzero;stroke:none;stroke-width:1.33333325"
     id="path111" /><path
     d="m 364.66799,16.585999 h 1.81333 v 12.258666 c 0,0.398667 0.10667,0.712 0.32,0.937334 0.212,0.226666 0.51067,0.34 0.896,0.34 0.152,0 0.32934,-0.02267 0.53467,-0.07067 0.20667,-0.048 0.39867,-0.106667 0.57733,-0.176 l 0.28934,1.462667 c -0.30267,0.124 -0.66,0.226666 -1.072,0.309333 -0.412,0.08133 -0.776,0.124 -1.092,0.124 -0.7,0 -1.25334,-0.2 -1.65867,-0.598667 -0.40667,-0.397333 -0.608,-0.953333 -0.608,-1.669333 z"
     style="fill:#ffffff;fill-opacity:1;fill-rule:nonzero;stroke:none;stroke-width:1.33333325"
     id="path115" /><path
     d="m 196.08466,54.304665 c 0.32933,0 0.67067,-0.06133 1.02,-0.185333 0.35067,-0.122667 0.67867,-0.294667 0.98933,-0.514667 0.308,-0.218667 0.576,-0.477333 0.80267,-0.772 0.22667,-0.296 0.37467,-0.609333 0.44267,-0.938667 v -3.090666 c -0.12267,-0.342667 -0.308,-0.669334 -0.556,-0.977334 -0.24667,-0.310666 -0.52534,-0.577333 -0.83467,-0.803999 -0.308,-0.228 -0.63867,-0.406667 -0.988,-0.536 -0.35067,-0.130667 -0.69733,-0.196 -1.04133,-0.196 -0.53467,0 -1.02,0.113333 -1.452,0.34 -0.43334,0.226666 -0.80267,0.529333 -1.11334,0.906666 -0.308,0.377333 -0.54533,0.810667 -0.71066,1.297333 -0.164,0.489334 -0.248,0.986667 -0.248,1.494667 0,0.536 0.0973,1.048 0.28933,1.534667 0.19333,0.488 0.45333,0.910666 0.784,1.266666 0.328,0.358667 0.716,0.644 1.164,0.856 0.44533,0.213334 0.92933,0.318667 1.452,0.318667 m -0.43333,1.566667 c -0.74134,0 -1.428,-0.150667 -2.06,-0.453334 -0.632,-0.302666 -1.17467,-0.706666 -1.628,-1.216 -0.45334,-0.508 -0.80667,-1.098666 -1.06134,-1.772 -0.25333,-0.672 -0.38133,-1.38 -0.38133,-2.122666 0,-0.754667 0.12,-1.473334 0.36267,-2.152 0.23866,-0.68 0.57466,-1.274667 1.008,-1.782667 0.43333,-0.508 0.94666,-0.910666 1.54666,-1.206666 0.596,-0.293334 1.252,-0.442667 1.96667,-0.442667 0.86667,0 1.63867,0.226667 2.31867,0.68 0.67866,0.453333 1.21866,1.004 1.616,1.649333 v -6.429333 h 1.81466 v 12.817333 c 0,0.425333 0.192,0.645333 0.576,0.658667 v 1.566666 c -0.192,0.02667 -0.34666,0.048 -0.46266,0.06 -0.11734,0.01467 -0.23067,0.02133 -0.34,0.02133 -0.35867,0 -0.66934,-0.12 -0.93734,-0.36 -0.268,-0.24 -0.40266,-0.518667 -0.40266,-0.834667 v -0.906667 c -0.42534,0.7 -0.992,1.245334 -1.69867,1.637334 -0.70933,0.392 -1.45333,0.588 -2.23733,0.588"
     style="fill:#ffffff;fill-opacity:1;fill-rule:nonzero;stroke:none;stroke-width:1.33333325"
     id="path119" /><path
     d="m 213.35159,49.566398 c -0.0413,-0.508 -0.16933,-0.978667 -0.38133,-1.412 -0.212,-0.432 -0.48,-0.8 -0.804,-1.102667 -0.32267,-0.301333 -0.69734,-0.538666 -1.12134,-0.710666 -0.428,-0.170667 -0.88133,-0.256 -1.36133,-0.256 -0.48,0 -0.93333,0.08533 -1.36,0.256 -0.42533,0.172 -0.8,0.413333 -1.12267,0.721333 -0.32266,0.309333 -0.584,0.677333 -0.78266,1.102667 -0.2,0.426666 -0.31867,0.893333 -0.36134,1.401333 z m -3.688,6.305333 c -0.81067,0 -1.55333,-0.148 -2.22667,-0.444 -0.67066,-0.294666 -1.24933,-0.697333 -1.72933,-1.205333 -0.48133,-0.508 -0.856,-1.102667 -1.124,-1.782667 -0.26667,-0.678666 -0.40133,-1.397333 -0.40133,-2.152 0,-0.754666 0.13466,-1.470666 0.40133,-2.142666 0.268,-0.673334 0.64533,-1.265334 1.13333,-1.773334 0.48934,-0.506666 1.068,-0.909333 1.74134,-1.205333 0.67333,-0.294667 1.41466,-0.442667 2.22533,-0.442667 0.81067,0 1.548,0.150667 2.21467,0.453334 0.66666,0.302666 1.23333,0.704 1.70133,1.205333 0.46533,0.501333 0.828,1.085333 1.08,1.752 0.25467,0.666667 0.38267,1.356 0.38267,2.070667 0,0.152 -0.005,0.288 -0.0107,0.412 -0.007,0.124 -0.0173,0.22 -0.0307,0.288 h -8.92133 c 0.0413,0.536 0.164,1.022666 0.36933,1.464 0.20667,0.44 0.47334,0.817333 0.804,1.132 0.32934,0.316 0.704,0.564 1.12267,0.742666 0.42,0.178667 0.86267,0.268 1.32933,0.268 0.32934,0 0.65334,-0.04533 0.968,-0.134666 0.316,-0.08933 0.612,-0.209334 0.88667,-0.36 0.27467,-0.150667 0.51867,-0.337334 0.732,-0.556 0.212,-0.22 0.37333,-0.468 0.48267,-0.742667 l 1.568,0.432 c -0.18,0.398667 -0.424,0.764 -0.732,1.093333 -0.30934,0.329334 -0.66667,0.614667 -1.07334,0.854667 -0.40266,0.24 -0.85333,0.429333 -1.348,0.566667 -0.496,0.137333 -1.00933,0.206666 -1.54533,0.206666"
     style="fill:#ffffff;fill-opacity:1;fill-rule:nonzero;stroke:none;stroke-width:1.33333325"
     id="path123" /><path
     id="path125"
     style="fill:#ffffff;fill-opacity:1;fill-rule:nonzero;stroke:none;stroke-width:1.33333325"
     d="m 224.02399,41.035998 h 1.85467 v 14.629333 h -1.85467 z" /><path
     d="m 239.14839,55.665331 h -1.81333 v -6.017333 c 0,-1.153333 -0.176,-1.990667 -0.52534,-2.512 -0.352,-0.522667 -0.88266,-0.784 -1.59733,-0.784 -0.37067,0 -0.74133,0.072 -1.11333,0.216 -0.36934,0.144 -0.72134,0.34 -1.04934,0.586667 -0.33066,0.248 -0.62,0.542666 -0.86666,0.886666 -0.24667,0.344 -0.43334,0.721334 -0.556,1.133333 v 6.490667 h -1.81334 V 44.910665 h 1.648 v 2.306666 c 0.42667,-0.754666 1.04134,-1.36 1.844,-1.813333 0.804,-0.453333 1.68,-0.68 2.628,-0.68 0.61867,0 1.132,0.113333 1.54534,0.34 0.412,0.226667 0.74266,0.542667 0.988,0.948 0.248,0.404 0.424,0.882667 0.52533,1.432 0.104,0.549333 0.156,1.146667 0.156,1.793333 z"
     style="fill:#ffffff;fill-opacity:1;fill-rule:nonzero;stroke:none;stroke-width:1.33333325"
     id="path129" /><path
     d="m 252.02599,55.665331 h -1.81333 v -6.017333 c 0,-1.153333 -0.176,-1.990667 -0.52534,-2.512 -0.352,-0.522667 -0.88266,-0.784 -1.59733,-0.784 -0.37067,0 -0.74133,0.072 -1.11333,0.216 -0.36934,0.144 -0.72134,0.34 -1.04934,0.586667 -0.33066,0.248 -0.62,0.542666 -0.86666,0.886666 -0.24667,0.344 -0.43334,0.721334 -0.556,1.133333 v 6.490667 h -1.81334 V 44.910665 h 1.648 v 2.306666 c 0.42667,-0.754666 1.04134,-1.36 1.844,-1.813333 0.804,-0.453333 1.68,-0.68 2.628,-0.68 0.61867,0 1.132,0.113333 1.54534,0.34 0.412,0.226667 0.74266,0.542667 0.988,0.948 0.248,0.404 0.424,0.882667 0.52533,1.432 0.104,0.549333 0.156,1.146667 0.156,1.793333 z"
     style="fill:#ffffff;fill-opacity:1;fill-rule:nonzero;stroke:none;stroke-width:1.33333325"
     id="path133" /><path
     d="m 256.70186,50.328131 c 0,0.564 0.092,1.085333 0.27733,1.566667 0.18667,0.48 0.44,0.9 0.76267,1.256 0.32267,0.358666 0.70133,0.64 1.13333,0.845333 0.432,0.205333 0.896,0.308 1.39067,0.308 0.49467,0 0.95867,-0.102667 1.39067,-0.308 0.43333,-0.205333 0.81466,-0.490667 1.144,-0.856 0.32933,-0.362667 0.588,-0.788 0.772,-1.277333 0.18533,-0.486667 0.27866,-1.012 0.27866,-1.574667 0,-0.549333 -0.0933,-1.068 -0.27866,-1.556 -0.184,-0.486667 -0.44267,-0.914667 -0.772,-1.277333 -0.32934,-0.365334 -0.71067,-0.650667 -1.144,-0.856 -0.432,-0.205334 -0.896,-0.308 -1.39067,-0.308 -0.49467,0 -0.95867,0.106666 -1.39067,0.318666 -0.432,0.213334 -0.81066,0.501334 -1.13333,0.865334 -0.32267,0.364 -0.576,0.789333 -0.76267,1.277333 -0.18533,0.488 -0.27733,1.013333 -0.27733,1.576 m 3.564,5.542667 c -0.81067,0 -1.548,-0.150667 -2.21333,-0.453334 -0.66667,-0.301333 -1.23734,-0.706666 -1.712,-1.216 -0.47334,-0.508 -0.84,-1.098666 -1.10134,-1.772 -0.26133,-0.672 -0.39333,-1.38 -0.39333,-2.122666 0,-0.754667 0.136,-1.468 0.40267,-2.141334 0.268,-0.673333 0.64,-1.264 1.11333,-1.772 0.47467,-0.508 1.044,-0.914666 1.70933,-1.216 0.66534,-0.302666 1.39734,-0.453333 2.19467,-0.453333 0.79733,0 1.53067,0.150667 2.20533,0.453333 0.672,0.301334 1.24667,0.708 1.72,1.216 0.47467,0.508 0.84534,1.098667 1.11334,1.772 0.26666,0.673334 0.40133,1.386667 0.40133,2.141334 0,0.742666 -0.13067,1.450666 -0.39067,2.122666 -0.26133,0.673334 -0.63333,1.264 -1.11333,1.772 -0.48,0.509334 -1.05467,0.914667 -1.72,1.216 -0.66667,0.302667 -1.40533,0.453334 -2.216,0.453334"
     style="fill:#ffffff;fill-opacity:1;fill-rule:nonzero;stroke:none;stroke-width:1.33333325"
     id="path137" /><path
     d="m 271.37239,55.665331 -4.24533,-10.754666 h 1.876 l 3.39866,9.167999 3.42134,-9.167999 h 1.73066 l -4.244,10.754666 z"
     style="fill:#ffffff;fill-opacity:1;fill-rule:nonzero;stroke:none;stroke-width:1.33333325"
     id="path141" /><path
     d="m 283.03519,54.511731 c 0.644,0 1.24667,-0.121333 1.804,-0.361333 0.556,-0.24 0.97733,-0.558667 1.26533,-0.957334 0.26134,-0.261333 0.39334,-0.529333 0.39334,-0.804 v -1.586666 c -0.88,-0.342667 -1.79467,-0.514667 -2.74134,-0.514667 -0.908,0 -1.644,0.192 -2.21466,0.577333 -0.57067,0.384 -0.856,0.885334 -0.856,1.504 0,0.301334 0.0587,0.582667 0.176,0.844 0.116,0.261334 0.28133,0.488 0.49333,0.68 0.212,0.193334 0.46533,0.344 0.75333,0.453334 0.288,0.110666 0.59734,0.165333 0.92667,0.165333 m -0.47333,1.36 c -0.50934,0 -0.984,-0.08667 -1.42267,-0.258667 -0.43867,-0.172 -0.82133,-0.408 -1.14267,-0.710666 -0.32266,-0.302667 -0.57733,-0.654667 -0.76266,-1.061334 -0.18534,-0.405333 -0.27867,-0.848 -0.27867,-1.328 0,-0.494666 0.10933,-0.945333 0.32933,-1.350666 0.22134,-0.404 0.53334,-0.750667 0.93867,-1.04 0.404,-0.288 0.88667,-0.516 1.44133,-0.68 0.55734,-0.165334 1.164,-0.246667 1.824,-0.246667 0.52134,0 1.05067,0.048 1.58667,0.144 0.536,0.096 1.00933,0.226667 1.42267,0.390667 v -0.864 c 0,-0.88 -0.248,-1.569333 -0.74267,-2.072 -0.49467,-0.501333 -1.19467,-0.752 -2.10133,-0.752 -1.08667,0 -2.22667,0.42 -3.42134,1.257333 l -0.59733,-1.174666 c 1.388,-0.933334 2.78133,-1.401334 4.18267,-1.401334 1.41333,0 2.51733,0.377334 3.30666,1.133334 0.78934,0.756 1.18534,1.82 1.18534,3.193333 v 4.389333 c 0,0.426667 0.19333,0.646667 0.57733,0.658667 v 1.566666 c -0.19333,0.028 -0.35067,0.048 -0.47467,0.06133 -0.124,0.01467 -0.25333,0.02133 -0.392,0.02133 -0.356,0 -0.64133,-0.106667 -0.85333,-0.32 -0.21467,-0.213333 -0.34133,-0.469333 -0.38133,-0.773333 l -0.0413,-0.761334 c -0.48133,0.646667 -1.08933,1.137334 -1.824,1.473334 -0.736,0.337333 -1.52266,0.505333 -2.35866,0.505333"
     style="fill:#ffffff;fill-opacity:1;fill-rule:nonzero;stroke:none;stroke-width:1.33333325"
     id="path145" /><path
     d="m 291.21359,50.266931 c 0,-0.754667 0.132,-1.470667 0.39333,-2.142667 0.26,-0.673333 0.63067,-1.261333 1.112,-1.762666 0.48,-0.501334 1.05467,-0.9 1.72,-1.194667 0.66534,-0.294667 1.412,-0.442667 2.236,-0.442667 1.07067,0 1.99467,0.237334 2.77067,0.710667 0.776,0.473333 1.364,1.109333 1.76267,1.906667 l -1.77334,0.556 c -0.27333,-0.508 -0.65866,-0.904 -1.15333,-1.185334 -0.49467,-0.281333 -1.044,-0.421333 -1.64933,-0.421333 -0.49467,0 -0.96,0.09867 -1.4,0.297333 -0.44,0.2 -0.81867,0.478667 -1.13334,0.834667 -0.31466,0.358667 -0.56666,0.776 -0.752,1.257333 -0.18533,0.481334 -0.27733,1.009334 -0.27733,1.586667 0,0.564 0.0947,1.090667 0.28667,1.585333 0.19333,0.496 0.45066,0.925334 0.77466,1.288 0.32267,0.365334 0.7,0.650667 1.132,0.856 0.432,0.205334 0.896,0.308 1.39067,0.308 0.316,0 0.62933,-0.044 0.93733,-0.133333 0.31067,-0.08933 0.592,-0.209333 0.84534,-0.36 0.25333,-0.150667 0.47733,-0.326667 0.67066,-0.525333 0.19067,-0.2 0.328,-0.416 0.412,-0.649334 l 1.77067,0.536 c -0.164,0.398667 -0.39333,0.762667 -0.69067,1.092 -0.29466,0.329334 -0.64,0.610667 -1.03866,0.844 -0.39867,0.234667 -0.84267,0.418667 -1.32934,0.557334 -0.48933,0.136 -0.99866,0.205333 -1.536,0.205333 -0.80933,0 -1.552,-0.150667 -2.22533,-0.453333 -0.67333,-0.301334 -1.24933,-0.706667 -1.72933,-1.216 -0.48267,-0.508 -0.856,-1.101334 -1.124,-1.782667 -0.26667,-0.68 -0.40267,-1.397333 -0.40267,-2.152"
     style="fill:#ffffff;fill-opacity:1;fill-rule:nonzero;stroke:none;stroke-width:1.33333325"
     id="path149" /><path
     id="path151"
     style="fill:#ffffff;fill-opacity:1;fill-rule:nonzero;stroke:none;stroke-width:1.33333325"
     d="m 304.07199,44.910665 h 1.81334 v 10.754666 h -1.81334 z m 0,-4.286667 h 1.81334 v 2.266667 h -1.81334 z" /><path
     d="m 314.53906,43.117198 -1.19467,-0.413333 1.19467,-2.08 h 1.812 z m -3.87333,7.210666 c 0,0.564 0.092,1.086667 0.27733,1.566667 0.18533,0.48 0.44,0.9 0.76267,1.256 0.32266,0.358667 0.7,0.64 1.13333,0.845333 0.432,0.205334 0.89467,0.309334 1.39067,0.309334 0.49466,0 0.95733,-0.104 1.39066,-0.309334 0.43334,-0.205333 0.81467,-0.490666 1.144,-0.854666 0.32934,-0.364 0.58667,-0.789334 0.772,-1.277334 0.18534,-0.488 0.27867,-1.013333 0.27867,-1.576 0,-0.549333 -0.0933,-1.067999 -0.27867,-1.555999 -0.18533,-0.486667 -0.44266,-0.914667 -0.772,-1.277334 -0.32933,-0.365333 -0.71066,-0.649333 -1.144,-0.856 -0.43333,-0.205333 -0.896,-0.308 -1.39066,-0.308 -0.496,0 -0.95867,0.106667 -1.39067,0.318667 -0.43333,0.213333 -0.81067,0.501333 -1.13333,0.866667 -0.32267,0.362666 -0.57734,0.788 -0.76267,1.277333 -0.18533,0.486667 -0.27733,1.012 -0.27733,1.574666 m 3.564,5.542667 c -0.81067,0 -1.54934,-0.150667 -2.21467,-0.452 -0.66667,-0.302667 -1.236,-0.708 -1.71067,-1.217333 -0.47333,-0.506667 -0.84133,-1.098667 -1.10133,-1.772 -0.26133,-0.672 -0.39333,-1.38 -0.39333,-2.121334 0,-0.755999 0.136,-1.469333 0.40266,-2.142666 0.268,-0.673333 0.63867,-1.264 1.11334,-1.772 0.47333,-0.508 1.044,-0.914667 1.70933,-1.216 0.66533,-0.302667 1.39733,-0.453333 2.19467,-0.453333 0.796,0 1.53066,0.150666 2.20533,0.453333 0.672,0.301333 1.24533,0.708 1.72,1.216 0.47333,0.508 0.84533,1.098667 1.11333,1.772 0.26667,0.673333 0.40134,1.386667 0.40134,2.142666 0,0.741334 -0.13067,1.449334 -0.39067,2.121334 -0.26267,0.673333 -0.63333,1.265333 -1.11333,1.772 -0.48134,0.509333 -1.05467,0.914666 -1.72,1.217333 -0.66667,0.301333 -1.40534,0.452 -2.216,0.452"
     style="fill:#ffffff;fill-opacity:1;fill-rule:nonzero;stroke:none;stroke-width:1.33333325"
     id="path155" /><path
     d="m 331.92839,55.665331 h -1.81333 v -6.017333 c 0,-1.153333 -0.17467,-1.990667 -0.52534,-2.512 -0.35066,-0.522667 -0.88266,-0.784 -1.59733,-0.784 -0.36933,0 -0.74133,0.072 -1.112,0.216 -0.37067,0.144 -0.72133,0.34 -1.05067,0.586667 -0.32933,0.248 -0.61866,0.542666 -0.86666,0.886666 -0.24667,0.344 -0.432,0.721334 -0.556,1.133333 v 6.490667 h -1.81334 V 44.910665 h 1.648 v 2.306666 c 0.428,-0.754666 1.04267,-1.36 1.844,-1.813333 0.80534,-0.453333 1.68,-0.68 2.628,-0.68 0.61867,0 1.132,0.113333 1.54534,0.34 0.41333,0.226667 0.74266,0.542667 0.988,0.948 0.248,0.404 0.424,0.882667 0.52666,1.432 0.104,0.549333 0.15467,1.146667 0.15467,1.793333 z"
     style="fill:#ffffff;fill-opacity:1;fill-rule:nonzero;stroke:none;stroke-width:1.33333325"
     id="path159" /><path
     d="m 196.45573,78.343731 c 0.536,0 1.02,-0.113333 1.45333,-0.34 0.432,-0.226667 0.80134,-0.528 1.112,-0.908 0.30934,-0.377333 0.54667,-0.805333 0.71067,-1.286667 0.164,-0.481333 0.248,-0.974666 0.248,-1.484 0,-0.534666 -0.0973,-1.046666 -0.28933,-1.534666 -0.19334,-0.486667 -0.45334,-0.913334 -0.78267,-1.277333 -0.32933,-0.364 -0.71733,-0.652 -1.164,-0.864 -0.44667,-0.214667 -0.93067,-0.321334 -1.452,-0.321334 -0.33067,0 -0.67067,0.06533 -1.02133,0.197334 -0.34934,0.129333 -0.67867,0.301333 -0.98934,0.513333 -0.308,0.214667 -0.576,0.468 -0.80133,0.764 -0.228,0.294666 -0.376,0.606666 -0.444,0.937333 v 3.069333 c 0.15067,0.357334 0.34133,0.690667 0.576,1 0.23467,0.308 0.50133,0.576 0.80533,0.802667 0.3,0.226667 0.62267,0.405333 0.96667,0.537333 0.34267,0.129334 0.70133,0.194667 1.072,0.194667 m 0.556,1.565333 c -0.89333,0 -1.67867,-0.218666 -2.36,-0.658666 -0.67867,-0.438667 -1.21867,-0.996 -1.616,-1.669334 v 6.512 h -1.81467 V 68.947731 h 1.608 v 2.02 c 0.42667,-0.66 0.97867,-1.192 1.65734,-1.597333 0.68133,-0.405333 1.43333,-0.608 2.25866,-0.608 0.74,0 1.42134,0.152 2.03867,0.453333 0.61733,0.302667 1.15333,0.712 1.60667,1.225334 0.45333,0.516 0.808,1.109333 1.06133,1.782666 0.25467,0.673333 0.38133,1.373333 0.38133,2.101333 0,0.769334 -0.11733,1.493334 -0.34933,2.174667 -0.23333,0.68 -0.564,1.269333 -0.98933,1.770667 -0.42667,0.502666 -0.93467,0.901333 -1.52534,1.196 -0.592,0.294666 -1.24266,0.442666 -1.95733,0.442666"
     style="fill:#ffffff;fill-opacity:1;fill-rule:nonzero;stroke:none;stroke-width:1.33333325"
     id="path163" /><path
     d="m 208.01426,78.549464 c 0.644,0 1.24667,-0.12 1.804,-0.361333 0.556,-0.238667 0.97733,-0.558667 1.26533,-0.957334 0.26134,-0.261333 0.39334,-0.529333 0.39334,-0.804 v -1.585333 c -0.88,-0.344 -1.79467,-0.516 -2.74134,-0.516 -0.908,0 -1.644,0.193333 -2.21466,0.577333 -0.57067,0.385334 -0.856,0.886667 -0.856,1.504 0,0.302667 0.0587,0.584 0.176,0.844 0.116,0.262667 0.28133,0.489334 0.49333,0.68 0.212,0.193334 0.46533,0.344 0.75333,0.454667 0.288,0.109333 0.59734,0.164 0.92667,0.164 m -0.47333,1.36 c -0.50934,0 -0.984,-0.08667 -1.42267,-0.257333 -0.43867,-0.172 -0.82133,-0.408 -1.14267,-0.710667 -0.32266,-0.302667 -0.57733,-0.656 -0.76266,-1.061333 -0.18534,-0.405334 -0.27867,-0.848 -0.27867,-1.329334 0,-0.494666 0.10933,-0.944 0.32933,-1.349333 0.22134,-0.404 0.53334,-0.752 0.93867,-1.04 0.404,-0.289333 0.88667,-0.516 1.44133,-0.681333 0.55734,-0.164 1.164,-0.246667 1.824,-0.246667 0.52134,0 1.05067,0.04933 1.58667,0.144 0.536,0.096 1.00933,0.226667 1.42267,0.392 v -0.865333 c 0,-0.88 -0.248,-1.569333 -0.74267,-2.070667 -0.49467,-0.501333 -1.19467,-0.753333 -2.10133,-0.753333 -1.08667,0 -2.22667,0.42 -3.42134,1.258667 l -0.59733,-1.174667 c 1.388,-0.934667 2.78133,-1.401333 4.18267,-1.401333 1.41333,0 2.51733,0.377333 3.30666,1.133333 0.78934,0.754667 1.18534,1.82 1.18534,3.193333 v 4.388 c 0,0.426667 0.19333,0.646667 0.57733,0.66 v 1.565333 c -0.19333,0.028 -0.35067,0.048 -0.47467,0.06267 -0.124,0.01333 -0.25333,0.02133 -0.392,0.02133 -0.356,0 -0.64133,-0.106666 -0.85333,-0.321333 -0.21467,-0.212 -0.34133,-0.469333 -0.38133,-0.772 l -0.0413,-0.762667 c -0.48133,0.646667 -1.08933,1.137334 -1.824,1.474667 -0.736,0.336 -1.52266,0.504 -2.35866,0.504"
     style="fill:#ffffff;fill-opacity:1;fill-rule:nonzero;stroke:none;stroke-width:1.33333325"
     id="path167" /><path
     d="m 222.60159,70.533864 c -0.90667,0.028 -1.70667,0.261333 -2.40133,0.701333 -0.692,0.438667 -1.184,1.050667 -1.472,1.833334 v 6.634666 h -1.81467 V 68.948531 h 1.69067 v 2.493333 c 0.37066,-0.742667 0.85866,-1.342667 1.464,-1.804 0.604,-0.46 1.24933,-0.717333 1.936,-0.772 h 0.34933 c 0.0973,0 0.17867,0.0067 0.248,0.02133 z"
     style="fill:#ffffff;fill-opacity:1;fill-rule:nonzero;stroke:none;stroke-width:1.33333325"
     id="path171" /><path
     d="m 228.35026,78.549464 c 0.644,0 1.24667,-0.12 1.804,-0.361333 0.556,-0.238667 0.97733,-0.558667 1.26533,-0.957334 0.26134,-0.261333 0.39334,-0.529333 0.39334,-0.804 v -1.585333 c -0.88,-0.344 -1.79467,-0.516 -2.74134,-0.516 -0.908,0 -1.644,0.193333 -2.21466,0.577333 -0.57067,0.385334 -0.856,0.886667 -0.856,1.504 0,0.302667 0.0587,0.584 0.176,0.844 0.116,0.262667 0.28133,0.489334 0.49333,0.68 0.212,0.193334 0.46533,0.344 0.75333,0.454667 0.288,0.109333 0.59734,0.164 0.92667,0.164 m -0.47333,1.36 c -0.50934,0 -0.984,-0.08667 -1.42267,-0.257333 -0.43867,-0.172 -0.82133,-0.408 -1.14267,-0.710667 -0.32266,-0.302667 -0.57733,-0.656 -0.76266,-1.061333 -0.18534,-0.405334 -0.27867,-0.848 -0.27867,-1.329334 0,-0.494666 0.10933,-0.944 0.32933,-1.349333 0.22134,-0.404 0.53334,-0.752 0.93867,-1.04 0.404,-0.289333 0.88667,-0.516 1.44133,-0.681333 0.55734,-0.164 1.164,-0.246667 1.824,-0.246667 0.52134,0 1.05067,0.04933 1.58667,0.144 0.536,0.096 1.00933,0.226667 1.42267,0.392 v -0.865333 c 0,-0.88 -0.248,-1.569333 -0.74267,-2.070667 -0.49467,-0.501333 -1.19467,-0.753333 -2.10133,-0.753333 -1.08667,0 -2.22667,0.42 -3.42134,1.258667 l -0.59733,-1.174667 c 1.388,-0.934667 2.78133,-1.401333 4.18267,-1.401333 1.41333,0 2.51733,0.377333 3.30666,1.133333 0.78934,0.754667 1.18534,1.82 1.18534,3.193333 v 4.388 c 0,0.426667 0.19333,0.646667 0.57733,0.66 v 1.565333 c -0.19333,0.028 -0.35067,0.048 -0.47467,0.06267 -0.124,0.01333 -0.25333,0.02133 -0.392,0.02133 -0.356,0 -0.64133,-0.106666 -0.85333,-0.321333 -0.21467,-0.212 -0.34133,-0.469333 -0.38133,-0.772 l -0.0413,-0.762667 c -0.48133,0.646667 -1.08933,1.137334 -1.824,1.474667 -0.736,0.336 -1.52266,0.504 -2.35866,0.504"
     style="fill:#ffffff;fill-opacity:1;fill-rule:nonzero;stroke:none;stroke-width:1.33333325"
     id="path175" /><path
     d="m 251.63279,73.604131 c -0.04,-0.508 -0.168,-0.977333 -0.38,-1.412 -0.21333,-0.432 -0.48133,-0.798667 -0.80533,-1.101333 -0.32267,-0.301334 -0.696,-0.538667 -1.12134,-0.710667 -0.42666,-0.172 -0.88,-0.257333 -1.36,-0.257333 -0.48133,0 -0.93466,0.08533 -1.36,0.257333 -0.42666,0.172 -0.80133,0.412 -1.12266,0.721333 -0.32267,0.308 -0.58534,0.676 -0.78267,1.101334 -0.20133,0.426666 -0.32,0.893333 -0.36267,1.401333 z m -3.688,6.305333 c -0.80933,0 -1.552,-0.148 -2.22533,-0.444 -0.672,-0.293333 -1.24934,-0.696 -1.72934,-1.204 -0.48266,-0.509333 -0.856,-1.102666 -1.124,-1.782666 -0.26666,-0.68 -0.40266,-1.398667 -0.40266,-2.153334 0,-0.754666 0.136,-1.470666 0.40266,-2.142666 0.268,-0.672 0.64534,-1.264 1.13334,-1.772 0.488,-0.508 1.068,-0.909334 1.74,-1.205334 0.67466,-0.296 1.416,-0.442666 2.22666,-0.442666 0.80934,0 1.548,0.150666 2.21467,0.453333 0.66533,0.302667 1.23333,0.702667 1.7,1.204 0.46667,0.502667 0.828,1.086667 1.08133,1.753333 0.25334,0.665334 0.38134,1.354667 0.38134,2.069334 0,0.152 -0.004,0.288 -0.0107,0.412 -0.007,0.124 -0.0173,0.22 -0.0307,0.289333 h -8.92133 c 0.0413,0.534667 0.16533,1.022667 0.37067,1.462667 0.20666,0.44 0.47333,0.817333 0.80266,1.133333 0.33067,0.316 0.70534,0.562667 1.12267,0.741333 0.42,0.18 0.86267,0.268 1.33067,0.268 0.328,0 0.652,-0.044 0.968,-0.134666 0.316,-0.088 0.61066,-0.208 0.88666,-0.36 0.27334,-0.150667 0.51867,-0.336 0.732,-0.556 0.21067,-0.22 0.372,-0.466667 0.48267,-0.742667 l 1.56667,0.433333 c -0.18,0.398667 -0.42267,0.762667 -0.732,1.092 -0.30934,0.330667 -0.66667,0.616 -1.072,0.854667 -0.404,0.241333 -0.85467,0.430667 -1.34934,0.566667 -0.49466,0.138666 -1.008,0.206666 -1.54533,0.206666"
     style="fill:#ffffff;fill-opacity:1;fill-rule:nonzero;stroke:none;stroke-width:1.33333325"
     id="path179" /><path
     d="m 256.12493,64.662798 h 1.812 v 12.258666 c 0,0.398667 0.10667,0.712 0.32133,0.937334 0.212,0.226666 0.50934,0.34 0.89467,0.34 0.152,0 0.33067,-0.02267 0.536,-0.07067 0.20667,-0.048 0.39867,-0.106667 0.576,-0.176 l 0.28933,1.462667 c -0.30133,0.124 -0.65866,0.226666 -1.07066,0.309333 -0.41334,0.08133 -0.776,0.124 -1.09334,0.124 -0.7,0 -1.252,-0.2 -1.65866,-0.598667 -0.40534,-0.397333 -0.60667,-0.953333 -0.60667,-1.669333 z"
     style="fill:#ffffff;fill-opacity:1;fill-rule:nonzero;stroke:none;stroke-width:1.33333325"
     id="path183" /><path
     d="m 278.56253,72.368531 c 0,-0.824 -0.112,-1.582667 -0.33867,-2.277333 -0.22666,-0.693334 -0.56533,-1.288 -1.01066,-1.782667 -0.44667,-0.493333 -0.992,-0.881333 -1.63734,-1.164 -0.64666,-0.281333 -1.38,-0.421333 -2.20533,-0.421333 h -3.21467 v 11.332 h 3.21467 c 0.83733,0 1.58267,-0.144 2.236,-0.433334 0.65067,-0.288 1.196,-0.685333 1.628,-1.194666 0.432,-0.508 0.76267,-1.109334 0.98933,-1.802667 0.22667,-0.693333 0.33867,-1.446667 0.33867,-2.256 m -10.26,7.334666 V 65.073865 h 5.068 c 1.168,0 2.19467,0.193333 3.08,0.577333 0.88667,0.385333 1.62533,0.906666 2.216,1.566666 0.59067,0.658667 1.03467,1.432 1.328,2.317334 0.296,0.885333 0.44267,1.830666 0.44267,2.833333 0,1.112 -0.164,2.118667 -0.49467,3.018667 -0.328,0.898666 -0.80133,1.669333 -1.42,2.306666 -0.61867,0.64 -1.364,1.134667 -2.236,1.484 -0.872,0.350667 -1.844,0.525333 -2.916,0.525333 z"
     style="fill:#ffffff;fill-opacity:1;fill-rule:nonzero;stroke:none;stroke-width:1.33333325"
     id="path187" /><path
     d="m 291.93493,73.604131 c -0.0413,-0.508 -0.16933,-0.977333 -0.38133,-1.412 -0.212,-0.432 -0.48,-0.798667 -0.804,-1.101333 -0.32267,-0.301334 -0.69734,-0.538667 -1.12134,-0.710667 -0.428,-0.172 -0.88133,-0.257333 -1.36133,-0.257333 -0.48,0 -0.93333,0.08533 -1.36,0.257333 -0.42533,0.172 -0.8,0.412 -1.12267,0.721333 -0.32266,0.308 -0.584,0.676 -0.78266,1.101334 -0.2,0.426666 -0.31867,0.893333 -0.36134,1.401333 z m -3.688,6.305333 c -0.81067,0 -1.55333,-0.148 -2.22667,-0.444 -0.67066,-0.293333 -1.24933,-0.696 -1.72933,-1.204 -0.48133,-0.509333 -0.856,-1.102666 -1.124,-1.782666 -0.26667,-0.68 -0.40133,-1.398667 -0.40133,-2.153334 0,-0.754666 0.13466,-1.470666 0.40133,-2.142666 0.268,-0.672 0.64533,-1.264 1.13333,-1.772 0.48934,-0.508 1.068,-0.909334 1.74134,-1.205334 0.67333,-0.296 1.41466,-0.442666 2.22533,-0.442666 0.81067,0 1.548,0.150666 2.21467,0.453333 0.66666,0.302667 1.23333,0.702667 1.70133,1.204 0.46533,0.502667 0.828,1.086667 1.08,1.753333 0.25467,0.665334 0.38267,1.354667 0.38267,2.069334 0,0.152 -0.005,0.288 -0.0107,0.412 -0.007,0.124 -0.0173,0.22 -0.0307,0.289333 h -8.92133 c 0.0413,0.534667 0.164,1.022667 0.36933,1.462667 0.20667,0.44 0.47334,0.817333 0.804,1.133333 0.32934,0.316 0.704,0.562667 1.12267,0.741333 0.42,0.18 0.86267,0.268 1.32933,0.268 0.32934,0 0.65334,-0.044 0.968,-0.134666 0.316,-0.088 0.612,-0.208 0.88667,-0.36 0.27467,-0.150667 0.51867,-0.336 0.732,-0.556 0.212,-0.22 0.37333,-0.466667 0.48267,-0.742667 l 1.568,0.433333 c -0.18,0.398667 -0.424,0.762667 -0.732,1.092 -0.30934,0.330667 -0.66667,0.616 -1.07334,0.854667 -0.40266,0.241333 -0.85333,0.430667 -1.348,0.566667 -0.496,0.138666 -1.00933,0.206666 -1.54533,0.206666"
     style="fill:#ffffff;fill-opacity:1;fill-rule:nonzero;stroke:none;stroke-width:1.33333325"
     id="path191" /><path
     d="m 300.15626,79.908797 c -0.86533,0 -1.71733,-0.133333 -2.55467,-0.401333 -0.83866,-0.268 -1.56,-0.656 -2.164,-1.164 l 0.784,-1.216 c 0.62934,0.481333 1.26267,0.842666 1.89467,1.082666 0.63067,0.24 1.29733,0.36 1.99867,0.36 0.784,0 1.40266,-0.154666 1.864,-0.464 0.46133,-0.308 0.69066,-0.744 0.69066,-1.308 0,-0.26 -0.0613,-0.484 -0.18533,-0.669333 -0.124,-0.186667 -0.30933,-0.348 -0.55733,-0.484 -0.24534,-0.137333 -0.56267,-0.261333 -0.94667,-0.372 -0.384,-0.109333 -0.832,-0.225333 -1.34,-0.349333 -0.64533,-0.165334 -1.20133,-0.322667 -1.66933,-0.474667 -0.46534,-0.150667 -0.85067,-0.329333 -1.15334,-0.534667 -0.30133,-0.206666 -0.52133,-0.453333 -0.65866,-0.742666 -0.13867,-0.289333 -0.20534,-0.645333 -0.20534,-1.070667 0,-0.536 0.10667,-1.013333 0.31867,-1.433333 0.212,-0.417333 0.504,-0.768 0.876,-1.050667 0.36933,-0.281333 0.80667,-0.493333 1.308,-0.637333 0.50267,-0.145333 1.04133,-0.216 1.61733,-0.216 0.81067,0 1.56534,0.129333 2.26667,0.390667 0.7,0.261333 1.28933,0.605333 1.772,1.029333 l -0.824,1.092 c -0.45333,-0.397333 -0.96267,-0.696 -1.52533,-0.894667 -0.56267,-0.2 -1.14,-0.3 -1.73067,-0.3 -0.66,0 -1.22,0.141334 -1.68,0.422667 -0.45867,0.281333 -0.68933,0.732 -0.68933,1.349333 0,0.248 0.044,0.453334 0.13333,0.618667 0.0893,0.165333 0.23733,0.308 0.444,0.432 0.20533,0.124 0.47067,0.234667 0.79333,0.329333 0.32134,0.096 0.71067,0.201333 1.164,0.310667 0.71334,0.164 1.336,0.333333 1.86534,0.504 0.528,0.172 0.968,0.374666 1.31733,0.608 0.352,0.233333 0.612,0.508 0.784,0.824 0.172,0.316 0.25733,0.7 0.25733,1.153333 0,1.004 -0.38533,1.801333 -1.15333,2.390667 -0.77067,0.590666 -1.80667,0.885333 -3.112,0.885333"
     style="fill:#ffffff;fill-opacity:1;fill-rule:nonzero;stroke:none;stroke-width:1.33333325"
     id="path195" /><path
     d="m 310.52079,78.549464 c 0.644,0 1.24667,-0.12 1.80267,-0.361333 0.55733,-0.238667 0.97866,-0.558667 1.26666,-0.957334 0.26134,-0.261333 0.392,-0.529333 0.392,-0.804 v -1.585333 c -0.88,-0.344 -1.79333,-0.516 -2.74,-0.516 -0.908,0 -1.64533,0.193333 -2.216,0.577333 -0.57066,0.385334 -0.85466,0.886667 -0.85466,1.504 0,0.302667 0.0573,0.584 0.17466,0.844 0.11734,0.262667 0.28134,0.489334 0.49467,0.68 0.212,0.193334 0.464,0.344 0.75333,0.454667 0.288,0.109333 0.596,0.164 0.92667,0.164 m -0.47333,1.36 c -0.50934,0 -0.984,-0.08667 -1.42267,-0.257333 -0.44,-0.172 -0.82133,-0.408 -1.14267,-0.710667 -0.32266,-0.302667 -0.57866,-0.656 -0.764,-1.061333 -0.184,-0.405334 -0.27866,-0.848 -0.27866,-1.329334 0,-0.494666 0.10933,-0.944 0.33066,-1.349333 0.22,-0.404 0.532,-0.752 0.93867,-1.04 0.40267,-0.289333 0.88533,-0.516 1.44133,-0.681333 0.556,-0.164 1.164,-0.246667 1.824,-0.246667 0.52,0 1.04934,0.04933 1.58534,0.144 0.53733,0.096 1.01066,0.226667 1.42266,0.392 v -0.865333 c 0,-0.88 -0.248,-1.569333 -0.74266,-2.070667 -0.49467,-0.501333 -1.19467,-0.753333 -2.10134,-0.753333 -1.08666,0 -2.22533,0.42 -3.42,1.258667 l -0.59866,-1.174667 c 1.388,-0.934667 2.78133,-1.401333 4.18266,-1.401333 1.41467,0 2.51867,0.377333 3.30667,1.133333 0.79067,0.754667 1.18533,1.82 1.18533,3.193333 v 4.388 c 0,0.426667 0.19334,0.646667 0.57867,0.66 v 1.565333 c -0.19333,0.028 -0.352,0.048 -0.47467,0.06267 -0.12533,0.01333 -0.25466,0.02133 -0.392,0.02133 -0.35733,0 -0.64133,-0.106666 -0.85466,-0.321333 -0.21334,-0.212 -0.34,-0.469333 -0.38,-0.772 l -0.0427,-0.762667 c -0.48133,0.646667 -1.088,1.137334 -1.82267,1.474667 -0.736,0.336 -1.52266,0.504 -2.35866,0.504"
     style="fill:#ffffff;fill-opacity:1;fill-rule:nonzero;stroke:none;stroke-width:1.33333325"
     id="path199" /><path
     d="m 325.10679,70.533864 c -0.90667,0.028 -1.70533,0.261333 -2.4,0.701333 -0.69333,0.438667 -1.184,1.050667 -1.472,1.833334 v 6.634666 h -1.81467 V 68.948531 h 1.68934 v 2.493333 c 0.372,-0.742667 0.85866,-1.342667 1.464,-1.804 0.604,-0.46 1.24933,-0.717333 1.93733,-0.772 h 0.348 c 0.0973,0 0.18,0.0067 0.248,0.02133 z"
     style="fill:#ffffff;fill-opacity:1;fill-rule:nonzero;stroke:none;stroke-width:1.33333325"
     id="path203" /><path
     d="m 333.30733,70.533864 c -0.90667,0.028 -1.70533,0.261333 -2.4,0.701333 -0.69333,0.438667 -1.184,1.050667 -1.472,1.833334 v 6.634666 h -1.81467 V 68.948531 H 329.31 v 2.493333 c 0.372,-0.742667 0.85866,-1.342667 1.464,-1.804 0.604,-0.46 1.24933,-0.717333 1.93733,-0.772 h 0.348 c 0.0973,0 0.18,0.0067 0.248,0.02133 z"
     style="fill:#ffffff;fill-opacity:1;fill-rule:nonzero;stroke:none;stroke-width:1.33333325"
     id="path207" /><path
     d="m 336.70826,74.367198 c 0,0.562667 0.0907,1.084 0.27733,1.565333 0.18667,0.481334 0.43867,0.9 0.76134,1.257334 0.32266,0.357333 0.70133,0.638666 1.13466,0.844 0.432,0.206666 0.896,0.309333 1.39067,0.309333 0.49333,0 0.95867,-0.102667 1.39067,-0.309333 0.43333,-0.205334 0.81333,-0.490667 1.144,-0.854667 0.328,-0.364 0.58666,-0.789333 0.77066,-1.277333 0.18667,-0.488 0.27867,-1.012 0.27867,-1.576 0,-0.549334 -0.092,-1.068 -0.27867,-1.556 -0.184,-0.486667 -0.44266,-0.913334 -0.77066,-1.277334 -0.33067,-0.364 -0.71067,-0.649333 -1.144,-0.854666 -0.432,-0.206667 -0.89734,-0.309334 -1.39067,-0.309334 -0.49467,0 -0.95867,0.106667 -1.39067,0.32 -0.43333,0.212 -0.812,0.501334 -1.13466,0.864 -0.32267,0.365334 -0.57467,0.790667 -0.76134,1.277334 -0.18666,0.489333 -0.27733,1.013333 -0.27733,1.577333 m 3.564,5.541333 c -0.812,0 -1.548,-0.150666 -2.21467,-0.453333 -0.66666,-0.301333 -1.23733,-0.706667 -1.71066,-1.214667 -0.47467,-0.508 -0.84134,-1.098666 -1.10267,-1.772 -0.26,-0.673333 -0.392,-1.38 -0.392,-2.122666 0,-0.754667 0.13467,-1.469334 0.40267,-2.142667 0.268,-0.673333 0.63866,-1.262667 1.112,-1.772 0.47466,-0.508 1.044,-0.913333 1.71066,-1.214667 0.66534,-0.302666 1.39734,-0.453333 2.19467,-0.453333 0.796,0 1.53067,0.150667 2.204,0.453333 0.67333,0.301334 1.248,0.706667 1.72133,1.214667 0.47467,0.509333 0.844,1.098667 1.112,1.772 0.268,0.673333 0.40134,1.388 0.40134,2.142667 0,0.742666 -0.13067,1.449333 -0.39067,2.122666 -0.26,0.673334 -0.63333,1.264 -1.112,1.772 -0.48133,0.508 -1.05467,0.913334 -1.72133,1.214667 -0.66667,0.302667 -1.404,0.453333 -2.21467,0.453333"
     style="fill:#ffffff;fill-opacity:1;fill-rule:nonzero;stroke:none;stroke-width:1.33333325"
     id="path211" /><path
     d="m 348.67839,64.662798 h 1.81333 v 12.258666 c 0,0.398667 0.10667,0.712 0.32,0.937334 0.212,0.226666 0.51067,0.34 0.896,0.34 0.152,0 0.32934,-0.02267 0.53467,-0.07067 0.20667,-0.048 0.39867,-0.106667 0.57733,-0.176 l 0.28934,1.462667 c -0.30267,0.124 -0.66,0.226666 -1.072,0.309333 -0.412,0.08133 -0.776,0.124 -1.092,0.124 -0.7,0 -1.25334,-0.2 -1.65867,-0.598667 -0.40667,-0.397333 -0.608,-0.953333 -0.608,-1.669333 z"
     style="fill:#ffffff;fill-opacity:1;fill-rule:nonzero;stroke:none;stroke-width:1.33333325"
     id="path215" /><path
     d="m 355.29159,64.662798 h 1.812 v 12.258666 c 0,0.398667 0.10667,0.712 0.32133,0.937334 0.21334,0.226666 0.51067,0.34 0.89467,0.34 0.152,0 0.332,-0.02267 0.53733,-0.07067 0.20534,-0.048 0.39867,-0.106667 0.576,-0.176 l 0.288,1.462667 c -0.30133,0.124 -0.65866,0.226666 -1.06933,0.309333 -0.41333,0.08133 -0.77733,0.124 -1.09333,0.124 -0.7,0 -1.25334,-0.2 -1.65867,-0.598667 -0.40533,-0.397333 -0.608,-0.953333 -0.608,-1.669333 z"
     style="fill:#ffffff;fill-opacity:1;fill-rule:nonzero;stroke:none;stroke-width:1.33333325"
     id="path219" /><path
     d="m 362.99732,74.367198 c 0,0.562667 0.0933,1.084 0.27867,1.565333 0.18533,0.481334 0.44,0.9 0.76266,1.257334 0.32134,0.357333 0.70134,0.638666 1.13334,0.844 0.432,0.206666 0.896,0.309333 1.39066,0.309333 0.49467,0 0.95867,-0.102667 1.39067,-0.309333 0.432,-0.205334 0.81333,-0.490667 1.14267,-0.854667 0.33066,-0.364 0.58933,-0.789333 0.772,-1.277333 0.188,-0.488 0.27866,-1.012 0.27866,-1.576 0,-0.549334 -0.0907,-1.068 -0.27866,-1.556 -0.18267,-0.486667 -0.44134,-0.913334 -0.772,-1.277334 -0.32934,-0.364 -0.71067,-0.649333 -1.14267,-0.854666 -0.432,-0.206667 -0.896,-0.309334 -1.39067,-0.309334 -0.49466,0 -0.95866,0.106667 -1.39066,0.32 -0.432,0.212 -0.812,0.501334 -1.13334,0.864 -0.32266,0.365334 -0.57733,0.790667 -0.76266,1.277334 -0.18534,0.489333 -0.27867,1.013333 -0.27867,1.577333 m 3.56533,5.541333 c -0.81066,0 -1.54933,-0.150666 -2.21466,-0.453333 -0.66667,-0.301333 -1.236,-0.706667 -1.71067,-1.214667 -0.47333,-0.508 -0.84133,-1.098666 -1.10267,-1.772 -0.26133,-0.673333 -0.392,-1.38 -0.392,-2.122666 0,-0.754667 0.13467,-1.469334 0.40134,-2.142667 0.268,-0.673333 0.64133,-1.262667 1.11333,-1.772 0.47467,-0.508 1.044,-0.913333 1.70933,-1.214667 0.66667,-0.302666 1.39867,-0.453333 2.196,-0.453333 0.796,0 1.53067,0.150667 2.204,0.453333 0.67334,0.301334 1.248,0.706667 1.72134,1.214667 0.47466,0.509333 0.844,1.098667 1.112,1.772 0.268,0.673333 0.40133,1.388 0.40133,2.142667 0,0.742666 -0.13067,1.449333 -0.39067,2.122666 -0.26,0.673334 -0.63333,1.264 -1.112,1.772 -0.48133,0.508 -1.056,0.913334 -1.72133,1.214667 -0.66667,0.302667 -1.40533,0.453333 -2.21467,0.453333"
     style="fill:#ffffff;fill-opacity:1;fill-rule:nonzero;stroke:none;stroke-width:1.33333325"
     id="path223" /><path
     id="path225"
     style="fill:#ffffff;fill-opacity:1;fill-rule:nonzero;stroke:none;stroke-width:1.33333325"
     d="m 178.556,83.366664 h -2.77734 V 15.599999 h 2.77734 z" /></svg>