<?xml version="1.0" encoding="UTF-8" standalone="no"?>
<svg
   xmlns:dc="http://purl.org/dc/elements/1.1/"
   xmlns:cc="http://creativecommons.org/ns#"
   xmlns:rdf="http://www.w3.org/1999/02/22-rdf-syntax-ns#"
   xmlns:svg="http://www.w3.org/2000/svg"
   xmlns="http://www.w3.org/2000/svg"
   viewBox="0 0 158.88359 67.08133"
   height="67.081329"
   width="158.88359"
   xml:space="preserve"
   id="svg29"
   version="1.1"><metadata
     id="metadata35"><rdf:RDF><cc:Work
         rdf:about=""><dc:format>image/svg+xml</dc:format><dc:type
           rdf:resource="http://purl.org/dc/dcmitype/StillImage" /><dc:title></dc:title></cc:Work></rdf:RDF></metadata><defs
     id="defs33"><clipPath
       id="clipPath45"
       clipPathUnits="userSpaceOnUse"><path
         id="path43"
         d="M 0,82 H 280 V 0 H 0 Z" /></clipPath></defs><path
     id="path49"
     style="fill:#ffffff;fill-opacity:1;fill-rule:nonzero;stroke:none;stroke-width:1.33333325"
     d="m 33.677332,48.487732 7.969333,1.036 c -0.872,5.492 -3.101333,9.792 -6.686666,12.898666 -3.588,3.106667 -7.990667,4.658667 -13.213333,4.658667 -6.544,0 -11.8039995,-2.137333 -15.7799995,-6.414667 C 1.988,56.389065 0,50.258399 0,42.274399 0,37.113066 0.856,32.595732 2.5666666,28.723732 c 1.7106666,-3.871999 4.3146669,-6.775999 7.8106674,-8.711999 3.495999,-1.936 7.301333,-2.904 11.414666,-2.904 5.190667,0 9.438666,1.313333 12.741332,3.938666 3.3,2.628 5.416001,6.357334 6.346666,11.189333 l -7.878666,1.214667 c -0.749333,-3.212 -2.077333,-5.628 -3.984,-7.248 -1.906667,-1.621333 -4.209333,-2.432 -6.910666,-2.432 -4.082667,0 -7.399999,1.464 -9.950666,4.389334 -2.5506665,2.926666 -3.8266665,7.557333 -3.8266665,13.890666 0,6.422666 1.230666,11.090666 3.6920005,14.001333 2.461333,2.910666 5.673332,4.366666 9.634665,4.366666 3.181333,0 5.837333,-0.974666 7.969334,-2.925333 2.130667,-1.950667 3.481332,-4.953333 4.051999,-9.005333" /><path
     id="path53"
     style="fill:#ffffff;fill-opacity:1;fill-rule:nonzero;stroke:none;stroke-width:1.33333325"
     d="M 48.579598,66.000665 V 18.188666 h 7.293333 v 6.797333 c 3.512,-5.252 8.582667,-7.878666 15.217334,-7.878666 2.881333,0 5.529332,0.518667 7.946667,1.553333 2.414666,1.036 4.223999,2.394667 5.423999,4.074667 1.201334,1.681333 2.041334,3.677333 2.522667,5.988 0.298666,1.501333 0.449332,4.126666 0.449332,7.878666 V 66.000665 H 79.328932 V 36.917999 c 0,-3.302667 -0.316,-5.770666 -0.945334,-7.406666 -0.630666,-1.636 -1.749333,-2.941334 -3.354666,-3.917334 -1.605334,-0.974666 -3.488,-1.462666 -5.649334,-1.462666 -3.451999,0 -6.431999,1.096 -8.937333,3.286666 -2.505333,2.190667 -3.76,6.348 -3.76,12.470667 v 26.111999 z" /><path
     d="M 99.903997,18.188 H 108.008 v 47.811999 h -8.104003 z m 0,-18.188 H 108.008 v 9.32 h -8.104003 z"
     style="fill:#ffffff;fill-opacity:1;fill-rule:nonzero;stroke:none;stroke-width:1.33333325"
     id="path55" /><path
     id="path59"
     style="fill:#ffffff;fill-opacity:1;fill-rule:nonzero;stroke:none;stroke-width:1.33333325"
     d="m 125.74627,42.139999 c 0,6.124 1.29067,10.698666 3.872,13.730666 2.58133,3.033334 5.628,4.548 9.14,4.548 3.54133,0 6.55067,-1.448 9.02667,-4.345333 2.476,-2.896 3.71333,-7.314666 3.71333,-13.257333 0,-6.544 -1.26,-11.346666 -3.78,-14.408 -2.52267,-3.061333 -5.628,-4.592 -9.32133,-4.592 -3.60134,0 -6.61067,1.470667 -9.02534,4.412 -2.41733,2.941334 -3.62533,7.578667 -3.62533,13.912 m 25.61733,23.861333 v -6.033333 c -3.032,4.743999 -7.488,7.113333 -13.37066,7.113333 -3.812,0 -7.31734,-1.050667 -10.512,-3.150667 -3.19734,-2.101333 -5.67334,-5.034666 -7.42934,-8.802666 -1.756,-3.765334 -2.63333,-8.096 -2.63333,-12.988 0,-4.773333 0.79467,-9.101333 2.38533,-12.989333 1.59067,-3.886667 3.976,-6.865333 7.15867,-8.936 3.18133,-2.072 6.73867,-3.106666 10.67067,-3.106666 2.88,0 5.44666,0.608 7.69733,1.822666 2.252,1.216 4.08267,2.798667 5.49467,4.750667 V 0 h 8.05866 v 66.001332 z" /></svg>