<svg xmlns="http://www.w3.org/2000/svg" xmlns:xlink="http://www.w3.org/1999/xlink" viewBox="0 0 1772.83 1804.35"><defs><style>.cls-1,.cls-5{fill:none;}.cls-2{opacity:0.7;}.cls-3{clip-path:url(#clip-path);}.cls-4{opacity:0.6;}.cls-5{stroke:#fff;stroke-miterlimit:6.85;stroke-width:0.69px;}.cls-6{fill:#fff;}</style><clipPath id="clip-path" transform="translate(-56.69 -56.69)"><rect class="cls-1" x="-235.4" y="276.05" width="2345.88" height="1446.31" transform="translate(-301.76 1583.59) rotate(-72.07)"/></clipPath></defs><g id="svg4960"><g id="layer1" class="cls-2"><g class="cls-3"><g id="g2076" class="cls-4"><g id="g2082"><path id="path2084" class="cls-5" d="M1731.55,227.42s13,56.18,13,63" transform="translate(-56.69 -56.69)"/></g><g id="g2086"><path id="path2088" class="cls-5" d="M1539,311.71a725.68,725.68,0,0,0,112.36-6.18" transform="translate(-56.69 -56.69)"/></g><g id="g2090"><path id="path2092" class="cls-5" d="M1731.55,227.42s13.71,52.07,13,63" transform="translate(-56.69 -56.69)"/></g><g id="g2094"><path id="path2096" class="cls-5" d="M1748.34,303.12,1761,361.71" transform="translate(-56.69 -56.69)"/></g><g id="g2098"><path id="path2100" class="cls-5" d="M1820.36,322s-46.43,40.62-54.42,43.44" transform="translate(-56.69 -56.69)"/></g><g id="g2102"><path id="path2104" class="cls-5" d="M1658.59,309.3l28.7,43.17" transform="translate(-56.69 -56.69)"/></g><g id="g2106"><path id="path2108" class="cls-5" d="M1760,372.46l-11,32.18" transform="translate(-56.69 -56.69)"/></g><g id="g2110"><path id="path2112" class="cls-5" d="M1742.13,404.92l-48.59-45.61" transform="translate(-56.69 -56.69)"/></g><g id="g2114"><path id="path2116" class="cls-5" d="M1688.47,473.58a854.76,854.76,0,0,0,2.33-112.21" transform="translate(-56.69 -56.69)"/></g><g id="g2118"><path id="path2120" class="cls-5" d="M1632.73,428.89s98.6-13.9,108.82-18.45" transform="translate(-56.69 -56.69)"/></g><g id="g2122"><path id="path2124" class="cls-5" d="M1629.83,434s41,39.62,53.41,41.39" transform="translate(-56.69 -56.69)"/></g><g id="g2126"><path id="path2128" class="cls-5" d="M1536.34,317.75l87.4,108.77" transform="translate(-56.69 -56.69)"/></g><g id="g2130"><path id="path2132" class="cls-5" d="M1532.51,319.55s-3.5,56.73-5.85,60.58" transform="translate(-56.69 -56.69)"/></g><g id="g2134"><path id="path2136" class="cls-5" d="M1531.17,386.67,1623,428.52" transform="translate(-56.69 -56.69)"/></g><g id="g2138"><path id="path2140" class="cls-5" d="M1549,504.33s115.79-17.58,132.23-23.75" transform="translate(-56.69 -56.69)"/></g><g id="g2142"><path id="path2144" class="cls-5" d="M1546.18,508.76,1609.83,560" transform="translate(-56.69 -56.69)"/></g><g id="g2146"><path id="path2148" class="cls-5" d="M1619.16,565.87l43.57-4.44" transform="translate(-56.69 -56.69)"/></g><g id="g2150"><path id="path2152" class="cls-5" d="M1395.52,453.89l54.12,14.38" transform="translate(-56.69 -56.69)"/></g><g id="g2154"><path id="path2156" class="cls-5" d="M1461.29,468.27l57.55-4.12" transform="translate(-56.69 -56.69)"/></g><g id="g2158"><path id="path2160" class="cls-5" d="M1459.68,471l9.84,80.86" transform="translate(-56.69 -56.69)"/></g><g id="g2162"><path id="path2164" class="cls-5" d="M1475.31,553.53l63.4-45.53" transform="translate(-56.69 -56.69)"/></g><g id="g2166"><path id="path2168" class="cls-5" d="M1475.77,559.12l92.8,37.06" transform="translate(-56.69 -56.69)"/></g><g id="g2170"><path id="path2172" class="cls-5" d="M1578.46,600.49l110.64,32" transform="translate(-56.69 -56.69)"/></g><g id="g2174"><path id="path2176" class="cls-5" d="M1513.38,626.53l55.42-25.45" transform="translate(-56.69 -56.69)"/></g><g id="g2178"><path id="path2180" class="cls-5" d="M1468.84,560.76,1452,613.68" transform="translate(-56.69 -56.69)"/></g><g id="g2182"><path id="path2184" class="cls-5" d="M1401.4,540.71l62.72,14.22" transform="translate(-56.69 -56.69)"/></g><g id="g2186"><path id="path2188" class="cls-5" d="M1329.07,566.94l61.66-26" transform="translate(-56.69 -56.69)"/></g><g id="g2190"><path id="path2192" class="cls-5" d="M1253.71,587.5l67.14-17.13" transform="translate(-56.69 -56.69)"/></g><g id="g2194"><path id="path2196" class="cls-5" d="M1183.82,538.18l58.35,47.31" transform="translate(-56.69 -56.69)"/></g><g id="g2198"><path id="path2200" class="cls-5" d="M1238.21,629.79l81.36-57.13" transform="translate(-56.69 -56.69)"/></g><g id="g2202"><path id="path2204" class="cls-5" d="M1392.1,543.64l-61.56,88.7" transform="translate(-56.69 -56.69)"/></g><g id="g2206"><path id="path2208" class="cls-5" d="M1241.38,633.41l83.56-1.07" transform="translate(-56.69 -56.69)"/></g><g id="g2210"><path id="path2212" class="cls-5" d="M1335.93,635.45l110.3-17.13" transform="translate(-56.69 -56.69)"/></g><g id="g2214"><path id="path2216" class="cls-5" d="M1445.94,620.91l-57.81,44.53" transform="translate(-56.69 -56.69)"/></g><g id="g2218"><path id="path2220" class="cls-5" d="M1457.6,618.81l44.13,8.41" transform="translate(-56.69 -56.69)"/></g><g id="g2222"><path id="path2224" class="cls-5" d="M1435,664.27l14.67-43.21" transform="translate(-56.69 -56.69)"/></g><g id="g2226"><path id="path2228" class="cls-5" d="M1333.33,638.17l47.8,27.51" transform="translate(-56.69 -56.69)"/></g><g id="g2230"><path id="path2232" class="cls-5" d="M1377.73,669l-22.61,54.13" transform="translate(-56.69 -56.69)"/></g><g id="g2234"><path id="path2236" class="cls-5" d="M1359.92,724.52l85.64-29.47-54.13-25.34" transform="translate(-56.69 -56.69)"/></g><g id="g2238"><path id="path2240" class="cls-5" d="M1359.92,727.26l152.78,32.87-62.35-62.34" transform="translate(-56.69 -56.69)"/></g><g id="g2242"><path id="path2244" class="cls-5" d="M1237.48,636.59l113.28,88.14" transform="translate(-56.69 -56.69)"/></g><g id="g2246"><path id="path2248" class="cls-5" d="M1229.1,636.6l4.75,44.77" transform="translate(-56.69 -56.69)"/></g><g id="g2250"><path id="path2252" class="cls-5" d="M1233.85,686.16l22.61,43.17" transform="translate(-56.69 -56.69)"/></g><g id="g2254"><path id="path2256" class="cls-5" d="M1260.57,728.64l87.7-2.06" transform="translate(-56.69 -56.69)"/></g><g id="g2258"><path id="path2260" class="cls-5" d="M1352.38,730.69l-17.12,63" transform="translate(-56.69 -56.69)"/></g><g id="g2262"><path id="path2264" class="cls-5" d="M1274.05,791.34l76-61.18" transform="translate(-56.69 -56.69)"/></g><g id="g2266"><path id="path2268" class="cls-5" d="M1277.71,795.1l56.87,2.73" transform="translate(-56.69 -56.69)"/></g><g id="g2270"><path id="path2272" class="cls-5" d="M1226.26,680.23l-98.61-12.55,8.91,43.16,6.86,9.28,55.88,29.45L1267,793.25l97.19,65.68,7.36,6.72-164.49-40.57-65-38.19-4.8-70.57,89.06-34.27" transform="translate(-56.69 -56.69)"/></g><g id="g2274"><path id="path2276" class="cls-5" d="M1208.37,749.34l48.09-20" transform="translate(-56.69 -56.69)"/></g><g id="g2278"><path id="path2280" class="cls-5" d="M1132.39,718.75,1061.89,765l-62.73-74.66" transform="translate(-56.69 -56.69)"/></g><g id="g2282"><path id="path2284" class="cls-5" d="M1024.89,779.36s-18.49,54.82-22.59,95.24" transform="translate(-56.69 -56.69)"/></g><g id="g2286"><path id="path2288" class="cls-5" d="M948.17,865s22.65-58.4,73.32-85" transform="translate(-56.69 -56.69)"/></g><g id="g2290"><path id="path2292" class="cls-5" d="M1138.16,789.68s-75.63,35.65-131.78,84.27" transform="translate(-56.69 -56.69)"/></g><g id="g2294"><path id="path2296" class="cls-5" d="M1062.6,967.77s9.33-77.32,75.56-178.09" transform="translate(-56.69 -56.69)"/></g><g id="g2298"><path id="path2300" class="cls-5" d="M953,867.07,1003,878l164.43,13.69s14.39-40.42,31.51-66.46" transform="translate(-56.69 -56.69)"/></g><g id="g2302"><path id="path2304" class="cls-5" d="M1228.39,890.33l-61,1.38" transform="translate(-56.69 -56.69)"/></g><g id="g2306"><path id="path2308" class="cls-5" d="M1064,975.31s67.82-75.37,103.44-83.6" transform="translate(-56.69 -56.69)"/></g><g id="g2310"><path id="path2312" class="cls-5" d="M1121.52,964.34s34.25-67.15,45.89-72.63" transform="translate(-56.69 -56.69)"/></g><g id="g2314"><path id="path2316" class="cls-5" d="M1003.67,969.15s-8.91-76.74-.69-88.39" transform="translate(-56.69 -56.69)"/></g><g id="g2318"><path id="path2320" class="cls-5" d="M881.72,916.4s53.43-47.28,66.45-48.65" transform="translate(-56.69 -56.69)"/></g><g id="g2322"><path id="path2324" class="cls-5" d="M1003.67,969.15l60.3,6.16" transform="translate(-56.69 -56.69)"/></g><g id="g2326"><path id="path2328" class="cls-5" d="M999.57,1063.7s54.81-69.21,121.95-99.36" transform="translate(-56.69 -56.69)"/></g><g id="g2330"><path id="path2332" class="cls-5" d="M1113.31,1079.44s-4.81-78.1,8.21-115.1" transform="translate(-56.69 -56.69)"/></g><g id="g2334"><path id="path2336" class="cls-5" d="M1002.31,1069.18l73.6,117.12" transform="translate(-56.69 -56.69)"/></g><g id="g2338"><path id="path2340" class="cls-5" d="M1667.93,67.3l69.72,18.18" transform="translate(-56.69 -56.69)"/></g><g id="g2342"><path id="path2344" class="cls-5" d="M1744.21,98.27,1799,205.15" transform="translate(-56.69 -56.69)"/></g><g id="g2346"><path id="path2348" class="cls-5" d="M1640.08,157.2l83.59,59.6" transform="translate(-56.69 -56.69)"/></g><g id="g2350"><path id="path2352" class="cls-5" d="M1734,219.73s55.54-5.8,63.72-8.82" transform="translate(-56.69 -56.69)"/></g><g id="g2354"><path id="path2356" class="cls-5" d="M1661.33,301.76s104.23-41.36,138.09-86.12" transform="translate(-56.69 -56.69)"/></g><g id="g2358"><path id="path2360" class="cls-6" d="M1666.4,63.63c1.83,4.63,1.5,9.11-.75,10s-5.57-2.14-7.4-6.77-1.5-9.12.75-10,5.56,2.14,7.4,6.78" transform="translate(-56.69 -56.69)"/></g><g id="g2362"><path id="path2364" class="cls-6" d="M1743.77,88.13c2.21,4.76,2.47,9.32.58,10.2s-5.21-2.27-7.41-7-2.47-9.32-.58-10.19,5.21,2.27,7.41,7" transform="translate(-56.69 -56.69)"/></g><g id="g2366"><path id="path2368" class="cls-6" d="M1806,208.49c1.93,4.16,1.56,8.43-.82,9.54s-5.89-1.37-7.82-5.53-1.55-8.43.83-9.53,5.88,1.36,7.81,5.52" transform="translate(-56.69 -56.69)"/></g><g id="g2370"><path id="path2372" class="cls-6" d="M1733.78,218.39c1.45,4,.47,8-2.16,8.93s-5.95-1.49-7.39-5.47-.47-8,2.17-8.94,5.94,1.5,7.38,5.48" transform="translate(-56.69 -56.69)"/></g><g id="g2374"><path id="path2376" class="cls-6" d="M1641.28,151.94c1.45,4,.47,8-2.16,8.94s-5.95-1.5-7.39-5.48-.47-8,2.17-8.93,5.94,1.49,7.38,5.47" transform="translate(-56.69 -56.69)"/></g><g id="g2378"><path id="path2380" class="cls-6" d="M1751.55,295c1.32,3.65.2,7.4-2.5,8.38s-6-1.19-7.28-4.84-.2-7.4,2.5-8.38,6,1.19,7.28,4.84" transform="translate(-56.69 -56.69)"/></g><g id="g2382"><path id="path2384" class="cls-6" d="M1829,316.19c1.32,3.65.2,7.4-2.5,8.38s-6-1.19-7.28-4.84-.2-7.4,2.5-8.37,6,1.18,7.28,4.83" transform="translate(-56.69 -56.69)"/></g><g id="g2386"><path id="path2388" class="cls-6" d="M1767.05,366.18c1.18,3.25-.19,6.73-3.06,7.77s-6.14-.76-7.32-4,.19-6.73,3.06-7.77,6.14.76,7.32,4" transform="translate(-56.69 -56.69)"/></g><g id="g2390"><path id="path2392" class="cls-6" d="M1695.8,354.54c1.18,3.25-.19,6.73-3.06,7.77s-6.14-.76-7.32-4,.19-6.73,3-7.77,6.15.76,7.33,4" transform="translate(-56.69 -56.69)"/></g><g id="g2394"><path id="path2396" class="cls-6" d="M1661.54,301.79c1.17,3.25-.19,6.73-3.06,7.77s-6.15-.76-7.32-4,.19-6.73,3-7.77,6.15.76,7.33,4" transform="translate(-56.69 -56.69)"/></g><g id="g2398"><path id="path2400" class="cls-6" d="M1539,311.47a6.53,6.53,0,1,1-8.13-3.37,6.23,6.23,0,0,1,8.13,3.37" transform="translate(-56.69 -56.69)"/></g><g id="g2402"><path id="path2404" class="cls-6" d="M1532.71,382.51c1,2.75-1,6-4.5,7.26s-7.11.05-8.1-2.7,1-6,4.5-7.26,7.11-.06,8.1,2.7" transform="translate(-56.69 -56.69)"/></g><g id="g2406"><path id="path2408" class="cls-6" d="M1632.75,427.71c1,2.75-1,6-4.5,7.27s-7.11,0-8.11-2.7,1-6,4.5-7.27,7.11-.05,8.11,2.7" transform="translate(-56.69 -56.69)"/></g><g id="g2410"><path id="path2412" class="cls-6" d="M1693.73,476.35c1,2.75-1,6-4.5,7.26s-7.11.06-8.11-2.69,1-6,4.5-7.27,7.11,0,8.11,2.7" transform="translate(-56.69 -56.69)"/></g><g id="g2414"><path id="path2416" class="cls-6" d="M1549.33,505.26c0,2.84-3.22,5.14-7.19,5.14s-7.19-2.3-7.19-5.14,3.22-5.14,7.19-5.14,7.19,2.3,7.19,5.14" transform="translate(-56.69 -56.69)"/></g><g id="g2418"><path id="path2420" class="cls-6" d="M1621.28,563.49c0,2.83-3.22,5.14-7.2,5.14s-7.19-2.3-7.19-5.14,3.22-5.14,7.19-5.14,7.2,2.3,7.2,5.14" transform="translate(-56.69 -56.69)"/></g><g id="g2422"><path id="path2424" class="cls-6" d="M1676.77,561.43c0,2.83-3.22,5.13-7.19,5.14s-7.19-2.3-7.19-5.14,3.22-5.14,7.19-5.14,7.19,2.3,7.19,5.14" transform="translate(-56.69 -56.69)"/></g><g id="g2426"><path id="path2428" class="cls-6" d="M1701.41,632.67c.28,2.82-2.71,5.42-6.66,5.81s-7.38-1.6-7.66-4.42,2.71-5.43,6.66-5.81,7.39,1.59,7.66,4.42" transform="translate(-56.69 -56.69)"/></g><g id="g2430"><path id="path2432" class="cls-6" d="M1580.83,597.74c.27,2.82-2.71,5.42-6.67,5.81s-7.38-1.59-7.65-4.42,2.7-5.43,6.66-5.81,7.38,1.59,7.66,4.42" transform="translate(-56.69 -56.69)"/></g><g id="g2434"><path id="path2436" class="cls-6" d="M1513.69,626.52c.27,2.82-2.71,5.42-6.67,5.81s-7.38-1.59-7.65-4.42,2.7-5.42,6.66-5.81,7.38,1.59,7.66,4.42" transform="translate(-56.69 -56.69)"/></g><g id="g2438"><path id="path2440" class="cls-6" d="M1477.37,556c.27,2.83-2.71,5.43-6.67,5.81s-7.38-1.59-7.65-4.41,2.7-5.43,6.66-5.81,7.38,1.59,7.66,4.41" transform="translate(-56.69 -56.69)"/></g><g id="g2442"><path id="path2444" class="cls-6" d="M1458.25,616.86c.27,2.82-2.88,5.44-7,5.85s-7.75-1.56-8-4.38,2.88-5.45,7-5.85,7.75,1.56,8,4.38" transform="translate(-56.69 -56.69)"/></g><g id="g2446"><path id="path2448" class="cls-6" d="M1402.06,538.76c.27,2.83-2.87,5.44-7,5.85s-7.76-1.56-8-4.38,2.88-5.45,7-5.85,7.75,1.56,8,4.38" transform="translate(-56.69 -56.69)"/></g><g id="g2450"><path id="path2452" class="cls-6" d="M1331.49,568.91c.28,2.83-2.87,5.45-7,5.85s-7.76-1.56-8-4.38,2.87-5.44,7-5.85,7.76,1.56,8,4.38" transform="translate(-56.69 -56.69)"/></g><g id="g2454"><path id="path2456" class="cls-6" d="M1253.39,587.42c.28,2.82-2.87,5.44-7,5.85s-7.76-1.56-8-4.38,2.87-5.45,7-5.85,7.76,1.56,8,4.38" transform="translate(-56.69 -56.69)"/></g><g id="g2458"><path id="path2460" class="cls-6" d="M1186.93,534.67c.27,2.83-2.88,5.45-7,5.85s-7.75-1.56-8-4.38,2.88-5.44,7-5.85,7.75,1.56,8,4.38" transform="translate(-56.69 -56.69)"/></g><g id="g2462"><path id="path2464" class="cls-6" d="M1241.06,633.33c.28,2.82-2.87,5.44-7,5.84s-7.76-1.55-8-4.38,2.87-5.44,7-5.85,7.76,1.56,8,4.39" transform="translate(-56.69 -56.69)"/></g><g id="g2466"><path id="path2468" class="cls-6" d="M1241.07,680.6c.27,2.82-2.88,5.44-7,5.85s-7.75-1.56-8-4.38,2.88-5.45,7-5.85,7.75,1.55,8,4.38" transform="translate(-56.69 -56.69)"/></g><g id="g2470"><path id="path2472" class="cls-6" d="M1134.87,666.91c.28,2.82-2.87,5.44-7,5.84s-7.76-1.55-8-4.38,2.87-5.44,7-5.84,7.76,1.55,8,4.38" transform="translate(-56.69 -56.69)"/></g><g id="g2474"><path id="path2476" class="cls-6" d="M1144.47,715.55c.27,2.83-2.88,5.44-7,5.85s-7.75-1.56-8-4.38,2.88-5.45,7-5.85,7.75,1.56,8,4.38" transform="translate(-56.69 -56.69)"/></g><g id="g2478"><path id="path2480" class="cls-6" d="M1210.93,751.17c.27,2.82-2.87,5.44-7,5.85s-7.76-1.56-8-4.38,2.87-5.45,7-5.85,7.75,1.56,8,4.38" transform="translate(-56.69 -56.69)"/></g><g id="g2482"><path id="path2484" class="cls-6" d="M1263.68,728.56c.28,2.82-2.87,5.44-7,5.84s-7.76-1.55-8-4.38,2.87-5.44,7-5.85,7.76,1.56,8,4.39" transform="translate(-56.69 -56.69)"/></g><g id="g2486"><path id="path2488" class="cls-6" d="M1277.4,795.14c.28,2.83-2.57,5.42-6.35,5.79s-7.08-1.63-7.35-4.45,2.57-5.41,6.35-5.78,7.08,1.62,7.35,4.44" transform="translate(-56.69 -56.69)"/></g><g id="g2490"><path id="path2492" class="cls-6" d="M1341.12,797.19c.28,2.83-2.57,5.42-6.35,5.78s-7.08-1.62-7.35-4.44,2.57-5.41,6.35-5.78,7.08,1.62,7.35,4.44" transform="translate(-56.69 -56.69)"/></g><g id="g2494"><path id="path2496" class="cls-6" d="M1375.38,861.59c.28,2.83-2.57,5.42-6.35,5.78s-7.08-1.62-7.35-4.44,2.57-5.42,6.35-5.78,7.08,1.62,7.35,4.44" transform="translate(-56.69 -56.69)"/></g><g id="g2498"><path id="path2500" class="cls-6" d="M1208.89,822.56c.28,2.82-2.57,5.41-6.35,5.78s-7.08-1.62-7.35-4.45,2.57-5.41,6.35-5.78,7.08,1.62,7.35,4.45" transform="translate(-56.69 -56.69)"/></g><g id="g2502"><path id="path2504" class="cls-6" d="M1173.89,891.08a6.18,6.18,0,1,1-6.7-5.2,6,6,0,0,1,6.7,5.2" transform="translate(-56.69 -56.69)"/></g><g id="g2506"><path id="path2508" class="cls-6" d="M1240.63,889.24a6.18,6.18,0,1,1-6.71-5.2,6,6,0,0,1,6.71,5.2" transform="translate(-56.69 -56.69)"/></g><g id="g2510"><path id="path2512" class="cls-6" d="M1148.6,786.25c.27,2.83-2.57,5.41-6.36,5.78s-7.07-1.62-7.35-4.44,2.57-5.42,6.36-5.79,7.07,1.63,7.35,4.45" transform="translate(-56.69 -56.69)"/></g><g id="g2514"><path id="path2516" class="cls-6" d="M1068.4,764.64c.29,3-2.38,5.64-6,6s-6.71-1.76-7-4.71,2.38-5.64,6-6,6.71,1.77,7,4.72" transform="translate(-56.69 -56.69)"/></g><g id="g2518"><path id="path2520" class="cls-6" d="M1002.62,686.54c.29,3-2.38,5.64-6,6s-6.71-1.77-7-4.72,2.38-5.64,6-6,6.71,1.76,7,4.71" transform="translate(-56.69 -56.69)"/></g><g id="g2522"><path id="path2524" class="cls-6" d="M1032.14,775.4a6.22,6.22,0,1,1-6.74-5.16,6,6,0,0,1,6.74,5.16" transform="translate(-56.69 -56.69)"/></g><g id="g2526"><path id="path2528" class="cls-6" d="M953.29,867.18c.33,3.47-1.83,6.51-4.82,6.8s-5.71-2.28-6-5.74,1.82-6.5,4.82-6.8,5.7,2.28,6,5.74" transform="translate(-56.69 -56.69)"/></g><g id="g2530"><path id="path2532" class="cls-6" d="M1008.1,877.46c.33,3.46-1.82,6.5-4.82,6.79s-5.71-2.28-6-5.74,1.82-6.5,4.82-6.79,5.7,2.27,6,5.74" transform="translate(-56.69 -56.69)"/></g><g id="g2534"><path id="path2536" class="cls-6" d="M1009.29,968.28c.77,4.07-1,7.82-4,8.37s-6-2.29-6.74-6.35,1-7.82,4-8.37,6,2.28,6.74,6.35" transform="translate(-56.69 -56.69)"/></g><g id="g2538"><path id="path2540" class="cls-6" d="M1069.58,974.44c.77,4.07-1,7.82-4,8.37s-6-2.29-6.75-6.35,1-7.82,4-8.37,6,2.28,6.74,6.35" transform="translate(-56.69 -56.69)"/></g><g id="g2542"><path id="path2544" class="cls-6" d="M1004,1062.25c1.68,4.48,1.23,8.79-1,9.63s-5.4-2.11-7.08-6.6-1.24-8.79,1-9.63,5.4,2.12,7.09,6.6" transform="translate(-56.69 -56.69)"/></g><g id="g2546"><path id="path2548" class="cls-6" d="M1117.28,1077.59c1.46,3.89.83,7.71-1.4,8.55s-5.22-1.63-6.68-5.51-.83-7.71,1.4-8.55,5.22,1.63,6.68,5.51" transform="translate(-56.69 -56.69)"/></g><g id="g2550"><path id="path2552" class="cls-6" d="M1081.84,1187.67c1.87,5,1.87,9.63,0,10.33s-4.92-2.77-6.8-7.78-1.88-9.62,0-10.33,4.93,2.78,6.81,7.78" transform="translate(-56.69 -56.69)"/></g><g id="g2554"><path id="path2556" class="cls-6" d="M1126.86,963.61c.65,3.43-1.23,6.66-4.19,7.21s-5.89-1.77-6.53-5.19,1.23-6.66,4.19-7.21,5.89,1.77,6.53,5.19" transform="translate(-56.69 -56.69)"/></g><g id="g2558"><path id="path2560" class="cls-6" d="M886,915.1c1.21,3.88.15,7.65-2.37,8.44s-5.53-1.72-6.74-5.6-.15-7.65,2.37-8.44,5.54,1.72,6.74,5.6" transform="translate(-56.69 -56.69)"/></g><g id="g2562"><path id="path2564" class="cls-6" d="M1335.83,635.67c.1,2.63-3.21,4.89-7.39,5s-7.64-1.86-7.73-4.49,3.21-4.89,7.39-5,7.64,1.86,7.73,4.49" transform="translate(-56.69 -56.69)"/></g><g id="g2566"><path id="path2568" class="cls-6" d="M1392.7,668.55c.1,2.63-3.21,4.89-7.39,5s-7.64-1.86-7.73-4.49,3.21-4.89,7.39-5,7.64,1.86,7.73,4.49" transform="translate(-56.69 -56.69)"/></g><g id="g2570"><path id="path2572" class="cls-6" d="M1440.66,668.55c.1,2.63-3.21,4.88-7.39,5s-7.64-1.86-7.74-4.49,3.22-4.89,7.39-5,7.64,1.85,7.74,4.49" transform="translate(-56.69 -56.69)"/></g><g id="g2574"><path id="path2576" class="cls-6" d="M1455.05,694.58c.1,2.63-3.21,4.89-7.39,5s-7.64-1.86-7.73-4.49,3.21-4.89,7.38-5,7.64,1.86,7.74,4.49" transform="translate(-56.69 -56.69)"/></g><g id="g2578"><path id="path2580" class="cls-6" d="M1520.06,758.79c.4,2.61-2.63,5.23-6.76,5.86s-7.8-1-8.2-3.57,2.63-5.23,6.76-5.86,7.8,1,8.2,3.57" transform="translate(-56.69 -56.69)"/></g><g id="g2582"><path id="path2584" class="cls-6" d="M1361.79,725.24c.4,2.6-2.62,5.22-6.76,5.85s-7.8-1-8.2-3.57,2.63-5.22,6.76-5.85,7.81,1,8.2,3.57" transform="translate(-56.69 -56.69)"/></g><g id="g2586"><path id="path2588" class="cls-6" d="M1530.81,463c.21,2.83-2.84,5.35-6.8,5.64s-7.34-1.77-7.55-4.6,2.84-5.36,6.8-5.65,7.35,1.78,7.55,4.61" transform="translate(-56.69 -56.69)"/></g><g id="g2590"><path id="path2592" class="cls-6" d="M1461.61,468.43c.21,2.83-2.84,5.36-6.8,5.65s-7.34-1.77-7.55-4.6,2.84-5.36,6.81-5.65,7.34,1.77,7.54,4.6" transform="translate(-56.69 -56.69)"/></g><g id="g2594"><path id="path2596" class="cls-6" d="M1397.21,452c.21,2.83-2.84,5.36-6.8,5.64s-7.34-1.77-7.55-4.6,2.84-5.36,6.8-5.65,7.34,1.78,7.55,4.61" transform="translate(-56.69 -56.69)"/></g><g id="g2598"><path id="path2600" class="cls-6" d="M1751.9,407.11a5.73,5.73,0,1,1-7.68-3.23,5.89,5.89,0,0,1,7.68,3.23" transform="translate(-56.69 -56.69)"/></g><g id="g2602"><path id="path2604" class="cls-5" d="M154.67,1690.32s-13-56.18-13-63" transform="translate(-56.69 -56.69)"/></g><g id="g2606"><path id="path2608" class="cls-5" d="M347.18,1606a726.35,726.35,0,0,0-112.36,6.17" transform="translate(-56.69 -56.69)"/></g><g id="g2610"><path id="path2612" class="cls-5" d="M154.67,1690.32s-13.71-52.07-13-63" transform="translate(-56.69 -56.69)"/></g><g id="g2614"><path id="path2616" class="cls-5" d="M137.87,1614.61,125.22,1556" transform="translate(-56.69 -56.69)"/></g><g id="g2618"><path id="path2620" class="cls-5" d="M65.86,1595.79s46.42-40.63,54.42-43.44" transform="translate(-56.69 -56.69)"/></g><g id="g2622"><path id="path2624" class="cls-5" d="M227.62,1608.44l-28.7-43.17" transform="translate(-56.69 -56.69)"/></g><g id="g2626"><path id="path2628" class="cls-5" d="M126.17,1545.28l11-32.18" transform="translate(-56.69 -56.69)"/></g><g id="g2630"><path id="path2632" class="cls-5" d="M144.09,1512.82l48.59,45.61" transform="translate(-56.69 -56.69)"/></g><g id="g2634"><path id="path2636" class="cls-5" d="M197.74,1444.16a853.83,853.83,0,0,0-2.32,112.21" transform="translate(-56.69 -56.69)"/></g><g id="g2638"><path id="path2640" class="cls-5" d="M253.49,1488.84s-98.6,13.9-108.83,18.45" transform="translate(-56.69 -56.69)"/></g><g id="g2642"><path id="path2644" class="cls-5" d="M256.39,1483.74s-41-39.62-53.41-41.39" transform="translate(-56.69 -56.69)"/></g><g id="g2646"><path id="path2648" class="cls-5" d="M349.88,1600l-87.4-108.77" transform="translate(-56.69 -56.69)"/></g><g id="g2650"><path id="path2652" class="cls-5" d="M353.71,1598.19s3.5-56.73,5.85-60.59" transform="translate(-56.69 -56.69)"/></g><g id="g2654"><path id="path2656" class="cls-5" d="M355.05,1531.07l-91.81-41.85" transform="translate(-56.69 -56.69)"/></g><g id="g2658"><path id="path2660" class="cls-5" d="M337.23,1413.4S221.44,1431,205,1437.16" transform="translate(-56.69 -56.69)"/></g><g id="g2662"><path id="path2664" class="cls-5" d="M340,1409l-63.65-51.28" transform="translate(-56.69 -56.69)"/></g><g id="g2666"><path id="path2668" class="cls-5" d="M267.06,1351.87l-43.57,4.44" transform="translate(-56.69 -56.69)"/></g><g id="g2670"><path id="path2672" class="cls-5" d="M490.7,1463.85l-54.13-14.38" transform="translate(-56.69 -56.69)"/></g><g id="g2674"><path id="path2676" class="cls-5" d="M424.93,1449.47l-57.55,4.11" transform="translate(-56.69 -56.69)"/></g><g id="g2678"><path id="path2680" class="cls-5" d="M426.54,1446.74l-9.84-80.86" transform="translate(-56.69 -56.69)"/></g><g id="g2682"><path id="path2684" class="cls-5" d="M410.91,1364.21l-63.41,45.53" transform="translate(-56.69 -56.69)"/></g><g id="g2686"><path id="path2688" class="cls-5" d="M410.44,1358.61l-92.79-37.06" transform="translate(-56.69 -56.69)"/></g><g id="g2690"><path id="path2692" class="cls-5" d="M307.75,1317.25l-110.64-32" transform="translate(-56.69 -56.69)"/></g><g id="g2694"><path id="path2696" class="cls-5" d="M372.84,1291.21l-55.42,25.45" transform="translate(-56.69 -56.69)"/></g><g id="g2698"><path id="path2700" class="cls-5" d="M417.38,1357l16.84-52.92" transform="translate(-56.69 -56.69)"/></g><g id="g2702"><path id="path2704" class="cls-5" d="M484.82,1377l-62.72-14.21" transform="translate(-56.69 -56.69)"/></g><g id="g2706"><path id="path2708" class="cls-5" d="M557.15,1350.8l-61.66,26" transform="translate(-56.69 -56.69)"/></g><g id="g2710"><path id="path2712" class="cls-5" d="M632.51,1330.23l-67.14,17.14" transform="translate(-56.69 -56.69)"/></g><g id="g2714"><path id="path2716" class="cls-5" d="M702.4,1379.56,644,1332.25" transform="translate(-56.69 -56.69)"/></g><g id="g2718"><path id="path2720" class="cls-5" d="M648,1288l-81.36,57.13" transform="translate(-56.69 -56.69)"/></g><g id="g2722"><path id="path2724" class="cls-5" d="M494.12,1374.1l61.56-88.71" transform="translate(-56.69 -56.69)"/></g><g id="g2726"><path id="path2728" class="cls-5" d="M644.84,1284.33l-83.56,1.06" transform="translate(-56.69 -56.69)"/></g><g id="g2730"><path id="path2732" class="cls-5" d="M550.29,1282.28,440,1299.42" transform="translate(-56.69 -56.69)"/></g><g id="g2734"><path id="path2736" class="cls-5" d="M440.28,1296.83l57.81-44.54" transform="translate(-56.69 -56.69)"/></g><g id="g2738"><path id="path2740" class="cls-5" d="M428.62,1298.93l-44.13-8.41" transform="translate(-56.69 -56.69)"/></g><g id="g2742"><path id="path2744" class="cls-5" d="M451.23,1253.46l-14.67,43.22" transform="translate(-56.69 -56.69)"/></g><g id="g2746"><path id="path2748" class="cls-5" d="M552.88,1279.57l-47.79-27.51" transform="translate(-56.69 -56.69)"/></g><g id="g2750"><path id="path2752" class="cls-5" d="M508.49,1248.72l22.6-54.13" transform="translate(-56.69 -56.69)"/></g><g id="g2754"><path id="path2756" class="cls-5" d="M526.3,1193.22l-85.64,29.47L494.79,1248" transform="translate(-56.69 -56.69)"/></g><g id="g2758"><path id="path2760" class="cls-5" d="M526.3,1190.48l-152.79-32.87L435.86,1220" transform="translate(-56.69 -56.69)"/></g><g id="g2762"><path id="path2764" class="cls-5" d="M648.74,1281.14,535.46,1193" transform="translate(-56.69 -56.69)"/></g><g id="g2766"><path id="path2768" class="cls-5" d="M657.11,1281.14l-4.74-44.77" transform="translate(-56.69 -56.69)"/></g><g id="g2770"><path id="path2772" class="cls-5" d="M652.37,1231.57l-22.62-43.16" transform="translate(-56.69 -56.69)"/></g><g id="g2774"><path id="path2776" class="cls-5" d="M625.64,1189.1,538,1191.16" transform="translate(-56.69 -56.69)"/></g><g id="g2778"><path id="path2780" class="cls-5" d="M533.83,1187.05,551,1124" transform="translate(-56.69 -56.69)"/></g><g id="g2782"><path id="path2784" class="cls-5" d="M612.17,1126.39l-76.06,61.19" transform="translate(-56.69 -56.69)"/></g><g id="g2786"><path id="path2788" class="cls-5" d="M608.51,1122.64l-56.87-2.73" transform="translate(-56.69 -56.69)"/></g><g id="g2790"><path id="path2792" class="cls-5" d="M660,1237.51l98.61,12.55-8.91-43.16-6.86-9.28-55.87-29.45-67.73-43.68L522,1058.81l-7.36-6.73,164.48,40.57,65,38.2,4.81,70.57-89.07,34.26" transform="translate(-56.69 -56.69)"/></g><g id="g2794"><path id="path2796" class="cls-5" d="M677.85,1168.39l-48.1,20" transform="translate(-56.69 -56.69)"/></g><g id="g2798"><path id="path2800" class="cls-5" d="M753.83,1199l70.5-46.22,62.73,74.65" transform="translate(-56.69 -56.69)"/></g><g id="g2802"><path id="path2804" class="cls-5" d="M861.32,1138.37s18.49-54.81,22.6-95.23" transform="translate(-56.69 -56.69)"/></g><g id="g2806"><path id="path2808" class="cls-5" d="M938.05,1052.73s-22.66,58.39-73.33,85" transform="translate(-56.69 -56.69)"/></g><g id="g2810"><path id="path2812" class="cls-5" d="M748.06,1128.06s75.62-35.66,131.77-84.27" transform="translate(-56.69 -56.69)"/></g><g id="g2814"><path id="path2816" class="cls-5" d="M823.62,950s-9.33,77.32-75.56,178.09" transform="translate(-56.69 -56.69)"/></g><g id="g2818"><path id="path2820" class="cls-5" d="M933.25,1050.67l-50-11L718.8,1026s-14.38,40.42-31.51,66.46" transform="translate(-56.69 -56.69)"/></g><g id="g2822"><path id="path2824" class="cls-5" d="M657.83,1027.4l61-1.37" transform="translate(-56.69 -56.69)"/></g><g id="g2826"><path id="path2828" class="cls-5" d="M822.25,942.43S754.43,1017.8,718.8,1026" transform="translate(-56.69 -56.69)"/></g><g id="g2830"><path id="path2832" class="cls-5" d="M764.7,953.4s-34.25,67.15-45.9,72.63" transform="translate(-56.69 -56.69)"/></g><g id="g2834"><path id="path2836" class="cls-5" d="M882.54,948.59s8.92,76.73.7,88.38" transform="translate(-56.69 -56.69)"/></g><g id="g2838"><path id="path2840" class="cls-5" d="M1004.5,1001.33s-53.44,47.28-66.45,48.65" transform="translate(-56.69 -56.69)"/></g><g id="g2842"><path id="path2844" class="cls-5" d="M882.54,948.59l-60.29-6.16" transform="translate(-56.69 -56.69)"/></g><g id="g2846"><path id="path2848" class="cls-5" d="M886.64,854s-54.8,69.21-121.94,99.36" transform="translate(-56.69 -56.69)"/></g><g id="g2850"><path id="path2852" class="cls-5" d="M772.91,838.3s4.8,78.1-8.21,115.1" transform="translate(-56.69 -56.69)"/></g><g id="g2854"><path id="path2856" class="cls-5" d="M883.9,848.56,810.31,731.44" transform="translate(-56.69 -56.69)"/></g><g id="g2858"><path id="path2860" class="cls-5" d="M218.29,1850.44l-69.72-18.18" transform="translate(-56.69 -56.69)"/></g><g id="g2862"><path id="path2864" class="cls-5" d="M142,1819.47,87.18,1712.59" transform="translate(-56.69 -56.69)"/></g><g id="g2866"><path id="path2868" class="cls-5" d="M246.14,1760.53l-83.59-59.59" transform="translate(-56.69 -56.69)"/></g><g id="g2870"><path id="path2872" class="cls-5" d="M152.24,1698s-55.54,5.8-63.73,8.82" transform="translate(-56.69 -56.69)"/></g><g id="g2874"><path id="path2876" class="cls-5" d="M224.88,1616S120.66,1657.34,86.8,1702.1" transform="translate(-56.69 -56.69)"/></g><g id="g2878"><path id="path2880" class="cls-6" d="M219.82,1854.11c-1.84-4.63-1.5-9.11.75-10s5.56,2.15,7.4,6.78,1.5,9.12-.75,10-5.57-2.14-7.4-6.78" transform="translate(-56.69 -56.69)"/></g><g id="g2882"><path id="path2884" class="cls-6" d="M142.44,1829.61c-2.2-4.76-2.46-9.33-.57-10.2s5.2,2.27,7.41,7,2.46,9.33.58,10.2-5.21-2.27-7.42-7" transform="translate(-56.69 -56.69)"/></g><g id="g2886"><path id="path2888" class="cls-6" d="M80.18,1709.24c-1.93-4.15-1.55-8.42.83-9.53s5.88,1.37,7.81,5.53,1.56,8.43-.82,9.53-5.89-1.37-7.82-5.53" transform="translate(-56.69 -56.69)"/></g><g id="g2890"><path id="path2892" class="cls-6" d="M152.43,1699.35c-1.44-4-.47-8,2.17-8.94s6,1.5,7.39,5.48.47,8-2.17,8.93-5.95-1.49-7.39-5.47" transform="translate(-56.69 -56.69)"/></g><g id="g2894"><path id="path2896" class="cls-6" d="M244.93,1765.8c-1.44-4-.47-8,2.17-8.94s6,1.5,7.39,5.48.47,8-2.17,8.93-5.95-1.49-7.39-5.47" transform="translate(-56.69 -56.69)"/></g><g id="g2898"><path id="path2900" class="cls-6" d="M134.67,1622.78c-1.32-3.65-.2-7.4,2.5-8.38s6,1.19,7.28,4.84.2,7.4-2.5,8.37-6-1.18-7.28-4.83" transform="translate(-56.69 -56.69)"/></g><g id="g2902"><path id="path2904" class="cls-6" d="M57.25,1601.55c-1.32-3.65-.21-7.4,2.49-8.38s6,1.19,7.28,4.84.21,7.4-2.49,8.37-6-1.18-7.28-4.83" transform="translate(-56.69 -56.69)"/></g><g id="g2906"><path id="path2908" class="cls-6" d="M119.16,1551.56c-1.17-3.26.19-6.74,3.06-7.77s6.15.75,7.32,4-.19,6.73-3,7.77-6.15-.76-7.33-4" transform="translate(-56.69 -56.69)"/></g><g id="g2910"><path id="path2912" class="cls-6" d="M190.42,1563.2c-1.18-3.26.19-6.74,3.06-7.77s6.14.75,7.32,4-.19,6.73-3.06,7.77-6.14-.76-7.32-4" transform="translate(-56.69 -56.69)"/></g><g id="g2914"><path id="path2916" class="cls-6" d="M224.68,1616c-1.18-3.26.19-6.73,3.06-7.77s6.14.76,7.32,4-.19,6.73-3.06,7.77-6.14-.76-7.32-4" transform="translate(-56.69 -56.69)"/></g><g id="g2918"><path id="path2920" class="cls-6" d="M347.27,1606.27a6.52,6.52,0,1,1,8.13,3.37,6.23,6.23,0,0,1-8.13-3.37" transform="translate(-56.69 -56.69)"/></g><g id="g2922"><path id="path2924" class="cls-6" d="M353.5,1535.23c-1-2.75,1-6,4.5-7.26s7.11,0,8.11,2.7-1,6-4.5,7.26-7.11,0-8.11-2.7" transform="translate(-56.69 -56.69)"/></g><g id="g2926"><path id="path2928" class="cls-6" d="M253.47,1490c-1-2.75,1-6,4.5-7.26s7.11,0,8.11,2.7-1,6-4.5,7.26-7.11.06-8.11-2.7" transform="translate(-56.69 -56.69)"/></g><g id="g2930"><path id="path2932" class="cls-6" d="M192.49,1441.39c-1-2.75,1-6,4.5-7.27s7.11,0,8.11,2.7-1,6-4.5,7.27-7.11.05-8.11-2.7" transform="translate(-56.69 -56.69)"/></g><g id="g2934"><path id="path2936" class="cls-6" d="M336.88,1412.48c0-2.84,3.22-5.14,7.2-5.14s7.19,2.3,7.19,5.14-3.22,5.14-7.19,5.14-7.2-2.3-7.2-5.14" transform="translate(-56.69 -56.69)"/></g><g id="g2938"><path id="path2940" class="cls-6" d="M264.94,1354.25c0-2.84,3.22-5.14,7.19-5.14s7.2,2.3,7.2,5.14-3.22,5.14-7.2,5.14-7.19-2.3-7.19-5.14" transform="translate(-56.69 -56.69)"/></g><g id="g2942"><path id="path2944" class="cls-6" d="M209.44,1356.31c0-2.84,3.22-5.14,7.2-5.14s7.19,2.3,7.19,5.14-3.22,5.14-7.19,5.14-7.2-2.3-7.2-5.14" transform="translate(-56.69 -56.69)"/></g><g id="g2946"><path id="path2948" class="cls-6" d="M184.8,1285.07c-.27-2.82,2.71-5.42,6.67-5.81s7.38,1.59,7.65,4.42-2.7,5.42-6.66,5.81-7.38-1.59-7.66-4.42" transform="translate(-56.69 -56.69)"/></g><g id="g2950"><path id="path2952" class="cls-6" d="M305.39,1320c-.27-2.82,2.71-5.42,6.66-5.81s7.39,1.59,7.66,4.42-2.71,5.42-6.66,5.81-7.38-1.59-7.66-4.42" transform="translate(-56.69 -56.69)"/></g><g id="g2954"><path id="path2956" class="cls-6" d="M372.53,1291.22c-.27-2.83,2.71-5.43,6.66-5.81s7.39,1.59,7.66,4.41-2.71,5.43-6.66,5.82-7.38-1.6-7.66-4.42" transform="translate(-56.69 -56.69)"/></g><g id="g2958"><path id="path2960" class="cls-6" d="M408.85,1361.78c-.27-2.82,2.71-5.42,6.66-5.81s7.38,1.59,7.66,4.42-2.71,5.43-6.66,5.81-7.38-1.59-7.66-4.42" transform="translate(-56.69 -56.69)"/></g><g id="g2962"><path id="path2964" class="cls-6" d="M428,1300.88c-.28-2.83,2.87-5.45,7-5.85s7.76,1.56,8,4.38-2.87,5.44-7,5.85-7.76-1.56-8-4.38" transform="translate(-56.69 -56.69)"/></g><g id="g2966"><path id="path2968" class="cls-6" d="M484.16,1379c-.28-2.83,2.87-5.45,7-5.85s7.76,1.56,8,4.38-2.87,5.44-7,5.85-7.76-1.56-8-4.38" transform="translate(-56.69 -56.69)"/></g><g id="g2970"><path id="path2972" class="cls-6" d="M554.72,1348.82c-.27-2.82,2.88-5.44,7-5.84s7.75,1.55,8,4.38-2.88,5.44-7,5.85-7.75-1.56-8-4.39" transform="translate(-56.69 -56.69)"/></g><g id="g2974"><path id="path2976" class="cls-6" d="M632.83,1330.32c-.28-2.83,2.87-5.45,7-5.85s7.75,1.56,8,4.38-2.87,5.44-7,5.85-7.76-1.56-8-4.38" transform="translate(-56.69 -56.69)"/></g><g id="g2978"><path id="path2980" class="cls-6" d="M699.29,1383.07c-.28-2.83,2.87-5.45,7-5.85s7.76,1.55,8,4.38-2.87,5.44-7,5.85-7.76-1.56-8-4.38" transform="translate(-56.69 -56.69)"/></g><g id="g2982"><path id="path2984" class="cls-6" d="M645.15,1284.41c-.27-2.82,2.88-5.44,7-5.85s7.75,1.56,8,4.39-2.88,5.44-7,5.84-7.75-1.55-8-4.38" transform="translate(-56.69 -56.69)"/></g><g id="g2986"><path id="path2988" class="cls-6" d="M645.15,1237.14c-.28-2.83,2.87-5.44,7-5.85s7.76,1.56,8,4.38-2.87,5.44-7,5.85-7.76-1.56-8-4.38" transform="translate(-56.69 -56.69)"/></g><g id="g2990"><path id="path2992" class="cls-6" d="M751.34,1250.83c-.27-2.82,2.88-5.44,7-5.85s7.75,1.56,8,4.38-2.88,5.45-7,5.85-7.75-1.56-8-4.38" transform="translate(-56.69 -56.69)"/></g><g id="g2994"><path id="path2996" class="cls-6" d="M741.75,1202.19c-.28-2.83,2.87-5.45,7-5.85s7.76,1.56,8,4.38-2.87,5.44-7,5.85-7.76-1.56-8-4.38" transform="translate(-56.69 -56.69)"/></g><g id="g2998"><path id="path3000" class="cls-6" d="M675.29,1166.57c-.28-2.83,2.87-5.45,7-5.85s7.76,1.56,8,4.38-2.87,5.44-7,5.85-7.76-1.56-8-4.38" transform="translate(-56.69 -56.69)"/></g><g id="g3002"><path id="path3004" class="cls-6" d="M622.53,1189.18c-.27-2.82,2.88-5.44,7-5.85s7.75,1.56,8,4.38-2.88,5.45-7,5.85-7.75-1.55-8-4.38" transform="translate(-56.69 -56.69)"/></g><g id="g3006"><path id="path3008" class="cls-6" d="M608.81,1122.59c-.27-2.82,2.57-5.41,6.36-5.78s7.07,1.62,7.35,4.45-2.57,5.41-6.36,5.78-7.07-1.62-7.35-4.45" transform="translate(-56.69 -56.69)"/></g><g id="g3010"><path id="path3012" class="cls-6" d="M545.09,1120.54c-.27-2.82,2.57-5.41,6.36-5.78s7.08,1.62,7.35,4.45-2.57,5.41-6.35,5.78-7.08-1.62-7.36-4.45" transform="translate(-56.69 -56.69)"/></g><g id="g3014"><path id="path3016" class="cls-6" d="M510.83,1056.15c-.27-2.83,2.57-5.42,6.36-5.79s7.07,1.63,7.35,4.45-2.57,5.41-6.36,5.78-7.07-1.62-7.35-4.44" transform="translate(-56.69 -56.69)"/></g><g id="g3018"><path id="path3020" class="cls-6" d="M677.32,1095.18c-.27-2.82,2.57-5.41,6.36-5.78s7.07,1.62,7.35,4.45-2.57,5.41-6.36,5.78-7.07-1.62-7.35-4.45" transform="translate(-56.69 -56.69)"/></g><g id="g3022"><path id="path3024" class="cls-6" d="M712.32,1026.65a6.18,6.18,0,1,1,6.71,5.2,6,6,0,0,1-6.71-5.2" transform="translate(-56.69 -56.69)"/></g><g id="g3026"><path id="path3028" class="cls-6" d="M645.59,1028.5a6.18,6.18,0,1,1,6.7,5.2,6,6,0,0,1-6.7-5.2" transform="translate(-56.69 -56.69)"/></g><g id="g3030"><path id="path3032" class="cls-6" d="M737.62,1131.49c-.28-2.83,2.57-5.42,6.35-5.78s7.08,1.62,7.35,4.44-2.57,5.41-6.35,5.78-7.08-1.62-7.35-4.44" transform="translate(-56.69 -56.69)"/></g><g id="g3034"><path id="path3036" class="cls-6" d="M817.82,1153.09c-.29-2.95,2.38-5.63,6-6s6.71,1.77,7,4.72-2.38,5.64-6,6-6.72-1.76-7-4.72" transform="translate(-56.69 -56.69)"/></g><g id="g3038"><path id="path3040" class="cls-6" d="M883.6,1231.19c-.29-3,2.38-5.63,6-6s6.71,1.77,7,4.72-2.38,5.63-6,6-6.72-1.76-7-4.72" transform="translate(-56.69 -56.69)"/></g><g id="g3042"><path id="path3044" class="cls-6" d="M854.08,1142.33a6.22,6.22,0,1,1,6.74,5.17,6,6,0,0,1-6.74-5.17" transform="translate(-56.69 -56.69)"/></g><g id="g3046"><path id="path3048" class="cls-6" d="M932.93,1050.55c-.34-3.46,1.82-6.5,4.82-6.79s5.7,2.27,6,5.74-1.82,6.5-4.82,6.79-5.7-2.27-6-5.74" transform="translate(-56.69 -56.69)"/></g><g id="g3050"><path id="path3052" class="cls-6" d="M878.12,1040.28c-.34-3.46,1.82-6.5,4.82-6.79s5.7,2.27,6,5.73-1.82,6.51-4.82,6.8-5.7-2.28-6-5.74" transform="translate(-56.69 -56.69)"/></g><g id="g3054"><path id="path3056" class="cls-6" d="M876.92,949.46c-.76-4.07,1-7.82,4-8.37s6,2.29,6.75,6.35-1,7.82-4,8.37-6-2.29-6.75-6.35" transform="translate(-56.69 -56.69)"/></g><g id="g3058"><path id="path3060" class="cls-6" d="M816.63,943.3c-.76-4.07,1-7.82,4-8.37s6,2.29,6.74,6.35-1,7.82-4,8.37-6-2.29-6.75-6.35" transform="translate(-56.69 -56.69)"/></g><g id="g3062"><path id="path3064" class="cls-6" d="M882.26,855.49c-1.68-4.48-1.24-8.8,1-9.63s5.41,2.11,7.09,6.59,1.24,8.8-1,9.64-5.41-2.12-7.09-6.6" transform="translate(-56.69 -56.69)"/></g><g id="g3066"><path id="path3068" class="cls-6" d="M768.93,840.14c-1.45-3.88-.83-7.71,1.4-8.54s5.23,1.63,6.68,5.51.84,7.71-1.4,8.55-5.22-1.63-6.68-5.52" transform="translate(-56.69 -56.69)"/></g><g id="g3070"><path id="path3072" class="cls-6" d="M804.38,730.07c-1.88-5-1.88-9.63,0-10.34s4.93,2.78,6.8,7.78,1.88,9.63,0,10.34-4.92-2.78-6.8-7.78" transform="translate(-56.69 -56.69)"/></g><g id="g3074"><path id="path3076" class="cls-6" d="M759.35,954.12c-.64-3.42,1.24-6.65,4.2-7.21s5.88,1.77,6.53,5.2-1.24,6.66-4.2,7.21-5.88-1.77-6.53-5.2" transform="translate(-56.69 -56.69)"/></g><g id="g3078"><path id="path3080" class="cls-6" d="M1000.22,1002.64c-1.21-3.88-.14-7.66,2.37-8.44s5.54,1.72,6.75,5.6.14,7.65-2.37,8.43-5.54-1.72-6.75-5.59" transform="translate(-56.69 -56.69)"/></g><g id="g3082"><path id="path3084" class="cls-6" d="M550.38,1282.07c-.09-2.63,3.22-4.89,7.39-5s7.64,1.85,7.74,4.49-3.21,4.89-7.39,5-7.64-1.86-7.74-4.49" transform="translate(-56.69 -56.69)"/></g><g id="g3086"><path id="path3088" class="cls-6" d="M493.52,1249.19c-.1-2.64,3.21-4.89,7.38-5s7.65,1.85,7.74,4.49-3.21,4.89-7.39,5-7.64-1.86-7.73-4.49" transform="translate(-56.69 -56.69)"/></g><g id="g3090"><path id="path3092" class="cls-6" d="M445.56,1249.19c-.1-2.63,3.21-4.89,7.39-5s7.64,1.86,7.73,4.49-3.21,4.89-7.39,5-7.64-1.86-7.73-4.49" transform="translate(-56.69 -56.69)"/></g><g id="g3094"><path id="path3096" class="cls-6" d="M431.17,1223.16c-.1-2.63,3.21-4.89,7.39-5s7.64,1.86,7.73,4.49-3.21,4.89-7.39,5-7.64-1.86-7.73-4.49" transform="translate(-56.69 -56.69)"/></g><g id="g3098"><path id="path3100" class="cls-6" d="M366.15,1159c-.39-2.61,2.63-5.23,6.76-5.86s7.81,1,8.21,3.57-2.63,5.22-6.77,5.86-7.8-1-8.2-3.57" transform="translate(-56.69 -56.69)"/></g><g id="g3102"><path id="path3104" class="cls-6" d="M524.42,1192.5c-.4-2.6,2.63-5.22,6.76-5.86s7.81,1,8.2,3.57-2.63,5.23-6.76,5.86-7.8-1-8.2-3.57" transform="translate(-56.69 -56.69)"/></g><g id="g3106"><path id="path3108" class="cls-6" d="M355.4,1454.79c-.2-2.83,2.84-5.36,6.81-5.64s7.34,1.77,7.54,4.6-2.84,5.36-6.8,5.64-7.34-1.77-7.55-4.6" transform="translate(-56.69 -56.69)"/></g><g id="g3110"><path id="path3112" class="cls-6" d="M424.6,1449.3c-.2-2.83,2.84-5.36,6.8-5.64s7.35,1.77,7.55,4.6-2.84,5.36-6.8,5.65-7.34-1.78-7.55-4.61" transform="translate(-56.69 -56.69)"/></g><g id="g3114"><path id="path3116" class="cls-6" d="M489,1465.74c-.21-2.83,2.84-5.36,6.8-5.65s7.34,1.78,7.55,4.61-2.84,5.35-6.81,5.64-7.34-1.77-7.54-4.6" transform="translate(-56.69 -56.69)"/></g><g id="g3118"><path id="path3120" class="cls-6" d="M134.31,1510.63a5.74,5.74,0,1,1,7.69,3.23,5.91,5.91,0,0,1-7.69-3.23" transform="translate(-56.69 -56.69)"/></g></g></g></g></g></svg>