<?xml version="1.0" encoding="utf-8"?>
<!-- Generator: Adobe Illustrator 24.3.0, SVG Export Plug-In . SVG Version: 6.00 Build 0)  -->
<svg version="1.1" xmlns="http://www.w3.org/2000/svg" xmlns:xlink="http://www.w3.org/1999/xlink" x="0px" y="0px"
	 viewBox="0 0 1886.2 1917.7" style="enable-background:new 0 0 1886.2 1917.7;" xml:space="preserve">
<style type="text/css">
	.st0{opacity:0.7;}
	.st1{opacity:0.601;clip-path:url(#SVGID_2_);}
	.st2{fill:none;stroke:#FFFFFF;stroke-width:0.6851;stroke-miterlimit:6.8513;}
	.st3{fill:#FFFFFF;}
</style>
<g id="Layer_2">
</g>
<g id="svg4960" xmlns:cc="http://creativecommons.org/ns#" xmlns:dc="http://purl.org/dc/elements/1.1/" xmlns:rdf="http://www.w3.org/1999/02/22-rdf-syntax-ns#" xmlns:svg="http://www.w3.org/2000/svg">
	<g id="layer1" transform="translate(-156.48689,342.60186)" class="st0">
		<g>
			<defs>
				
					<rect id="SVGID_1_" x="-78.9" y="-66.6" transform="matrix(0.3079 -0.9514 0.9514 0.3079 132.5076 1495.3511)" width="2345.9" height="1446.3"/>
			</defs>
			<clipPath id="SVGID_2_">
				<use xlink:href="#SVGID_1_"  style="overflow:visible;"/>
			</clipPath>
			<g id="g2076" transform="matrix(0.22995921,0.07441082,0.07441082,-0.22995921,117.11904,325.04422)" class="st1">
				<g id="g2082" transform="translate(1811.3169,3140.5527)">
					<path id="path2084" class="st2" d="M4599,848.1c0,0,122.8-204.6,131.6-231.5"/>
				</g>
				<g id="g2086" transform="translate(1581.8535,2936.9932)">
					<path id="path2088" class="st2" d="M4178,474.6c0,0,202.2,56.5,434.4,167.4"/>
				</g>
				<g id="g2090" transform="translate(1811.3169,3140.5527)">
					<path id="path2092" class="st2" d="M4599,848.1c0,0,120.3-187.5,131.6-231.5"/>
				</g>
				<g id="g2094" transform="translate(1868.6563,3042.9688)">
					<path id="path2096" class="st2" d="M4704.2,669.1l124.4-214.5"/>
				</g>
				<g id="g2098" transform="translate(1977.125,3049.1895)">
					<path id="path2100" class="st2" d="M4903.2,680.5c0,0-131-219.1-158.9-240.3"/>
				</g>
				<g id="g2102" transform="translate(1746.7944,2994.0625)">
					<path id="path2104" class="st2" d="M4480.7,579.3l168-133.4"/>
				</g>
				<g id="g2106" transform="translate(1916.063,2951.9395)">
					<path id="path2108" class="st2" d="M4791.2,502.1l-2.4-140.7"/>
				</g>
				<g id="g2110" transform="translate(1905.7651,2898.8115)">
					<path id="path2112" class="st2" d="M4772.3,404.6L4523,522.2"/>
				</g>
				<g id="g2114" transform="translate(1862.1094,2779.3633)">
					<path id="path2116" class="st2" d="M4692.2,185.4c0,0-42.7,200-133.8,444.7"/>
				</g>
				<g id="g2118" transform="translate(1764.6162,2816.3623)">
					<path id="path2120" class="st2" d="M4513.4,253.3c0,0,370.4,180.3,404.9,211.2"/>
				</g>
				<g id="g2122" transform="translate(1762.8853,2807.9736)">
					<path id="path2124" class="st2" d="M4510.2,237.9c0,0,212-103.7,263-94.9"/>
				</g>
				<g id="g2126" transform="translate(1580.8184,2927.3994)">
					<path id="path2128" class="st2" d="M4176.2,457l482.6-316.9"/>
				</g>
				<g id="g2130" transform="translate(1576.3115,2923.1758)">
					<path id="path2132" class="st2" d="M4167.9,449.3c0,0,58.5-227.8,54.1-245.9"/>
				</g>
				<g id="g2134" transform="translate(1604.604,2829.3672)">
					<path id="path2136" class="st2" d="M4219.8,277.2l414.7-47.8"/>
				</g>
				<g id="g2138" transform="translate(1682.2329,2673.9736)">
					<path id="path2140" class="st2" d="M4362.2-7.9c0,0,433.4,216.7,490.2,261.9"/>
				</g>
				<g id="g2142" transform="translate(1680.3135,2666.5645)">
					<path id="path2144" class="st2" d="M4358.7-21.5l315.9-120.8"/>
				</g>
				<g id="g2146" transform="translate(1807.3213,2620.0479)">
					<path id="path2148" class="st2" d="M4591.7-106.8l165.9,73"/>
				</g>
				<g id="g2150" transform="translate(1446.438,2675.0596)">
					<path id="path2152" class="st2" d="M3929.6-5.9L4161,6.4"/>
				</g>
				<g id="g2154" transform="translate(1544.2393,2684.6455)">
					<path id="path2156" class="st2" d="M4109,11.7l221.3,89.5"/>
				</g>
				<g id="g2158" transform="translate(1543.2271,2680.1318)">
					<path id="path2160" class="st2" d="M4107.2,3.4l141.7-305.8"/>
				</g>
				<g id="g2162" transform="translate(1602.0156,2572.5469)">
					<path id="path2164" class="st2" d="M4215-194l191.6,260"/>
				</g>
				<g id="g2166" transform="translate(1605.1782,2564.9873)">
					<path id="path2168" class="st2" d="M4220.8-207.9l412.5-27.7"/>
				</g>
				<g id="g2170" transform="translate(1766.3652,2553.6865)">
					<path id="path2172" class="st2" d="M4516.6-228.6l476.4,14.8"/>
				</g>
				<g id="g2174" transform="translate(1687.6851,2488.2773)">
					<path id="path2176" class="st2" d="M4372.2-348.6L4558-177.8"/>
				</g>
				<g id="g2178" transform="translate(1596.2798,2559.5938)">
					<path id="path2180" class="st2" d="M4204.5-217.8l1.1-229.8"/>
				</g>
				<g id="g2182" transform="translate(1493.624,2557.1338)">
					<path id="path2184" class="st2" d="M4016.2-222.3l265,23.9"/>
				</g>
				<g id="g2186" transform="translate(1404.9663,2488.207)">
					<path id="path2188" class="st2" d="M3853.5-348.7l209.5,181"/>
				</g>
				<g id="g2190" transform="translate(1309.5513,2425.7891)">
					<path id="path2192" class="st2" d="M3678.5-463.2l242.5,153"/>
				</g>
				<g id="g2194" transform="translate(1190.3354,2462.877)">
					<path id="path2196" class="st2" d="M3459.8-395.2l290-111.9"/>
				</g>
				<g id="g2198" transform="translate(1307.0337,2360.1055)">
					<path id="path2200" class="st2" d="M3673.9-583.7l247.5,328.5"/>
				</g>
				<g id="g2202" transform="translate(1482.0239,2548.8867)">
					<path id="path2204" class="st2" d="M3994.9-237.4L3865.5-665"/>
				</g>
				<g id="g2206" transform="translate(1313.0596,2356.502)">
					<path id="path2208" class="st2" d="M3684.9-590.4l327.6,110.6"/>
				</g>
				<g id="g2210" transform="translate(1445.2764,2396.1465)">
					<path id="path2212" class="st2" d="M3927.5-517.6l412.4,208"/>
				</g>
				<g id="g2214" transform="translate(1591.5093,2465.7803)">
					<path id="path2216" class="st2" d="M4195.8-389.9l-170.9-249"/>
				</g>
				<g id="g2218" transform="translate(1606.7534,2473.9336)">
					<path id="path2220" class="st2" d="M4223.7-374.9l184.4,23.1"/>
				</g>
				<g id="g2222" transform="translate(1595.7852,2400.6387)">
					<path id="path2224" class="st2" d="M4203.6-509.4l2.7,188.8"/>
				</g>
				<g id="g2226" transform="translate(1442.8945,2391.207)">
					<path id="path2228" class="st2" d="M3923.1-526.7l223.2-47.4"/>
				</g>
				<g id="g2230" transform="translate(1518.4019,2368.3135)">
					<path id="path2232" class="st2" d="M4061.6-568.7l-20-241.9"/>
				</g>
				<g id="g2234" transform="translate(1518.6104,2283.2432)">
					<path id="path2236" class="st2" d="M4062-724.8l299.6,225.1l-245.4,30.8"/>
				</g>
				<g id="g2238" transform="translate(1519.8423,2279.4375)">
					<path id="path2240" class="st2" d="M4064.3-731.7l643.3,65.2l-324.9,166"/>
				</g>
				<g id="g2242" transform="translate(1309.0703,2350.3242)">
					<path id="path2244" class="st2" d="M3677.6-601.7l558.2-202.7"/>
				</g>
				<g id="g2246" transform="translate(1297.4419,2346.5596)">
					<path id="path2248" class="st2" d="M3656.3-608.6l75.7-170.2"/>
				</g>
				<g id="g2250" transform="translate(1326.3071,2279.8564)">
					<path id="path2252" class="st2" d="M3709.2-731l144-141.1"/>
				</g>
				<g id="g2254" transform="translate(1382.5054,2232.8809)">
					<path id="path2256" class="st2" d="M3812.3-817.2l342.6,119.8"/>
				</g>
				<g id="g2258" transform="translate(1510.917,2271.293)">
					<path id="path2260" class="st2" d="M4047.9-746.7l12.9-269.9"/>
				</g>
				<g id="g2262" transform="translate(1429.394,2151.8594)">
					<path id="path2264" class="st2" d="M3898.3-965.8l221.4,337.7"/>
				</g>
				<g id="g2266" transform="translate(1436.1631,2148.2939)">
					<path id="path2268" class="st2" d="M3910.8-972.3l227.3,61.7"/>
				</g>
				<g id="g2270" transform="translate(1313.1064,2284.6914)">
					<path id="path2272" class="st2" d="M3685-722.1l-404.2-76.2l90.1-158.6l38.8-27.8l257.5-44.8l322.2-85.7l466.3-134.8l37.5-17.1
						l-699.2-49.8l-304.7,67.5l-108.8,271.7l306.9,248.3"/>
				</g>
				<g id="g2274" transform="translate(1319.3105,2180.6689)">
					<path id="path2276" class="st2" d="M3696.4-912.9l163.8,140.1"/>
				</g>
				<g id="g2278" transform="translate(1200.0518,2189.0195)">
					<path id="path2280" class="st2" d="M3477.6-897.6l-218.6-271.8l-342,214"/>
				</g>
				<g id="g2282" transform="translate(1078.0137,2056.5381)">
					<path id="path2284" class="st2" d="M3253.7-1140.7c0,0-3-239.3,32.3-403.7"/>
				</g>
				<g id="g2286" transform="translate(1009.9526,1903.1211)">
					<path id="path2288" class="st2" d="M3128.8-1422.2c0,0,14.8,258.7,180.3,428.2"/>
				</g>
				<g id="g2290" transform="translate(1239.9365,2093.1074)">
					<path id="path2292" class="st2" d="M3550.8-1073.6c0,0-252.3-236.7-411.4-499.6"/>
				</g>
				<g id="g2294" transform="translate(1215.0308,1811.8408)">
					<path id="path2296" class="st2" d="M3505.1-1589.6c0,0-61.8,316.3,70.6,797.3"/>
				</g>
				<g id="g2298" transform="translate(1017.5361,1902.4229)">
					<path id="path2300" class="st2" d="M3142.7-1423.4l210.8,20.6l664.7,155.6c0,0,5.1,177.4,39.4,301.8"/>
				</g>
				<g id="g2302" transform="translate(1410.4692,1993.876)">
					<path id="path2304" class="st2" d="M3863.6-1255.6l-238.3-83.1"/>
				</g>
				<g id="g2306" transform="translate(1220.3208,1801.9922)">
					<path id="path2308" class="st2" d="M3514.8-1607.7c0,0,171,383.1,300.7,460.8"/>
				</g>
				<g id="g2310" transform="translate(1295.311,1843.083)">
					<path id="path2312" class="st2" d="M3652.3-1532.3c0,0,49.3,307.9,88.2,344.4"/>
				</g>
				<g id="g2314" transform="translate(1133.8262,1783.4531)">
					<path id="path2316" class="st2" d="M3356.1-1641.7c0,0-132.8,290.7-115.3,347"/>
				</g>
				<g id="g2318" transform="translate(940.7642,1801.8936)">
					<path id="path2320" class="st2" d="M3001.9-1607.9c0,0,150.1,254.2,199.6,276.2"/>
				</g>
				<g id="g2322" transform="translate(1133.8262,1783.4531)">
					<path id="path2324" class="st2" d="M3356.1-1641.7l245.2,52.6"/>
				</g>
				<g id="g2326" transform="translate(1170.6167,1650.3125)">
					<path id="path2328" class="st2" d="M3423.6-1886c0,0,127.6,342.2,353.5,546.4"/>
				</g>
				<g id="g2330" transform="translate(1335.6318,1679.5527)">
					<path id="path2332" class="st2" d="M3726.3-1832.3c0,0-118.4,301.3-114.3,463.5"/>
				</g>
				<g id="g2334" transform="translate(1176.8862,1643.9336)">
					<path id="path2336" class="st2" d="M3435.1-1897.7L3874-2265"/>
				</g>
				<g id="g2338" transform="translate(1651.0171,3334.3262)">
					<path id="path2340" class="st2" d="M4304.9,1203.6l297.6,17.2"/>
				</g>
				<g id="g2342" transform="translate(1770.8667,3325.5889)">
					<path id="path2344" class="st2" d="M4524.8,1187.6l351.9-350.9"/>
				</g>
				<g id="g2346" transform="translate(1652.7393,3196.958)">
					<path id="path2348" class="st2" d="M4308.1,951.6l405-128.1"/>
				</g>
				<g id="g2350" transform="translate(1811.2373,3152.3242)">
					<path id="path2352" class="st2" d="M4598.9,869.7c0,0,211.2,93.6,239.6,115.9"/>
				</g>
				<g id="g2354" transform="translate(1747.2124,3005.7598)">
					<path id="path2356" class="st2" d="M4481.4,600.8c0,0,357.6,295.6,433.9,514.9"/>
				</g>
				<g id="g2358" transform="translate(1647.2412,3338.7334)">
					<path id="path2360" class="st3" d="M4298,1211.7c13.1-15.9,17.5-34,9.8-40.3c-7.7-6.4-24.6,1.3-37.8,17.3
						c-13.1,15.9-17.5,34-9.8,40.3C4268,1235.3,4284.9,1227.6,4298,1211.7"/>
				</g>
				<g id="g2362" transform="translate(1765.7017,3339.4717)">
					<path id="path2364" class="st3" d="M4515.3,1213c14.7-15.9,21.6-33.6,15.3-39.4c-6.3-5.9-23.4,2.3-38.1,18.2
						c-14.7,15.9-21.6,33.6-15.3,39.4S4500.6,1229,4515.3,1213"/>
				</g>
				<g id="g2366" transform="translate(1906.2446,3200.3047)">
					<path id="path2368" class="st3" d="M4773.2,957.7c12.9-13.9,16.9-31.2,8.9-38.6c-8-7.4-24.9-2.1-37.8,11.8
						c-12.9,13.9-16.9,31.2-8.9,38.6C4743.4,976.9,4760.3,971.6,4773.2,957.7"/>
				</g>
				<g id="g2370" transform="translate(1810.3608,3154.0977)">
					<path id="path2372" class="st3" d="M4597.3,873c10.7-13.8,12-30.8,2.8-37.9s-25.3-1.7-36.1,12.1c-10.7,13.8-12,30.8-2.8,37.9
						C4570.4,892.2,4586.5,886.8,4597.3,873"/>
				</g>
				<g id="g2374" transform="translate(1652.0498,3204.8086)">
					<path id="path2376" class="st3" d="M4306.8,966c10.7-13.8,12-30.8,2.8-37.9c-9.2-7.1-25.3-1.7-36.1,12.1
						c-10.7,13.8-12,30.8-2.8,37.9C4280,985.3,4296.1,979.8,4306.8,966"/>
				</g>
				<g id="g2378" transform="translate(1869.4355,3055.7461)">
					<path id="path2380" class="st3" d="M4705.7,692.5c9.8-12.7,10.2-28.9,0.8-36.1s-25-2.9-34.8,9.8c-9.8,12.7-10.2,28.9-0.8,36.1
						C4680.2,709.6,4695.8,705.2,4705.7,692.5"/>
				</g>
				<g id="g2382" transform="translate(1986.4902,3061.0527)">
					<path id="path2384" class="st3" d="M4920.4,702.2c9.8-12.7,10.2-28.9,0.8-36.1s-25-2.9-34.8,9.8c-9.8,12.7-10.2,28.9-0.8,36.1
						C4895,719.3,4910.6,714.9,4920.4,702.2"/>
				</g>
				<g id="g2386" transform="translate(1922.9727,2963.8096)">
					<path id="path2388" class="st3" d="M4803.9,523.8c8.8-11.3,7.8-26.7-2.1-34.5c-10-7.7-25.2-4.8-33.9,6.5
						c-8.8,11.3-7.8,26.7,2.1,34.5C4779.9,538,4795.1,535.1,4803.9,523.8"/>
				</g>
				<g id="g2390" transform="translate(1818.7915,2947.9551)">
					<path id="path2392" class="st3" d="M4612.7,494.8c8.8-11.3,7.8-26.7-2.1-34.5c-10-7.7-25.2-4.8-33.9,6.5s-7.8,26.7,2.1,34.5
						C4588.8,509,4604,506.1,4612.7,494.8"/>
				</g>
				<g id="g2394" transform="translate(1747.5088,3005.8145)">
					<path id="path2396" class="st3" d="M4482,600.9c8.8-11.3,7.8-26.7-2.1-34.5c-10-7.7-25.2-4.8-33.9,6.5
						c-8.8,11.3-7.8,26.7,2.1,34.5C4458,615.1,4473.2,612.2,4482,600.9"/>
				</g>
				<g id="g2398" transform="translate(1581.625,2937.2871)">
					<path id="path2400" class="st3" d="M4177.6,475.2c8.3-10.7,5.6-26.8-6.1-35.9c-11.7-9.1-28-7.8-36.3,2.9
						c-8.3,10.7-5.6,26.8,6.1,35.9C4153,487.2,4169.3,485.9,4177.6,475.2"/>
				</g>
				<g id="g2402" transform="translate(1604.8818,2835.8389)">
					<path id="path2404" class="st3" d="M4220.3,289.1c7.4-9.6,3.6-24.9-8.5-34.3c-12.1-9.4-27.9-9.3-35.4,0.3
						c-7.4,9.6-3.6,24.9,8.5,34.3C4197,298.8,4212.9,298.6,4220.3,289.1"/>
				</g>
				<g id="g2406" transform="translate(1764.1113,2818.0098)">
					<path id="path2408" class="st3" d="M4512.4,256.3c7.4-9.6,3.6-24.9-8.5-34.3c-12.1-9.4-27.9-9.3-35.3,0.3
						c-7.4,9.6-3.6,24.9,8.5,34.3C4489.2,266,4505,265.9,4512.4,256.3"/>
				</g>
				<g id="g2410" transform="translate(1870.6514,2777.8691)">
					<path id="path2412" class="st3" d="M4707.9,182.7c7.4-9.6,3.6-24.9-8.5-34.3c-12.1-9.4-27.9-9.3-35.4,0.3
						c-7.4,9.6-3.6,24.9,8.5,34.3C4684.6,192.4,4700.5,192.3,4707.9,182.7"/>
				</g>
				<g id="g2414" transform="translate(1683.124,2672.8428)">
					<path id="path2416" class="st3" d="M4363.8-10c3.6-11.2-6.1-24.3-21.8-29.4c-15.6-5.1-31.2-0.1-34.9,11.1
						c-3.6,11.2,6.1,24.3,21.8,29.4C4344.6,6.1,4360.2,1.2,4363.8-10"/>
				</g>
				<g id="g2418" transform="translate(1809.1978,2624.3096)">
					<path id="path2420" class="st3" d="M4595.1-99c3.6-11.2-6.1-24.3-21.8-29.4c-15.6-5.1-31.2-0.1-34.9,11.1
						c-3.6,11.2,6.1,24.3,21.8,29.4C4575.9-82.9,4591.5-87.9,4595.1-99"/>
				</g>
				<g id="g2422" transform="translate(1885.3369,2652.1094)">
					<path id="path2424" class="st3" d="M4734.8-48c3.6-11.2-6.1-24.3-21.8-29.4s-31.2-0.1-34.9,11.1c-3.6,11.2,6.1,24.3,21.8,29.4
						C4715.6-31.9,4731.2-36.9,4734.8-48"/>
				</g>
				<g id="g2426" transform="translate(1951.5635,2564.251)">
					<path id="path2428" class="st3" d="M4856.3-209.2c4.7-10.8-3.7-24.8-18.8-31.4c-15.1-6.6-31.1-3.1-35.8,7.6
						c-4.7,10.8,3.7,24.8,18.8,31.4C4835.6-195,4851.7-198.4,4856.3-209.2"/>
				</g>
				<g id="g2430" transform="translate(1768.4111,2558.5713)">
					<path id="path2432" class="st3" d="M4520.3-219.6c4.7-10.8-3.7-24.8-18.8-31.4c-15.1-6.6-31.1-3.1-35.8,7.6
						c-4.7,10.8,3.7,24.8,18.8,31.4C4499.6-205.4,4515.6-208.9,4520.3-219.6"/>
				</g>
				<g id="g2434" transform="translate(1688.1089,2488.4316)">
					<path id="path2436" class="st3" d="M4373-348.3c4.7-10.8-3.7-24.8-18.8-31.4c-15.1-6.6-31.1-3.1-35.8,7.6
						c-4.7,10.8,3.7,24.8,18.8,31.4C4352.3-334.1,4368.3-337.5,4373-348.3"/>
				</g>
				<g id="g2438" transform="translate(1605.9644,2570.1035)">
					<path id="path2440" class="st3" d="M4222.3-198.5c4.7-10.8-3.7-24.8-18.8-31.4c-15.1-6.6-31.1-3.1-35.8,7.6
						c-4.7,10.8,3.7,24.8,18.8,31.4C4201.6-184.3,4217.6-187.7,4222.3-198.5"/>
				</g>
				<g id="g2442" transform="translate(1606.7832,2476.9336)">
					<path id="path2444" class="st3" d="M4223.8-369.4c4.7-10.8-4.4-25.1-20.2-32c-15.9-6.9-32.5-3.8-37.2,7
						c-4.7,10.8,4.4,25.1,20.2,32C4202.5-355.5,4219.1-358.6,4223.8-369.4"/>
				</g>
				<g id="g2446" transform="translate(1493.6606,2560.1396)">
					<path id="path2448" class="st3" d="M4016.2-216.8c4.7-10.8-4.4-25.1-20.2-32c-15.9-6.9-32.5-3.8-37.2,7
						c-4.7,10.8,4.4,25.1,20.2,32C3994.9-202.8,4011.6-206,4016.2-216.8"/>
				</g>
				<g id="g2450" transform="translate(1409.2173,2486.5586)">
					<path id="path2452" class="st3" d="M3861.3-351.7c4.7-10.8-4.4-25.1-20.2-32c-15.9-6.9-32.5-3.8-37.2,7
						c-4.7,10.8,4.4,25.1,20.2,32C3840-337.8,3856.6-341,3861.3-351.7"/>
				</g>
				<g id="g2454" transform="translate(1309.0728,2425.7627)">
					<path id="path2456" class="st3" d="M3677.6-463.3c4.7-10.8-4.4-25.1-20.2-32c-15.9-6.9-32.5-3.8-37.2,7
						c-4.7,10.8,4.4,25.1,20.2,32C3656.3-449.4,3672.9-452.5,3677.6-463.3"/>
				</g>
				<g id="g2458" transform="translate(1193.0742,2469.1475)">
					<path id="path2460" class="st3" d="M3464.8-383.7c4.7-10.8-4.4-25.1-20.2-32c-15.9-6.9-32.5-3.8-37.2,7
						c-4.7,10.8,4.4,25.1,20.2,32C3443.4-369.8,3460.1-372.9,3464.8-383.7"/>
				</g>
				<g id="g2462" transform="translate(1312.5811,2356.4756)">
					<path id="path2464" class="st3" d="M3684-590.4c4.7-10.8-4.4-25.1-20.2-32c-15.9-6.9-32.5-3.8-37.2,7
						c-4.7,10.8,4.4,25.1,20.2,32C3662.7-576.5,3679.4-579.6,3684-590.4"/>
				</g>
				<g id="g2466" transform="translate(1333.8306,2290.8291)">
					<path id="path2468" class="st3" d="M3723-710.8c4.7-10.8-4.4-25.1-20.2-32c-15.9-6.9-32.5-3.8-37.2,7
						c-4.7,10.8,4.4,25.1,20.2,32C3701.7-696.9,3718.3-700.1,3723-710.8"/>
				</g>
				<g id="g2470" transform="translate(1180.2046,2262.123)">
					<path id="path2472" class="st3" d="M3441.2-763.5c4.7-10.8-4.4-25.1-20.2-32c-15.9-6.9-32.5-3.8-37.2,7
						c-4.7,10.8,4.4,25.1,20.2,32C3419.8-749.6,3436.5-752.7,3441.2-763.5"/>
				</g>
				<g id="g2474" transform="translate(1215.3896,2198.8848)">
					<path id="path2476" class="st3" d="M3505.7-879.5c4.7-10.8-4.4-25.1-20.2-32c-15.9-6.9-32.5-3.8-37.2,7
						c-4.7,10.8,4.4,25.1,20.2,32C3484.4-865.6,3501-868.8,3505.7-879.5"/>
				</g>
				<g id="g2478" transform="translate(1323.6895,2179.2852)">
					<path id="path2480" class="st3" d="M3704.4-915.5c4.7-10.8-4.4-25.1-20.2-32c-15.9-6.9-32.5-3.8-37.2,7
						c-4.7,10.8,4.4,25.1,20.2,32C3683.1-901.6,3699.7-904.7,3704.4-915.5"/>
				</g>
				<g id="g2482" transform="translate(1386.7842,2234.3945)">
					<path id="path2484" class="st3" d="M3820.2-814.4c4.7-10.8-4.4-25.1-20.2-32c-15.9-6.9-32.5-3.8-37.2,7
						c-4.7,10.8,4.4,25.1,20.2,32C3798.8-800.5,3815.5-803.6,3820.2-814.4"/>
				</g>
				<g id="g2486" transform="translate(1435.7617,2148.0898)">
					<path id="path2488" class="st3" d="M3910-972.7c4.7-10.8-3.2-24.6-17.7-30.9c-14.4-6.3-29.9-2.6-34.6,8.1
						c-4.7,10.8,3.2,24.6,17.7,30.9C3889.9-958.3,3905.3-962,3910-972.7"/>
				</g>
				<g id="g2490" transform="translate(1525.1655,2173.876)">
					<path id="path2492" class="st3" d="M4074-925.4c4.7-10.8-3.2-24.6-17.7-30.9c-14.4-6.3-29.9-2.6-34.6,8.1
						c-4.7,10.8,3.2,24.6,17.7,30.9C4053.9-911,4069.4-914.6,4074-925.4"/>
				</g>
				<g id="g2494" transform="translate(1601.6841,2099.8428)">
					<path id="path2496" class="st3" d="M4214.4-1061.2c4.7-10.8-3.2-24.6-17.7-30.9c-14.4-6.3-29.9-2.6-34.6,8.1
						c-4.7,10.8,3.2,24.6,17.7,30.9C4194.3-1046.8,4209.8-1050.5,4214.4-1061.2"/>
				</g>
				<g id="g2498" transform="translate(1352.9404,2079.2383)">
					<path id="path2500" class="st3" d="M3758.1-1099c4.7-10.8-3.2-24.6-17.7-30.9c-14.4-6.3-29.9-2.6-34.6,8.1
						c-4.7,10.8,3.2,24.6,17.7,30.9C3737.9-1084.6,3753.4-1088.3,3758.1-1099"/>
				</g>
				<g id="g2502" transform="translate(1335.1294,1968.3477)">
					<path id="path2504" class="st3" d="M3725.4-1302.5c5.3-12.2-0.9-26.7-13.8-32.3c-12.9-5.6-27.7-0.3-33,11.9
						c-5.3,12.2,0.9,26.7,13.8,32.3C3705.3-1284.9,3720.1-1290.3,3725.4-1302.5"/>
				</g>
				<g id="g2506" transform="translate(1426.9771,2000.8955)">
					<path id="path2508" class="st3" d="M3893.9-1242.8c5.3-12.2-0.9-26.7-13.8-32.3c-12.9-5.6-27.7-0.3-33,11.9
						c-5.3,12.2,0.9,26.7,13.8,32.3C3873.8-1225.2,3888.6-1230.6,3893.9-1242.8"/>
				</g>
				<g id="g2510" transform="translate(1252.8955,2102.5615)">
					<path id="path2512" class="st3" d="M3574.5-1056.2c4.7-10.8-3.2-24.6-17.7-30.9c-14.4-6.3-29.9-2.6-34.6,8.1
						c-4.7,10.8,3.2,24.6,17.7,30.9C3554.4-1041.8,3569.8-1045.5,3574.5-1056.2"/>
				</g>
				<g id="g2514" transform="translate(1131.8145,2096.5303)">
					<path id="path2516" class="st3" d="M3352.4-1067.3c4.9-11.3-2.2-25.2-15.8-31.1c-13.6-5.9-28.7-1.6-33.6,9.7
						c-4.9,11.3,2.2,25.2,15.8,31.1C3332.5-1051.7,3347.5-1056,3352.4-1067.3"/>
				</g>
				<g id="g2518" transform="translate(1005.3726,2175.4248)">
					<path id="path2520" class="st3" d="M3120.4-922.6c4.9-11.3-2.2-25.2-15.8-31.1c-13.6-5.9-28.7-1.6-33.6,9.7
						c-4.9,11.3,2.2,25.2,15.8,31.1C3100.5-907,3115.5-911.3,3120.4-922.6"/>
				</g>
				<g id="g2522" transform="translate(1086.2905,2065.291)">
					<path id="path2524" class="st3" d="M3268.9-1124.6c5.3-12.1-1-26.6-14-32.2c-13-5.7-27.8-0.4-33.1,11.7
						c-5.3,12.1,1,26.6,14,32.2C3248.8-1107.2,3263.6-1112.5,3268.9-1124.6"/>
				</g>
				<g id="g2526" transform="translate(1018.0337,1902.4053)">
					<path id="path2528" class="st3" d="M3143.6-1423.5c5.7-13.2,1.1-27.9-10.3-32.9c-11.4-5-25.4,1.7-31.1,14.9
						c-5.7,13.2-1.1,27.9,10.3,32.9C3124-1403.6,3137.9-1410.3,3143.6-1423.5"/>
				</g>
				<g id="g2530" transform="translate(1098.7646,1912.7715)">
					<path id="path2532" class="st3" d="M3291.8-1404.4c5.7-13.2,1.1-27.9-10.3-32.9c-11.4-5-25.4,1.7-31.1,14.9
						c-5.7,13.2-1.1,27.9,10.3,32.9C3272.1-1384.6,3286-1391.2,3291.8-1404.4"/>
				</g>
				<g id="g2534" transform="translate(1141.2393,1787.1797)">
					<path id="path2536" class="st3" d="M3369.7-1634.9c8.2-15,5.9-32.1-5-38c-10.9-6-26.5,1.4-34.6,16.4c-8.2,15-5.9,32.1,5,38
						C3346-1612.5,3361.5-1619.8,3369.7-1634.9"/>
				</g>
				<g id="g2538" transform="translate(1227.7339,1805.7178)">
					<path id="path2540" class="st3" d="M3528.4-1600.9c8.2-15,5.9-32.1-5-38c-10.9-6-26.5,1.4-34.6,16.4c-8.2,15-5.9,32.1,5,38
						C3504.7-1578.5,3520.2-1585.8,3528.4-1600.9"/>
				</g>
				<g id="g2542" transform="translate(1176.0527,1654.291)">
					<path id="path2544" class="st3" d="M3433.6-1878.7c12.3-15.5,16.1-33,8.4-39.2c-7.7-6.1-24,1.4-36.3,16.9
						c-12.3,15.5-16.1,33-8.4,39.2C3405-1855.6,3421.2-1863.2,3433.6-1878.7"/>
				</g>
				<g id="g2546" transform="translate(1340.3223,1683.9033)">
					<path id="path2548" class="st3" d="M3734.9-1824.3c10.7-13.4,13.1-29.3,5.4-35.4c-7.7-6.1-22.6-0.2-33.3,13.2
						c-10.7,13.4-13.1,29.3-5.4,35.4C3709.3-1805,3724.2-1810.9,3734.9-1824.3"/>
				</g>
				<g id="g2550" transform="translate(1340.561,1515.1162)">
					<path id="path2552" class="st3" d="M3735.4-2134c13.8-17.3,19.7-35.5,13.2-40.7c-6.5-5.2-22.9,4.7-36.7,22
						c-13.8,17.3-19.7,35.5-13.2,40.7C3705.2-2106.9,3721.6-2116.7,3735.4-2134"/>
				</g>
				<g id="g2554" transform="translate(1302.4072,1846.4922)">
					<path id="path2556" class="st3" d="M3665.4-1526c6.9-12.7,3.6-27.8-7.3-33.7c-10.9-6-25.4-0.5-32.3,12.1
						c-6.9,12.7-3.6,27.8,7.3,33.7C3644-1507.9,3658.5-1513.4,3665.4-1526"/>
				</g>
				<g id="g2558" transform="translate(946.1191,1805.627)">
					<path id="path2560" class="st3" d="M3011.7-1601c9.7-13.7,10.3-29.9,1.4-36.2c-8.9-6.3-24-0.3-33.7,13.4
						c-9.7,13.7-10.3,29.9-1.4,36.2C2986.9-1581.3,3002-1587.3,3011.7-1601"/>
				</g>
				<g id="g2562" transform="translate(1445.2388,2395.8027)">
					<path id="path2564" class="st3" d="M3927.4-518.3c3.7-10.2-6.4-23.3-22.7-29.3c-16.2-5.9-32.4-2.4-36.2,7.8
						c-3.7,10.2,6.4,23.3,22.7,29.3C3907.5-504.5,3923.7-508,3927.4-518.3"/>
				</g>
				<g id="g2566" transform="translate(1538.9868,2375.6963)">
					<path id="path2568" class="st3" d="M4099.4-555.1c3.7-10.2-6.4-23.3-22.7-29.3c-16.2-5.9-32.4-2.4-36.2,7.8
						c-3.7,10.2,6.4,23.3,22.7,29.3C4079.5-541.4,4095.7-544.9,4099.4-555.1"/>
				</g>
				<g id="g2570" transform="translate(1605.585,2397.2539)">
					<path id="path2572" class="st3" d="M4221.6-515.6c3.7-10.2-6.4-23.3-22.7-29.3c-16.2-5.9-32.4-2.4-36.2,7.8
						c-3.7,10.2,6.4,23.3,22.7,29.3C4201.7-501.8,4217.9-505.4,4221.6-515.6"/>
				</g>
				<g id="g2574" transform="translate(1637.2671,2367.5684)">
					<path id="path2576" class="st3" d="M4279.7-570.1c3.7-10.2-6.4-23.3-22.7-29.3s-32.4-2.4-36.2,7.8
						c-3.7,10.2,6.4,23.3,22.7,29.3C4259.8-556.3,4276-559.8,4279.7-570.1"/>
				</g>
				<g id="g2578" transform="translate(1756.4023,2307.6113)">
					<path id="path2580" class="st3" d="M4498.3-680.1c4.9-9.7-3.7-23.9-19.2-31.7c-15.5-7.7-31.9-6.1-36.8,3.6
						c-4.9,9.7,3.7,23.9,19.2,31.7C4476.9-668.7,4493.4-670.3,4498.3-680.1"/>
				</g>
				<g id="g2582" transform="translate(1521.5391,2283.0898)">
					<path id="path2584" class="st3" d="M4067.4-725c4.9-9.7-3.7-23.9-19.2-31.7c-15.5-7.7-31.9-6.1-36.8,3.6
						c-4.9,9.7,3.7,23.9,19.2,31.7C4046-713.7,4062.5-715.3,4067.4-725"/>
				</g>
				<g id="g2586" transform="translate(1638.3901,2723.2773)">
					<path id="path2588" class="st3" d="M4281.8,82.5c4.4-10.9-4.4-24.7-19.6-30.9c-15.2-6.2-31.2-2.4-35.6,8.5
						c-4.4,10.9,4.4,24.7,19.6,30.9C4261.4,97.2,4277.4,93.4,4281.8,82.5"/>
				</g>
				<g id="g2590" transform="translate(1544.7627,2684.5625)">
					<path id="path2592" class="st3" d="M4110,11.5c4.4-10.9-4.4-24.7-19.6-30.9c-15.2-6.2-31.2-2.4-35.6,8.5
						c-4.4,10.9,4.4,24.7,19.6,30.9C4089.7,26.2,4105.6,22.4,4110,11.5"/>
				</g>
				<g id="g2594" transform="translate(1447.9399,2678.4473)">
					<path id="path2596" class="st3" d="M3932.4,0.3c4.4-10.9-4.4-24.7-19.6-30.9c-15.2-6.2-31.2-2.4-35.6,8.5
						c-4.4,10.9,4.4,24.7,19.6,30.9C3912,15,3928,11.2,3932.4,0.3"/>
				</g>
				<g id="g2598" transform="translate(1920.3223,2900.168)">
					<path id="path2600" class="st3" d="M4799,407.1c9.2-10.3,8.8-25.8-1-34.5c-9.8-8.7-25.1-7.4-34.4,2.9
						c-9.2,10.3-8.8,25.8,1,34.5C4774.4,418.7,4789.8,417.4,4799,407.1"/>
				</g>
				<g id="g2602" transform="translate(278.8826,400.4678)">
					<path id="path2604" class="st2" d="M1787.6-4179c0,0-122.8,204.6-131.6,231.5"/>
				</g>
				<g id="g2606" transform="translate(508.3462,604.0273)">
					<path id="path2608" class="st2" d="M2208.5-3805.5c0,0-202.2-56.5-434.4-167.4"/>
				</g>
				<g id="g2610" transform="translate(278.8826,400.4678)">
					<path id="path2612" class="st2" d="M1787.6-4179c0,0-120.3,187.5-131.6,231.5"/>
				</g>
				<g id="g2614" transform="translate(221.5435,498.0527)">
					<path id="path2616" class="st2" d="M1682.4-4000l-124.4,214.5"/>
				</g>
				<g id="g2618" transform="translate(113.0747,491.8311)">
					<path id="path2620" class="st2" d="M1483.4-4011.4c0,0,131,219.1,158.9,240.3"/>
				</g>
				<g id="g2622" transform="translate(343.4048,546.958)">
					<path id="path2624" class="st2" d="M1905.9-3910.2l-168,133.4"/>
				</g>
				<g id="g2626" transform="translate(174.1367,589.0811)">
					<path id="path2628" class="st2" d="M1595.4-3833l2.4,140.7"/>
				</g>
				<g id="g2630" transform="translate(184.4346,642.209)">
					<path id="path2632" class="st2" d="M1614.3-3735.5l249.4-117.7"/>
				</g>
				<g id="g2634" transform="translate(228.0903,761.6572)">
					<path id="path2636" class="st2" d="M1694.4-3516.3c0,0,42.7-200,133.8-444.7"/>
				</g>
				<g id="g2638" transform="translate(325.5835,724.6582)">
					<path id="path2640" class="st2" d="M1873.2-3584.2c0,0-370.4-180.3-404.9-211.2"/>
				</g>
				<g id="g2642" transform="translate(327.3145,733.0469)">
					<path id="path2644" class="st2" d="M1876.4-3568.8c0,0-212,103.7-263,94.9"/>
				</g>
				<g id="g2646" transform="translate(509.3809,613.6221)">
					<path id="path2648" class="st2" d="M2210.4-3787.9l-482.6,316.9"/>
				</g>
				<g id="g2650" transform="translate(513.8882,617.8447)">
					<path id="path2652" class="st2" d="M2218.7-3780.2c0,0-58.5,227.8-54.1,245.9"/>
				</g>
				<g id="g2654" transform="translate(485.5957,711.6533)">
					<path id="path2656" class="st2" d="M2166.8-3608.1l-414.7,47.8"/>
				</g>
				<g id="g2658" transform="translate(407.9668,867.0469)">
					<path id="path2660" class="st2" d="M2024.4-3323c0,0-433.4-216.7-490.2-261.9"/>
				</g>
				<g id="g2662" transform="translate(409.8857,874.4561)">
					<path id="path2664" class="st2" d="M2027.9-3309.4L1712-3188.6"/>
				</g>
				<g id="g2666" transform="translate(282.8784,920.9736)">
					<path id="path2668" class="st2" d="M1794.9-3224l-165.9-73"/>
				</g>
				<g id="g2670" transform="translate(643.7617,865.9609)">
					<path id="path2672" class="st2" d="M2457-3325l-231.4-12.3"/>
				</g>
				<g id="g2674" transform="translate(545.96,856.376)">
					<path id="path2676" class="st2" d="M2277.6-3342.6l-221.3-89.5"/>
				</g>
				<g id="g2678" transform="translate(546.9727,860.8887)">
					<path id="path2680" class="st2" d="M2279.4-3334.3l-141.7,305.8"/>
				</g>
				<g id="g2682" transform="translate(488.1841,968.4736)">
					<path id="path2684" class="st2" d="M2171.6-3136.9l-191.6-260"/>
				</g>
				<g id="g2686" transform="translate(485.0215,976.0342)">
					<path id="path2688" class="st2" d="M2165.8-3123l-412.5,27.7"/>
				</g>
				<g id="g2690" transform="translate(323.834,987.334)">
					<path id="path2692" class="st2" d="M1870-3102.3l-476.4-14.8"/>
				</g>
				<g id="g2694" transform="translate(402.5146,1052.7441)">
					<path id="path2696" class="st2" d="M2014.4-2982.3l-185.8-170.8"/>
				</g>
				<g id="g2698" transform="translate(493.9199,981.4268)">
					<path id="path2700" class="st2" d="M2182.1-3113.1l-1.1,229.8"/>
				</g>
				<g id="g2702" transform="translate(596.5752,983.8877)">
					<path id="path2704" class="st2" d="M2370.4-3108.6l-265-23.9"/>
				</g>
				<g id="g2706" transform="translate(685.2334,1052.8145)">
					<path id="path2708" class="st2" d="M2533.1-2982.2l-209.5-181"/>
				</g>
				<g id="g2710" transform="translate(780.6484,1115.2324)">
					<path id="path2712" class="st2" d="M2708.1-2867.6l-242.5-153"/>
				</g>
				<g id="g2714" transform="translate(899.8643,1078.1436)">
					<path id="path2716" class="st2" d="M2926.8-2935.7l-290,111.9"/>
				</g>
				<g id="g2718" transform="translate(783.166,1180.915)">
					<path id="path2720" class="st2" d="M2712.7-2747.1l-247.5-328.5"/>
				</g>
				<g id="g2722" transform="translate(608.1753,992.1338)">
					<path id="path2724" class="st2" d="M2391.7-3093.5l129.4,427.6"/>
				</g>
				<g id="g2726" transform="translate(777.1401,1184.5186)">
					<path id="path2728" class="st2" d="M2701.7-2740.5l-327.6-110.6"/>
				</g>
				<g id="g2730" transform="translate(644.9229,1144.874)">
					<path id="path2732" class="st2" d="M2459.1-2813.3l-412.4-208"/>
				</g>
				<g id="g2734" transform="translate(498.6904,1075.2402)">
					<path id="path2736" class="st2" d="M2190.8-2941l170.9,249"/>
				</g>
				<g id="g2738" transform="translate(483.4463,1067.0869)">
					<path id="path2740" class="st2" d="M2162.9-2956l-184.4-23.1"/>
				</g>
				<g id="g2742" transform="translate(494.4146,1140.3828)">
					<path id="path2744" class="st2" d="M2183-2821.5l-2.7-188.8"/>
				</g>
				<g id="g2746" transform="translate(647.3047,1149.8135)">
					<path id="path2748" class="st2" d="M2463.5-2804.2l-223.2,47.4"/>
				</g>
				<g id="g2750" transform="translate(571.7974,1172.707)">
					<path id="path2752" class="st2" d="M2325-2762.2l20,241.9"/>
				</g>
				<g id="g2754" transform="translate(571.5889,1257.7773)">
					<path id="path2756" class="st2" d="M2324.6-2606.1L2025-2831.2l245.4-30.8"/>
				</g>
				<g id="g2758" transform="translate(570.3569,1261.583)">
					<path id="path2760" class="st2" d="M2322.3-2599.1l-643.3-65.2l324.9-166"/>
				</g>
				<g id="g2762" transform="translate(781.1289,1190.6973)">
					<path id="path2764" class="st2" d="M2709-2729.2l-558.2,202.7"/>
				</g>
				<g id="g2766" transform="translate(792.7578,1194.4609)">
					<path id="path2768" class="st2" d="M2730.3-2722.3l-75.7,170.2"/>
				</g>
				<g id="g2770" transform="translate(763.8921,1261.1641)">
					<path id="path2772" class="st2" d="M2677.4-2599.9l-144,141.1"/>
				</g>
				<g id="g2774" transform="translate(707.6938,1308.1406)">
					<path id="path2776" class="st2" d="M2574.3-2513.7l-342.6-119.8"/>
				</g>
				<g id="g2778" transform="translate(579.2827,1269.7275)">
					<path id="path2780" class="st2" d="M2338.7-2584.2l-12.9,269.9"/>
				</g>
				<g id="g2782" transform="translate(660.8057,1389.1611)">
					<path id="path2784" class="st2" d="M2488.3-2365.1l-221.4-337.7"/>
				</g>
				<g id="g2786" transform="translate(654.0366,1392.7266)">
					<path id="path2788" class="st2" d="M2475.8-2358.5l-227.3-61.7"/>
				</g>
				<g id="g2790" transform="translate(777.0928,1256.3291)">
					<path id="path2792" class="st2" d="M2701.6-2608.8l404.2,76.2l-90.1,158.6l-38.8,27.8l-257.5,44.8l-322.2,85.7l-466.3,134.8
						l-37.5,17.1l699.2,49.8l304.7-67.5l108.8-271.7l-306.9-248.3"/>
				</g>
				<g id="g2794" transform="translate(770.8892,1360.3516)">
					<path id="path2796" class="st2" d="M2690.2-2417.9L2526.4-2558"/>
				</g>
				<g id="g2798" transform="translate(890.1475,1352.001)">
					<path id="path2800" class="st2" d="M2909-2433.3l218.6,271.8l342-214"/>
				</g>
				<g id="g2802" transform="translate(1012.1855,1484.4834)">
					<path id="path2804" class="st2" d="M3132.9-2190.2c0,0,3,239.3-32.3,403.7"/>
				</g>
				<g id="g2806" transform="translate(1080.2471,1637.8994)">
					<path id="path2808" class="st2" d="M3257.8-1908.7c0,0-14.8-258.7-180.3-428.2"/>
				</g>
				<g id="g2810" transform="translate(850.2632,1447.9131)">
					<path id="path2812" class="st2" d="M2835.8-2257.3c0,0,252.3,236.7,411.4,499.6"/>
				</g>
				<g id="g2814" transform="translate(875.1689,1729.1797)">
					<path id="path2816" class="st2" d="M2881.5-1741.3c0,0,61.8-316.3-70.6-797.3"/>
				</g>
				<g id="g2818" transform="translate(1072.6631,1638.5986)">
					<path id="path2820" class="st2" d="M3243.9-1907.5L3033-1928l-664.7-155.6c0,0-5.1-177.4-39.4-301.8"/>
				</g>
				<g id="g2822" transform="translate(679.7305,1547.1445)">
					<path id="path2824" class="st2" d="M2523-2075.2l238.3,83.1"/>
				</g>
				<g id="g2826" transform="translate(869.8784,1739.0293)">
					<path id="path2828" class="st2" d="M2871.8-1723.2c0,0-171-383.1-300.7-460.8"/>
				</g>
				<g id="g2830" transform="translate(794.8887,1697.9375)">
					<path id="path2832" class="st2" d="M2734.2-1798.6c0,0-49.3-307.9-88.2-344.4"/>
				</g>
				<g id="g2834" transform="translate(956.373,1757.5674)">
					<path id="path2836" class="st2" d="M3030.5-1689.2c0,0,132.8-290.7,115.3-347"/>
				</g>
				<g id="g2838" transform="translate(1149.4351,1739.127)">
					<path id="path2840" class="st2" d="M3384.7-1723c0,0-150.1-254.2-199.6-276.2"/>
				</g>
				<g id="g2842" transform="translate(956.373,1757.5674)">
					<path id="path2844" class="st2" d="M3030.5-1689.2l-245.2-52.5"/>
				</g>
				<g id="g2846" transform="translate(919.5825,1890.708)">
					<path id="path2848" class="st2" d="M2963-1444.9c0,0-127.6-342.2-353.5-546.4"/>
				</g>
				<g id="g2850" transform="translate(754.5674,1861.4688)">
					<path id="path2852" class="st2" d="M2660.3-1498.6c0,0,118.4-301.3,114.3-463.6"/>
				</g>
				<g id="g2854" transform="translate(913.3135,1897.0879)">
					<path id="path2856" class="st2" d="M2951.5-1433.2l-438.9,367.3"/>
				</g>
				<g id="g2858" transform="translate(439.1826,206.6943)">
					<path id="path2860" class="st2" d="M2081.7-4534.5l-297.6-17.2"/>
				</g>
				<g id="g2862" transform="translate(319.3325,215.4316)">
					<path id="path2864" class="st2" d="M1861.8-4518.5l-351.9,350.9"/>
				</g>
				<g id="g2866" transform="translate(437.4604,344.0625)">
					<path id="path2868" class="st2" d="M2078.5-4282.5l-405,128.1"/>
				</g>
				<g id="g2870" transform="translate(278.9622,388.6963)">
					<path id="path2872" class="st2" d="M1787.7-4200.6c0,0-211.2-93.6-239.6-115.9"/>
				</g>
				<g id="g2874" transform="translate(342.9868,535.2607)">
					<path id="path2876" class="st2" d="M1905.2-3931.7c0,0-357.6-295.6-433.9-514.9"/>
				</g>
				<g id="g2878" transform="translate(442.9585,202.2871)">
					<path id="path2880" class="st3" d="M2088.6-4542.6c-13.1,15.9-17.5,34-9.8,40.3c7.7,6.4,24.6-1.3,37.8-17.3
						c13.1-15.9,17.5-34,9.8-40.3C2118.6-4566.2,2101.7-4558.5,2088.6-4542.6"/>
				</g>
				<g id="g2882" transform="translate(324.4976,201.5488)">
					<path id="path2884" class="st3" d="M1871.3-4543.9c-14.7,15.9-21.6,33.6-15.3,39.4c6.3,5.9,23.4-2.3,38.1-18.2
						c14.7-15.9,21.6-33.6,15.3-39.4C1903.1-4568,1886-4559.8,1871.3-4543.9"/>
				</g>
				<g id="g2886" transform="translate(183.9551,340.7158)">
					<path id="path2888" class="st3" d="M1613.4-4288.6c-12.9,13.9-16.9,31.2-8.9,38.6c8,7.4,24.9,2.1,37.8-11.8
						c12.9-13.9,16.9-31.2,8.9-38.6C1643.2-4307.8,1626.3-4302.5,1613.4-4288.6"/>
				</g>
				<g id="g2890" transform="translate(279.8386,386.9229)">
					<path id="path2892" class="st3" d="M1789.3-4203.8c-10.7,13.8-12,30.8-2.8,37.9c9.2,7.1,25.3,1.7,36.1-12.1
						c10.7-13.8,12-30.8,2.8-37.9C1816.2-4223.1,1800.1-4217.7,1789.3-4203.8"/>
				</g>
				<g id="g2894" transform="translate(438.1499,336.2119)">
					<path id="path2896" class="st3" d="M2079.8-4296.9c-10.7,13.8-12,30.8-2.8,37.9c9.2,7.1,25.3,1.7,36.1-12.1
						c10.7-13.8,12-30.8,2.8-37.9C2106.6-4316.1,2090.5-4310.7,2079.8-4296.9"/>
				</g>
				<g id="g2898" transform="translate(220.7642,485.2744)">
					<path id="path2900" class="st3" d="M1680.9-4023.4c-9.8,12.7-10.2,28.9-0.8,36.1c9.4,7.3,25,2.9,34.8-9.8
						c9.8-12.7,10.2-28.9,0.8-36.1C1706.4-4040.5,1690.8-4036.1,1680.9-4023.4"/>
				</g>
				<g id="g2902" transform="translate(103.7092,479.9678)">
					<path id="path2904" class="st3" d="M1466.2-4033.1c-9.8,12.7-10.2,28.9-0.8,36.1c9.4,7.3,25,2.9,34.8-9.8
						c9.8-12.7,10.2-28.9,0.8-36.1C1491.6-4050.2,1476-4045.8,1466.2-4033.1"/>
				</g>
				<g id="g2906" transform="translate(167.2271,577.2109)">
					<path id="path2908" class="st3" d="M1582.7-3854.7c-8.8,11.3-7.8,26.7,2.1,34.5c10,7.7,25.2,4.8,33.9-6.5
						c8.8-11.3,7.8-26.7-2.1-34.5C1606.7-3868.9,1591.5-3866,1582.7-3854.7"/>
				</g>
				<g id="g2910" transform="translate(271.4077,593.0654)">
					<path id="path2912" class="st3" d="M1773.9-3825.6c-8.8,11.3-7.8,26.7,2.1,34.5c10,7.7,25.2,4.8,33.9-6.5
						c8.8-11.3,7.8-26.7-2.1-34.5C1797.8-3839.8,1782.6-3836.9,1773.9-3825.6"/>
				</g>
				<g id="g2914" transform="translate(342.6909,535.2061)">
					<path id="path2916" class="st3" d="M1904.6-3931.8c-8.8,11.3-7.8,26.7,2.1,34.5c10,7.7,25.2,4.8,33.9-6.5
						c8.8-11.3,7.8-26.7-2.1-34.5S1913.4-3943.1,1904.6-3931.8"/>
				</g>
				<g id="g2918" transform="translate(508.5742,603.7334)">
					<path id="path2920" class="st3" d="M2209-3806.1c-8.3,10.7-5.6,26.8,6.2,35.9c11.7,9.1,28,7.8,36.3-2.9
						c8.3-10.7,5.6-26.8-6.1-35.9C2233.6-3818.1,2217.3-3816.8,2209-3806.1"/>
				</g>
				<g id="g2922" transform="translate(485.3179,705.1816)">
					<path id="path2924" class="st3" d="M2166.3-3619.9c-7.4,9.6-3.6,24.9,8.5,34.3c12.1,9.4,27.9,9.3,35.3-0.3
						c7.4-9.6,3.6-24.9-8.5-34.3C2189.6-3629.6,2173.7-3629.5,2166.3-3619.9"/>
				</g>
				<g id="g2926" transform="translate(326.0879,723.0117)">
					<path id="path2928" class="st3" d="M1874.2-3587.2c-7.4,9.6-3.6,24.9,8.5,34.3c12.1,9.4,27.9,9.3,35.4-0.3
						c7.4-9.6,3.6-24.9-8.5-34.3C1897.4-3596.9,1881.6-3596.8,1874.2-3587.2"/>
				</g>
				<g id="g2930" transform="translate(219.5481,763.1523)">
					<path id="path2932" class="st3" d="M1678.7-3513.6c-7.4,9.6-3.6,24.9,8.5,34.3c12.1,9.4,27.9,9.3,35.4-0.3
						c7.4-9.6,3.6-24.9-8.5-34.3C1702-3523.3,1686.1-3523.2,1678.7-3513.6"/>
				</g>
				<g id="g2934" transform="translate(407.0757,868.1777)">
					<path id="path2936" class="st3" d="M2022.8-3320.9c-3.6,11.2,6.1,24.3,21.8,29.4c15.6,5.1,31.2,0.1,34.9-11.1
						c3.6-11.2-6.1-24.3-21.8-29.4C2042-3337,2026.4-3332.1,2022.8-3320.9"/>
				</g>
				<g id="g2938" transform="translate(281.0017,916.7109)">
					<path id="path2940" class="st3" d="M1791.5-3231.9c-3.6,11.2,6.1,24.3,21.8,29.4c15.6,5.1,31.2,0.1,34.9-11.1
						c3.6-11.2-6.1-24.3-21.8-29.4C1810.7-3248,1795.1-3243,1791.5-3231.9"/>
				</g>
				<g id="g2942" transform="translate(204.8625,888.9121)">
					<path id="path2944" class="st3" d="M1651.8-3282.9c-3.6,11.2,6.1,24.3,21.8,29.4c15.6,5.1,31.2,0.1,34.9-11.1
						c3.6-11.2-6.1-24.3-21.8-29.4C1671-3299,1655.4-3294,1651.8-3282.9"/>
				</g>
				<g id="g2946" transform="translate(138.636,976.7695)">
					<path id="path2948" class="st3" d="M1530.3-3121.7c-4.7,10.8,3.7,24.8,18.8,31.4c15.1,6.6,31.1,3.1,35.8-7.6
						c4.7-10.8-3.7-24.8-18.8-31.4C1551-3135.9,1534.9-3132.5,1530.3-3121.7"/>
				</g>
				<g id="g2950" transform="translate(321.7881,982.4502)">
					<path id="path2952" class="st3" d="M1866.3-3111.3c-4.7,10.8,3.7,24.8,18.8,31.4c15.1,6.6,31.1,3.1,35.8-7.6
						c4.7-10.8-3.7-24.8-18.8-31.4C1887-3125.4,1871-3122,1866.3-3111.3"/>
				</g>
				<g id="g2954" transform="translate(402.0908,1052.5889)">
					<path id="path2956" class="st3" d="M2013.6-2982.6c-4.7,10.8,3.7,24.8,18.8,31.4c15.1,6.6,31.1,3.1,35.8-7.6
						c4.7-10.8-3.7-24.8-18.8-31.4C2034.3-2996.8,2018.3-2993.3,2013.6-2982.6"/>
				</g>
				<g id="g2958" transform="translate(484.2354,970.917)">
					<path id="path2960" class="st3" d="M2164.3-3132.4c-4.7,10.8,3.7,24.8,18.8,31.4c15.1,6.6,31.1,3.1,35.8-7.6
						c4.7-10.8-3.7-24.8-18.8-31.4C2185-3146.6,2169-3143.2,2164.3-3132.4"/>
				</g>
				<g id="g2962" transform="translate(483.416,1064.0869)">
					<path id="path2964" class="st3" d="M2162.8-2961.5c-4.7,10.8,4.4,25.1,20.2,32c15.9,6.9,32.5,3.8,37.2-7
						c4.7-10.8-4.4-25.1-20.2-32C2184.1-2975.4,2167.5-2972.3,2162.8-2961.5"/>
				</g>
				<g id="g2966" transform="translate(596.5386,980.8809)">
					<path id="path2968" class="st3" d="M2370.3-3114.1c-4.7,10.8,4.4,25.1,20.2,32c15.9,6.9,32.5,3.8,37.2-7
						c4.7-10.8-4.4-25.1-20.2-32C2391.7-3128,2375-3124.9,2370.3-3114.1"/>
				</g>
				<g id="g2970" transform="translate(680.9824,1054.4629)">
					<path id="path2972" class="st3" d="M2525.3-2979.1c-4.7,10.8,4.4,25.1,20.2,32c15.9,6.9,32.5,3.8,37.2-7
						c4.7-10.8-4.4-25.1-20.2-32C2546.6-2993.1,2530-2989.9,2525.3-2979.1"/>
				</g>
				<g id="g2974" transform="translate(781.127,1115.2578)">
					<path id="path2976" class="st3" d="M2709-2867.6c-4.7,10.8,4.4,25.1,20.2,32c15.9,6.9,32.5,3.8,37.2-7
						c4.7-10.8-4.4-25.1-20.2-32C2730.3-2881.5,2713.7-2878.4,2709-2867.6"/>
				</g>
				<g id="g2978" transform="translate(897.1255,1071.873)">
					<path id="path2980" class="st3" d="M2921.8-2947.2c-4.7,10.8,4.4,25.1,20.2,32c15.9,6.9,32.5,3.8,37.2-7
						c4.7-10.8-4.4-25.1-20.2-32C2943.2-2961.1,2926.5-2958,2921.8-2947.2"/>
				</g>
				<g id="g2982" transform="translate(777.6182,1184.5449)">
					<path id="path2984" class="st3" d="M2702.6-2740.5c-4.7,10.8,4.4,25.1,20.2,32c15.9,6.9,32.5,3.8,37.2-7
						c4.7-10.8-4.4-25.1-20.2-32C2723.9-2754.4,2707.2-2751.3,2702.6-2740.5"/>
				</g>
				<g id="g2986" transform="translate(756.3691,1250.1914)">
					<path id="path2988" class="st3" d="M2663.6-2620c-4.7,10.8,4.4,25.1,20.2,32s32.5,3.8,37.2-7c4.7-10.8-4.4-25.1-20.2-32
						C2684.9-2634,2668.3-2630.8,2663.6-2620"/>
				</g>
				<g id="g2990" transform="translate(909.9951,1278.8984)">
					<path id="path2992" class="st3" d="M2945.4-2567.4c-4.7,10.8,4.4,25.1,20.2,32c15.9,6.9,32.5,3.8,37.2-7
						c4.7-10.8-4.4-25.1-20.2-32C2966.8-2581.3,2950.1-2578.1,2945.4-2567.4"/>
				</g>
				<g id="g2994" transform="translate(874.8101,1342.1357)">
					<path id="path2996" class="st3" d="M2880.9-2451.4c-4.7,10.8,4.4,25.1,20.2,32c15.9,6.9,32.5,3.8,37.2-7
						c4.7-10.8-4.4-25.1-20.2-32C2902.2-2465.3,2885.6-2462.1,2880.9-2451.4"/>
				</g>
				<g id="g2998" transform="translate(766.5103,1361.7363)">
					<path id="path3000" class="st3" d="M2682.2-2415.4c-4.7,10.8,4.4,25.1,20.2,32c15.9,6.9,32.5,3.8,37.2-7
						c4.7-10.8-4.4-25.1-20.2-32C2703.5-2429.3,2686.9-2426.2,2682.2-2415.4"/>
				</g>
				<g id="g3002" transform="translate(703.4155,1306.627)">
					<path id="path3004" class="st3" d="M2566.4-2516.5c-4.7,10.8,4.4,25.1,20.2,32c15.9,6.9,32.5,3.8,37.2-7
						c4.7-10.8-4.4-25.1-20.2-32C2587.8-2530.4,2571.1-2527.3,2566.4-2516.5"/>
				</g>
				<g id="g3006" transform="translate(654.438,1392.9307)">
					<path id="path3008" class="st3" d="M2476.6-2358.2c-4.7,10.8,3.2,24.6,17.7,30.9c14.4,6.3,29.9,2.6,34.6-8.1
						c4.7-10.8-3.2-24.6-17.7-30.9C2496.7-2372.6,2481.3-2368.9,2476.6-2358.2"/>
				</g>
				<g id="g3010" transform="translate(565.0337,1367.1445)">
					<path id="path3012" class="st3" d="M2312.5-2405.5c-4.7,10.8,3.2,24.6,17.7,30.9c14.4,6.3,29.9,2.6,34.6-8.1
						c4.7-10.8-3.2-24.6-17.7-30.9C2332.7-2419.9,2317.2-2416.2,2312.5-2405.5"/>
				</g>
				<g id="g3014" transform="translate(488.5156,1441.1777)">
					<path id="path3016" class="st3" d="M2172.2-2269.7c-4.7,10.8,3.2,24.6,17.7,30.9c14.4,6.3,29.9,2.6,34.6-8.1
						c4.7-10.8-3.2-24.6-17.7-30.9C2192.3-2284.1,2176.8-2280.4,2172.2-2269.7"/>
				</g>
				<g id="g3018" transform="translate(737.2593,1461.7832)">
					<path id="path3020" class="st3" d="M2628.5-2231.9c-4.7,10.8,3.2,24.6,17.7,30.9c14.4,6.3,29.9,2.6,34.6-8.1
						c4.7-10.8-3.2-24.6-17.7-30.9C2648.7-2246.3,2633.2-2242.6,2628.5-2231.9"/>
				</g>
				<g id="g3022" transform="translate(755.0703,1572.6738)">
					<path id="path3024" class="st3" d="M2661.2-2028.4c-5.3,12.2,0.9,26.7,13.8,32.3c12.9,5.6,27.7,0.3,33-11.9
						c5.3-12.2-0.9-26.7-13.8-32.3C2681.3-2046,2666.5-2040.6,2661.2-2028.4"/>
				</g>
				<g id="g3026" transform="translate(663.2227,1540.125)">
					<path id="path3028" class="st3" d="M2492.7-2088.1c-5.3,12.2,0.9,26.7,13.8,32.3c12.9,5.6,27.7,0.3,33-11.9
						c5.3-12.2-0.9-26.7-13.8-32.3C2512.8-2105.7,2498-2100.3,2492.7-2088.1"/>
				</g>
				<g id="g3030" transform="translate(837.3042,1438.46)">
					<path id="path3032" class="st3" d="M2812.1-2274.6c-4.7,10.8,3.2,24.6,17.7,30.9c14.4,6.3,29.9,2.6,34.6-8.1
						c4.7-10.8-3.2-24.6-17.7-30.9C2832.2-2289.1,2816.7-2285.4,2812.1-2274.6"/>
				</g>
				<g id="g3034" transform="translate(958.3853,1444.4912)">
					<path id="path3036" class="st3" d="M3034.2-2263.6c-4.9,11.3,2.2,25.2,15.8,31.1c13.6,5.9,28.7,1.6,33.6-9.7
						c4.9-11.3-2.2-25.2-15.8-31.1C3054.1-2279.2,3039.1-2274.8,3034.2-2263.6"/>
				</g>
				<g id="g3038" transform="translate(1084.8271,1365.5957)">
					<path id="path3040" class="st3" d="M3266.2-2408.3c-4.9,11.3,2.2,25.2,15.8,31.1s28.7,1.6,33.6-9.7
						c4.9-11.3-2.2-25.2-15.8-31.1S3271.1-2419.6,3266.2-2408.3"/>
				</g>
				<g id="g3042" transform="translate(1003.9087,1475.7305)">
					<path id="path3044" class="st3" d="M3117.7-2206.3c-5.3,12.1,1,26.6,14,32.2c13,5.6,27.8,0.4,33.1-11.7
						c5.3-12.1-1-26.6-14-32.2C3137.8-2223.7,3123-2218.4,3117.7-2206.3"/>
				</g>
				<g id="g3046" transform="translate(1072.166,1638.6152)">
					<path id="path3048" class="st3" d="M3243-1907.4c-5.7,13.2-1.1,27.9,10.3,32.9c11.4,5,25.4-1.7,31.1-14.9
						c5.7-13.2,1.1-27.9-10.3-32.9S3248.7-1920.6,3243-1907.4"/>
				</g>
				<g id="g3050" transform="translate(991.4346,1628.249)">
					<path id="path3052" class="st3" d="M3094.8-1926.4c-5.7,13.2-1.1,27.9,10.3,32.9c11.4,5,25.4-1.7,31.1-14.9
						c5.7-13.2,1.1-27.9-10.3-32.9S3100.6-1939.6,3094.8-1926.4"/>
				</g>
				<g id="g3054" transform="translate(948.9604,1753.8418)">
					<path id="path3056" class="st3" d="M3016.9-1696c-8.2,15-5.9,32.1,5,38c10.9,6,26.5-1.4,34.6-16.4c8.2-15,5.9-32.1-5-38
						C3040.6-1718.4,3025.1-1711.1,3016.9-1696"/>
				</g>
				<g id="g3058" transform="translate(862.4658,1735.3037)">
					<path id="path3060" class="st3" d="M2858.2-1730c-8.2,15-5.9,32.1,5,38c10.9,6,26.5-1.4,34.6-16.4c8.2-15,5.9-32.1-5-38
						C2881.9-1752.4,2866.4-1745.1,2858.2-1730"/>
				</g>
				<g id="g3062" transform="translate(914.1465,1886.7305)">
					<path id="path3064" class="st3" d="M2953-1452.2c-12.3,15.5-16.1,33-8.4,39.2c7.7,6.1,24-1.4,36.3-16.9s16.1-33,8.4-39.2
						C2981.6-1475.3,2965.4-1467.7,2953-1452.2"/>
				</g>
				<g id="g3066" transform="translate(749.8774,1857.1172)">
					<path id="path3068" class="st3" d="M2651.7-1506.6c-10.7,13.4-13.1,29.3-5.4,35.4c7.7,6.1,22.6,0.2,33.3-13.2
						c10.7-13.4,13.1-29.3,5.4-35.4C2677.3-1525.9,2662.4-1520,2651.7-1506.6"/>
				</g>
				<g id="g3070" transform="translate(749.6387,2025.9053)">
					<path id="path3072" class="st3" d="M2651.2-1196.9c-13.8,17.3-19.7,35.5-13.2,40.7c6.5,5.2,22.9-4.7,36.7-22
						c13.8-17.3,19.7-35.5,13.2-40.7C2681.4-1224,2665-1214.2,2651.2-1196.9"/>
				</g>
				<g id="g3074" transform="translate(787.792,1694.5293)">
					<path id="path3076" class="st3" d="M2721.2-1804.8c-6.9,12.7-3.6,27.8,7.3,33.7c11,6,25.4,0.5,32.3-12.1
						c6.9-12.7,3.6-27.8-7.3-33.7C2742.6-1823,2728.1-1817.5,2721.2-1804.8"/>
				</g>
				<g id="g3078" transform="translate(1144.0806,1735.3936)">
					<path id="path3080" class="st3" d="M3374.9-1729.9c-9.7,13.7-10.3,29.9-1.4,36.2c8.9,6.3,24,0.3,33.7-13.4
						c9.7-13.7,10.3-29.9,1.4-36.2C3399.7-1749.6,3384.6-1743.6,3374.9-1729.9"/>
				</g>
				<g id="g3082" transform="translate(644.9609,1145.2178)">
					<path id="path3084" class="st3" d="M2459.2-2812.6c-3.7,10.2,6.4,23.3,22.7,29.3c16.2,5.9,32.4,2.4,36.2-7.8
						c3.7-10.2-6.4-23.3-22.7-29.3C2479.1-2826.4,2462.9-2822.9,2459.2-2812.6"/>
				</g>
				<g id="g3086" transform="translate(551.2124,1165.3242)">
					<path id="path3088" class="st3" d="M2287.2-2775.7c-3.7,10.2,6.4,23.3,22.7,29.3c16.2,5.9,32.4,2.4,36.2-7.8
						c3.7-10.2-6.4-23.3-22.7-29.3C2307.1-2789.5,2290.9-2786,2287.2-2775.7"/>
				</g>
				<g id="g3090" transform="translate(484.6147,1143.7666)">
					<path id="path3092" class="st3" d="M2165-2815.3c-3.7,10.2,6.4,23.3,22.7,29.3c16.2,5.9,32.4,2.4,36.2-7.8
						c3.7-10.2-6.4-23.3-22.7-29.3C2184.9-2829,2168.7-2825.5,2165-2815.3"/>
				</g>
				<g id="g3094" transform="translate(452.9326,1173.4531)">
					<path id="path3096" class="st3" d="M2106.9-2760.8c-3.7,10.2,6.4,23.3,22.7,29.3c16.2,5.9,32.4,2.4,36.2-7.8
						c3.7-10.2-6.4-23.3-22.7-29.3C2126.8-2774.6,2110.6-2771.1,2106.9-2760.8"/>
				</g>
				<g id="g3098" transform="translate(333.7974,1233.4102)">
					<path id="path3100" class="st3" d="M1888.3-2650.8c-4.9,9.7,3.7,23.9,19.2,31.7c15.5,7.7,31.9,6.1,36.8-3.6
						c4.9-9.7-3.7-23.9-19.2-31.7C1909.7-2662.2,1893.2-2660.6,1888.3-2650.8"/>
				</g>
				<g id="g3102" transform="translate(568.6602,1257.9307)">
					<path id="path3104" class="st3" d="M2319.2-2605.8c-4.9,9.7,3.7,23.9,19.2,31.7c15.5,7.7,31.9,6.1,36.8-3.6
						c4.9-9.7-3.7-23.9-19.2-31.7C2340.6-2617.2,2324.1-2615.6,2319.2-2605.8"/>
				</g>
				<g id="g3106" transform="translate(451.8091,817.7432)">
					<path id="path3108" class="st3" d="M2104.8-3413.4c-4.4,10.9,4.4,24.7,19.6,30.9c15.2,6.2,31.2,2.4,35.6-8.5
						c4.4-10.9-4.4-24.7-19.6-30.9C2125.2-3428.1,2109.2-3424.3,2104.8-3413.4"/>
				</g>
				<g id="g3110" transform="translate(545.437,856.459)">
					<path id="path3112" class="st3" d="M2276.6-3342.4c-4.4,10.9,4.4,24.7,19.6,30.9c15.2,6.2,31.2,2.4,35.6-8.5
						c4.4-10.9-4.4-24.7-19.6-30.9C2296.9-3357.1,2281-3353.3,2276.6-3342.4"/>
				</g>
				<g id="g3114" transform="translate(642.2593,862.5732)">
					<path id="path3116" class="st3" d="M2454.2-3331.2c-4.4,10.9,4.4,24.7,19.6,30.9c15.2,6.2,31.2,2.4,35.6-8.5
						c4.4-10.9-4.4-24.7-19.6-30.9C2474.6-3345.9,2458.6-3342.1,2454.2-3331.2"/>
				</g>
				<g id="g3118" transform="translate(169.877,640.8525)">
					<path id="path3120" class="st3" d="M1587.6-3738c-9.2,10.3-8.8,25.8,1,34.5c9.8,8.7,25.1,7.4,34.4-2.9
						c9.2-10.3,8.8-25.8-1-34.5C1612.2-3749.6,1596.8-3748.3,1587.6-3738"/>
				</g>
			</g>
		</g>
	</g>
</g>
</svg>
